<mxfile host="app.diagrams.net" modified="2023-06-21T18:01:50.607Z" agent="Mozilla/5.0 (Windows NT 10.0; Win64; x64) AppleWebKit/537.36 (KHTML, like Gecko) Chrome/114.0.0.0 Safari/537.36" etag="qEbJmU4lrxVjptUZ5izT" version="21.4.0" type="github">
  <diagram name="Страница 1" id="Qu0zPk_Ac5Z3QpVH3JoJ">
    <mxGraphModel dx="1834" dy="1196" grid="1" gridSize="10" guides="1" tooltips="1" connect="1" arrows="1" fold="1" page="0" pageScale="1" pageWidth="827" pageHeight="1169" math="0" shadow="0">
      <root>
        <mxCell id="0" />
        <mxCell id="1" parent="0" />
        <mxCell id="8oy2ZjV4FJxmVUqgHbTL-1" value="ЛПР" style="shape=image;verticalLabelPosition=bottom;labelBackgroundColor=default;verticalAlign=top;aspect=fixed;imageAspect=0;image=data:image/png,iVBORw0KGgoAAAANSUhEUgAAA6oAAAPUCAYAAACkVMSvAAAABGdBTUEAALGPC/xhBQAAAAFzUkdCAK7OHOkAAAAgY0hSTQAAeiYAAICEAAD6AAAAgOgAAHUwAADqYAAAOpgAABdwnLpRPAAAAAZiS0dEAP8A/wD/oL2nkwAAAAlwSFlzAAAASAAAAEgARslrPgAAgABJREFUeNrs3Xd0VNXe//HvSU8gIbTQO0IC0pv0Kr0jIApIVe8FFBQVsaCgCKIoRVRUqkhVQZAuvRN66BB6DzWkJ7N/fzxef3qvkplkJnvOmfdrrbPu8q77+HwYZvbZn7P3OcdQSgkAwDMkJCSomJgYiYmJkRs3bsjt27clLi5O7t69KwkJCRIfHy/379+XuLg4iY+Pl9jYWImNjZWEhAR5+PDhH/+exMRESUhI+Mu/OykpSeLj4//454CAAAkMDPzjn4OCgsTf3/+Pf86ePbv4+vpKUFCQZMuWTYKDgyU0NFSyZcv2xz/nyJFDsmXLJtmzZ5fcuXNL3rx5JSwsTHLnzm3o/iwBAIDrGBRVADC/+/fvq4sXL8r58+fl/PnzcvHiRblx44b8p5TevHlTYmJiJC4uTndUp/Dx8ZG8efNK3rx5JV++fBIWFvZHiS1cuLCUKFFCSpQoIQULFhTDMCi1AACYDEUVAEziwoUL6vjx43Ls2DG5cOGCnD9/Xi5cuCAXLlyQe/fu6Y7nlvz9/aV48eJSokSJP/6zRIkSUqpUKQkPD5egoCBKLAAAboiiCgBu5urVq+rYsWNy9OhR+c9/Hj58WGJjY3VHs5wCBQpI+fLlpVy5clK+fHkpWbKkVKpUSfLmzUuBBQBAI4oqAGiilFKnT5+WyMhIiYyMlL1798qhQ4copG6gSJEiEhERIZUrV5Zq1apJtWrVpFSpUpRXAACyCEUVALLI1atX1b59++Q/x65duyQmJkZ3LNgpJCREKlSo8EdxrVatmkRERIiXlxcFFgAAJ6OoAoAL2Gw2dfToUdm8ebNs3bpVtmzZItevX9cdC04WGhoqtWrVkrp160r9+vWlZs2a3PcKAIATUFQBwAnS0tLUwYMHZdu2bbJ9+3bZsGGD3L59W3csZDEfHx+pVKmS1K1bV+rVqyeNGzeWPHnyUFwBAHAQRRUAMuj06dNq9erVsnr1atmyZctf3jMKiIgYhiERERHSqFEjad68uTRp0kSCg4MprgAApIOiCgB2SkhIUNu3b5f169fL8uXL5dixY7ojwWS8vb2lcuXK0qxZM2nWrJk0atRIfHx8KK4AAPwXiioAPEJ0dLRaunTpH6umSUlJuiPBQnLnzi3NmjWT5s2bS+vWrSV//vyUVgAAhKIKAP8jOjpaLV++XBYvXiw7duwQxklkBS8vL6lSpYq0bdtWnn76aQkPD6e0AgA8FkUVAETk6NGjavHixbJ48WK29MItlCtXTtq1aydt27aVunXrimEYFFcAgMegqALwWEePHlVz586VRYsWyblz53THAf5R8eLFpVOnTtKjRw+pUaMGhRUAYHkUVQAe5e7du2rx4sUyZ84c2b59u+44gMOKFSsmTz/9tPTv318ee+wxSisAwJIoqgAsLykpSa1du1bmzp0rS5culZSUFN2RAKeoVq2a9OrVS3r06CFhYWGUVgCAZVBUAVjWoUOH1FdffSULFiyQe/fu6Y4DuIyvr6+0bNlS+vTpI+3bt+eVNwAA06OoArCU5ORktWzZMpk+fbqsX79edxwgy+XPn1+ee+45eeGFF6REiRIUVgCAKVFUAVjClStX1DfffCPTpk2TW7du6Y4DaOfl5SVNmjSR559/Xjp16sQqKwDAVCiqAExLKaVWrVolX3zxhaxevVpsNpvuSIBbKlKkiAwYMEAGDhwoBQoUoLACANweRRWA6aSkpKj58+fLxx9/LEePHtUdBzANPz8/6dChg7z22mu85gYA4NYoqgBM4+HDh+q7776TTz/9VC5duqQ7DmBqdevWlTfeeEPatm0rhmFQWgEAboWiCsDt3bx5U02bNk2mTJkid+7c0R0HsJSKFSvKoEGDpHfv3hIQEEBhBQC4BYoqALd16dIlNXbsWJk5c6YkJSXpjgNYWsGCBeWVV16Rf/3rXxIUFERhBQBoRVEF4HZu3rypJk6cKJMmTZLExETdcQCPkidPHhk+fLgMGTKEwgoA0IaiCsBtxMTEqE8++UQmT54sCQkJuuMAHi1v3rzy6quvUlgBAFpQVAFod/v2bTVlyhT57LPP5MGDB7rjAPgTCisAQAeKKgBt4uPj1aeffioTJkyQ2NhY3XEAPEL+/Pll1KhRMmDAAPHx8aGwAgBciqIKIMsppdSSJUvk9ddfl/Pnz+uOA8ABZcuWlTFjxkjXrl0pqwAAl6GoAshSe/bsUa+88ops375ddxQAmdCkSROZMGGCVK1alcIKAHA6L90BAHiGS5cuqd69e6snnniCkgpYwIYNG6R69erSrVs3df78ea56AwCcihVVAC6VkJCgPvzwQ/n000951QxgUYGBgfLaa6/JiBEjJDAwkBVWAECmUVQBuMzGjRvVv/71Lzl58qTuKACyQMmSJWXKlCnSunVryioAIFPY+gvA6a5fv6569+6tmjRpQkkFPEh0dLS0adNG2rVrpy5cuMCVcABAhrGiCsBplFJq7ty58sorr8jt27d1xwGgUVBQkLz22msycuRI8fPzY4UVAOAQiioApzh06JB64YUXZPfu3bqjAHAjFStWlC+//FLq1KlDWQUA2I2tvwAyJTU1VY0fP17VrFmTkgrgfxw+fFjq1asnL7zwgoqLi+PqOADALqyoAsiw6Oho9dxzz8m2bdt0RwFgAqVKlZIZM2ZIgwYNWF0FADwSK6oAHKaUUtOnT1cVK1akpAKw29mzZ6Vx48by8ssvq6SkJK6UAwD+ESuqABxy8eJF1bdvX9mwYYPuKABMrFy5cjJr1iypUaMGq6sAgP9BUQVgtzlz5qghQ4bIgwcPdEdBFggODpYcOXJISEiIhISESPbs2SVbtmzi5+cn3t7eEhISIiIi2bNnF19f33/898TFxUlycrLEx8dLUlKSJCQkSGJioiQlJcmDBw/k/v37cv/+fbl7967uPzKymI+Pj7z11lvyzjvviLe3N4UVAPAHiiqAdMXFxalBgwbJ7NmzdUdBJvj4+EihQoWkSJEiUrRoUcmbN6/kzZtX8ufPL2FhYZInTx7Jnz+/hIaGSmhoqBiGkeXF4f79++revXty//59uXXrlly/fv2P/7xx44bcvHlTrl27JpcvX5Zbt27p/kjhJA0aNJB58+ZJ4cKFKasAABGhqAJIR1RUlOrevbscO3ZMdxTYISwsTMqUKSNlypSRxx57TIoVKyZFixaVYsWKSYECBSy1ahUfH6/Onz8vFy9elIsXL8qFCxfk4sWLcvr0aTl16hQrtCaTJ08emTlzprRt29Yy31EAQMZRVAH8oxkzZqghQ4ZIfHy87ij4L0WKFJEKFSpIxYoV5fHHH/+jmIaGhjLJ/92tW7fUiRMn5OTJk3Lq1Ck5deqUHD16VKKjo8Vms+mOh79hGIYMHTpUxo0bJ35+fnyXAcCDUVQB/I+HDx+qf//73zJ37lzdUTyet7e3RERESI0aNaRq1ap/lNOcOXMyic+ghw8fqiNHjsjhw4fl4MGDcujQITly5Ig8fPhQdzT8rnr16rJgwQIpVaoU33MA8FAUVQB/cezYMdWlSxc5ceKE7igeqXDhwvLEE09IzZo1pWbNmlKtWjXJnj07k3UXs9ls6vTp07J7927ZvXu37Nq1Sw4fPiypqam6o3mskJAQmTVrlnTq1InvPwB4IIoqgD+sWLFCPfvsszzVNwuVLFlSGjRoIA0bNpQGDRpIyZIlmZS7ifj4eLVv3z7ZvXu3bN++XbZs2SJ37tzRHcujGIYh77zzjowaNUq8vLz4bQCAB6GoAhCllBo/fry89dZb3LvnYvny5ZPmzZtL8+bNpVGjRjzl1ERsNps6cuSIbNq0STZu3Chbt26luGaRDh06yNy5cyU4OJjfCwB4CIoq4OESEhJU//79Zf78+bqjWJKfn5/Uq1dPmjdvLi1atJBKlSppee0LnM9ms6nDhw/LunXrZNWqVbJt2zZJSUnRHcuyypUrJ0uXLpXHHnuM3w8AeACKKuDBLl++rDp27Cj79u3THcVSQkNDpU2bNtKxY0dp2bIl95h6iAcPHqj169fLqlWrZNWqVXLlyhXdkSwnNDRU5s+fLy1btuQ3BQAWR1EFPNTOnTtV586d5fr167qjWELhwoWlQ4cO0rFjR2nYsKH4+voykfZwBw8eVEuXLpUff/xRoqKidMexDG9vb/noo4/ktdde4zcGABZGUQU80LJly9QzzzzD+1EzKVeuXNKmTRvp3bu3NGnShIe94B+dO3dO/fLLL7J48WLZsWOHcO7NvP79+8tXX30lPj4+/O4AwIIoqoCH+frrr9WgQYMkLS1NdxRTCgkJkU6dOsnTTz8tzZo1Y5IMh507d04tWrRI5s6dK0ePHtUdx9Q6dOggP/zwgwQFBfE7BACLoagCHmT8+PFqxIgRumOYUrVq1eT555+XZ599VrJly8akGE5x9OhRNXfuXJk9ezbb8DOoZs2asnz5cgkLC+N3CQAWQlEFPEBqaqp64YUXZMaMGbqjmErBggXlueeek379+knp0qWZBMNl0tLS1Nq1a2XOnDny888/S1JSku5IpvLYY4/JqlWrpFSpUvxOAcAiKKqAxcXFxanu3bvLr7/+qjuKKRiGIU2bNpXBgwdL27Ztxdvbm4kvstStW7fUrFmzZPr06XLmzBndcUwjLCxMVqxYITVq1OA3CwAWQFEFLOzevXuqVatWsmvXLt1R3F5wcLA899xzMmjQIAkPD2eiC+2UUuq3336Tr7/+WpYtW8Y7Wu2QPXt2+eWXX6Rx48b8hgHA5CiqgEXduXNHNW/enHekpqN06dLy8ssvy3PPPSfBwcFMbuGWrl27pr744gv56quv5Pbt27rjuLXAwED5+eefpUWLFvyeAcDEKKqABd29e1c1b95cIiMjdUdxW5UrV5Zhw4bJM888w5N7YRpJSUlq4cKFMm7cODl+/LjuOG7Lz89PFixYIJ06deK3DQAmRVEFLObGjRuqWbNmEhUVpTuKW2revLm8/vrr0rRpUyawMC2bzaaWL18uEydOlC1btuiO45Z8fX1l3rx50rVrV37rAGBCFFXAQq5evaqaNm0qJ06c0B3F7bRr105GjRol1apVY9IKS9m6dasaPXq0rF+/XncUt+Pt7S2zZs2Snj178rsHAJOhqAIWcenSJdW0aVM5ffq07ihupXXr1vLee+/xJFBY3o4dO9SYMWNk9erVuqO4FS8vL/n6669lwIABjAEAYCIUVcACrl+/rurXr8+rLP6kRYsW8v7770utWrWYnMKj7NmzR40ePZpXUv2Jl5eXzJo1S3r16sV4AAAmQVEFTO7evXuqSZMmcuDAAd1R3EK1atVkwoQJvJ4CHm/Xrl3q9ddfl61bt+qO4ha8vb1l/vz53LMKACZBUQVMLD4+XjVv3ly2b9+uO4p2RYoUkbffflsGDBggXl5eTESB361fv1698sorcuTIEd1RtPPz85Off/5ZWrduzRgBAG6OogqYVGJiomrdurVs3LhRdxStQkNDZeTIkTJkyBAJCAhg8gn8jdTUVPXdd9/Je++9J9evX9cdR6ugoCBZvXq11K9fn/ECANwYRRUwoZSUFNW5c2dZsWKF7ijaGIYhPXv2lAkTJki+fPmYcAJ2iIuLUxMmTJCPPvpIkpOTdcfRJiQkRH777TepXr06YwcAuCmKKmAyNptN9ezZU+bPn687ijbVqlWTqVOnyhNPPMEkE8iA48ePq5deesmjX2mTJ08e2bx5s5QrV45xBADckJfuAAAc88orr3hsSc2dO7d89dVXsmfPHkoqkAkRERHGunXrjCVLlkixYsV0x9EiJiZGWrVqJdeuXeOKPQC4IVZUAROZPn26euGFF3TH0KJr164ydepUCQsLo6ACTpSQkKDef/99+eSTTyQtLU13nCxXtWpV2bx5s2TPnp2xBQDcCEUVMIlVq1ap9u3bS2pqqu4oWapAgQIydepU6dy5M5NIwIUOHjyoBgwYIPv27dMdJcu1bt1ali1bJj4+PowzAOAm2PoLmMCBAwdUt27dPKqkGoYhvXr1kqioKEoqkAUqV65s7Nq1S8aNGycBAQG642SplStXyqBBg3THAAD8CSuqgJu7fPmyqlWrlly9elV3lCxTtGhRmTVrljRu3JiCCmhw4sQJ1adPH9m9e7fuKFnq008/lVdeeYVxBwDcACuqgBuLjY1Vbdu29aiS2rVrVzlw4AAlFdAoPDzc2LZtm4wbN058fX11x8kyr732mvz0009cwQcAN8CKKuCmbDabat++vfz666+6o2SJXLlyybRp06R79+4UVMCN7N69W/Xs2VPOnDmjO0qWCAoKkh07dkilSpUYiwBAI1ZUATf1/vvve0xJbdKkiRw+fJiSCrihWrVqGQcOHJCBAwfqjpIl4uPjpXPnznLnzh2u5AOARqyoAm5o+fLlqmPHjmKz2XRHcSkvLy95++235d133xVvb29KKuDmlixZovr37y8PHjzQHcXlWrZsKb/++qt4eXkxNgGABhRVwM2cPn1a1axZU+7du6c7ikvlyZNH5s6dKy1btmQSCJjI6dOnVdeuXeXQoUO6o7jcW2+9JR988AFjFABoQFEF3MjDhw9V7dq1JSoqSncUl6pfv77Mnz9fChUqxAQQMKHExET1xhtvyOTJk3VHcSnDMGTRokXy1FNPMVYBQBbjHlXATSil1IABAyxfUocOHSobNmygpAImFhAQYEyaNMmYMWOGBAYG6o7jMkop6d+/v5w4cYKr+gCQxVhRBdzEp59+qoYPH647hssEBATIV199Jc899xwFFbCQyMhI1bFjR7ly5YruKC4TEREhe/fulWzZsjF+AUAWoagCbiAyMlLVrVtXkpOTdUdxiYIFC8pPP/0ktWrVYpIHWNC1a9dUp06dZPfu3bqjuEz//v3l22+/ZQwDgCxCUQU0i42NVVWqVJGzZ8/qjuISTzzxhPz0009SoEABJniAhSUmJqr+/fvLDz/8oDuKyyxcuFC6devGWAYAWYB7VAHNBg0aZNmS2qVLF9mwYQMlFfAAAQEBxvfffy9jx44Vw7DmT/6FF16QCxcucIUfALIAK6qARosWLVLdu3fXHcMlXnrpJfnss894ByHggX788UfVs2dPSUxM1B3F6WrWrCnbtm0TX19fxjYAcCFWVAFNoqOj1cCBA3XHcDrDMGTcuHEyadIkg5IKeKYuXboYv/76q4SEhOiO4nR79uyRDz74QHcMALA8VlQBDVJTU1X9+vVl165duqM4lb+/v8ybN0+6dOlCQQUg+/fvV61bt5YbN27ojuJU3t7esmHDBmnQoAFjHQC4CCuqgAbvv/++5UpqtmzZ5Ndff6WkAvhD1apVjR07dkjp0qV1R3GqtLQ06dWrlzx48ICr/QDgIqyoAlnswIEDqlatWpKSkqI7itOEhobKr7/+KnXq1KGkAvgfN2/eVM2aNZMjR47ojuJUL7zwgnz11VeMewDgAhRVIAulpqaqmjVryoEDB3RHcZqwsDBZs2aNVK5cmckagH9069Yt9eSTT8qhQ4d0R3EawzBk9erV0rx5c8Y/AHAytv4CWeiDDz6wVEktXLiwbN68mZIKIF158+Y1fvvtN6lataruKE6jlJIXX3xRHj58yFV/AHAyiiqQRQ4fPqw++ugj3TGcJl++fLJ27VoJDw+npAKwS+7cuY0NGzbIE088oTuK05w7d05GjhypOwYAWA5bf4EskJqaqmrVqiX79+/XHcUp8uXLJxs3bpSIiAhKKgCHPXjwQDVr1kz27t2rO4pTeHl5yaZNm6R+/fqMiQDgJKyoAllg3LhxlimpefLkkXXr1lFSAWRYSEiIsXbtWqlcubLuKE5hs9nkueeek7i4OK7+A4CTUFQBFzt+/Liyysvhc+XKJevWrZMKFSpQUgFkSmhoqLFy5UrLvLrm3LlzMnr0aN0xAMAy2PoLuFjTpk3Vhg0bdMfItMDAQFm3bp3UrVuXkgrAaS5duqTq168vFy5c0B0l0/z8/OTgwYPsOAEAJ2BFFXChBQsWWKKk+vj4yOLFiympAJyuSJEixpo1ayQsLEx3lExLTk6WIUOG6I4BAJbAiirgIg8fPlTh4eFy5coV3VEyxTAM+e6776Rv376UVAAuExkZqRo1aiRxcXG6o2TaokWLpGvXroyZAJAJrKgCLjJ69GjTl1QRkfHjx1NSAbhc9erVjYULF4q3t7fuKJn2yiuv8G5VAMgkiirgAsePH1eff/657hiZNnjwYHnttdcoqQCyRJs2bYxPP/1Ud4xMu3z5sowZM0Z3DAAwNbb+Ai7QsmVLtWbNGt0xMuXJJ5+UlStXio+PD0UVQJYaOnSomjRpku4YmcKDlQAgcyiqgJMtWrRIde/eXXeMTAkPD5edO3dKaGgoEywAWc5ms6lOnTrJL7/8ojtKpjz55JOydu1axlEAyACKKuBEycnJKiIiQqKjo3VHybBcuXLJrl275LHHHmNyBUCb2NhY9cQTT8ixY8d0R8mU1atXS4sWLRhPAcBB3KMKONHUqVNNXVJ9fX1lyZIllFQA2gUHBxs//vijhISE6I6SKW+88YbYbDZWBQDAQRRVwEnu3bunxo4dqztGpowfP14aN25MSQXgFsLDw43vv/9evLzMO105dOiQzJs3T3cMADAd8478gJv56KOP5Pbt27pjZFiHDh1k6NChumMAwF+0a9fOeOedd3THyJSRI0dKQkICq6oA4ADuUQWc4NKlS6ps2bKSkJCgO0qGlClTRvbu3SshISGspgJwOzabTbVr105WrlypO0qGTZgwQYYPH84YCwB2oqgCTtCnTx81e/Zs3TEyJDAwUHbs2CGVK1dmAgXAbd26dUtVrlxZrl69qjtKhoSGhsrZs2clV65cjLUAYAe2/gKZdPjwYTV37lzdMTLsyy+/pKQCcHt58+Y19f2q9+7dk3HjxumOAQCmYc7RHnAjI0eOFJvNpjtGhnTv3l2ee+45SioAU2jcuLExcuRI3TEybOrUqXL9+nW2sgGAHdj6C2TCgQMHVLVq1cSMv6NChQrJ4cOH2YYGwFTS0tLUk08+KRs3btQdJUOGDx8uEyZMYNwFgHRQVIFM6Nixo1q2bJnuGA7z8vKS9evX8yoaAKZ08eJFVbFiRbl//77uKA7Lli2bnDt3TvLmzcv4CwCPwNZfIIMOHTqkfvnlF90xMmT48OGUVACmVbRoUWPixIm6Y2RIXFycmDU7AGQlVlSBDHrqqafUjz/+qDuGwypUqCCRkZHi5+dHUQVgam3atFFmfGVNcHCwnDt3TnLnzs04DAD/gBVVIAOOHTumfv75Z90xHObj4yPfffcdJRWAJXzzzTeSK1cu3TEcFhsbK5MmTdIdAwDcGkUVyIDRo0eb8km/w4cPlxo1alBSAVhCwYIFjc8//1x3jAyZNGmS3L17l21tAPAPKKqAg06cOKEWL16sO4bDypYtK6NGjdIdAwCcqlevXka7du10x3DYgwcPZMqUKbpjAIDb4h5VwEH9+vVTM2fO1B3DIV5eXrJlyxapW7cuq6kALOfixYuqXLlyEhcXpzuKQ/LmzSsXLlyQwMBAxmYA+C+sqAIOuHnzppo/f77uGA7r378/JRWAZRUtWtR49913dcdw2K1bt2TevHm6YwCAW2JFFXDAO++8oz744APdMRySK1cuOXHiBO/sA2Bpqampqnr16nLo0CHdURxSvnx5OXLkiBiGwRgNAH/Ciipgp4SEBPXVV1/pjuGwsWPHUlIBWJ6Pj48xdepUMVvfO3r0qKxbt053DABwOxRVwE5z586VmJgY3TEcUqNGDRk4cKDuGACQJerVq2f06dNHdwyHffbZZ7ojAIDbYesvYAellCpfvrwcP35cdxS7GYYhu3btkpo1a5preQEAMuHGjRvqsccek9jYWN1R7GYYhkRFRUm5cuUYrwHgd6yoAnZYtWqVqUqqiMgzzzxDSQXgcfLly2e88cYbumM4RCklkyZN0h0DANwKK6qAHZo3b67MdA9RQECAHD9+XIoXL05RBeBxEhISVNmyZeXSpUu6o9gtMDBQLl68KHny5GHcBgBhRRVI14kTJ9T69et1x3DIkCFDKKkAPFZgYKDx4Ycf6o7hkISEBJkzZ47uGADgNiiqQDq++eYbMdPOg5w5c8qIESN0xwAArXr27Ck1atTQHcMh06dPF2WmEw4AuBBFFXiEpKQkZbYr3G+//bbkypWL1VQAHs0wDGP8+PG6Yzjk5MmTsm3bNt0xAMAtUFSBR/j5559N9Uqa/Pnzy4svvqg7BgC4hcaNGxuNGjXSHcMh3377re4IAOAWKKrAI3zzzTe6IzjkzTfflKCgIFZTAeB3H3zwge4IDlm8eLHcvXuX7b8APB5FFfgH0dHRatOmTbpj2K1AgQIycOBA3TEAwK3UrVvXaNasme4YdktISJAffvhBdwwA0I6iCvyD6dOni81m0x3Dbm+//bYEBgaymgoA/2X06NG6Izhk+vTpuiMAgHa8RxX4GykpKapo0aJy/fp13VHsUrBgQYmOjhZ/f3+KKgD8jdatW6tVq1bpjmG33bt3S82aNRnTAXgsVlSBv7Fy5UrTlFQRkaFDh1JSAeAR3nrrLd0RHDJ79mzdEQBAK1ZUgb/RrVs3tXjxYt0x7BISEiIXL16UHDlyUFQB4BHq1q2rduzYoTuGXfLmzStXrlwRX19fxnYAHokVVeC/xMbGqhUrVuiOYbfBgwdTUgHADsOHD9cdwW63bt2S9evX644BANpQVIH/8tNPP0lCQoLuGHbx9/eXwYMH644BAKbQsWNHiYiI0B3DbvPnz9cdAQC0oagC/8VME4OePXtKgQIFWE0FADsYhmEMHTpUdwy7LV26VOLj47lHC4BH4h5V4E9u3LihChcuLKmpqbqj2OXAgQNSuXJliioA2CkxMVEVL15cbty4oTuKXRYsWCDdu3dnnAfgcVhRBf5k4cKFpimpDRo0oKQCgIMCAgKMAQMG6I5hNzPt8gEAZ6KoAn9ipgkB96YCQMa88MIL4u3trTuGXVatWiV37txh+xsAj0NRBX4XHR2tdu/erTuGXQoVKiQdO3bUHQMATKlIkSJGmzZtdMewS3JysixdulR3DADIchRV4Hc///yzmOWe7YEDB/JuPQDIhBdffFF3BLstW7ZMdwQAyHI8TAn4Xf369dW2bdt0x0iXl5eXnDt3TooWLUpRBYAMUkqpsmXLyunTp3VHSVdgYKDcunVLsmXLxrgPwGOwogqIyK1bt9TOnTt1x7DLk08+SUkFgEwyDMPo37+/7hh2SUhIkHXr1umOAQBZiqIKiMjy5cslLS1Ndwy7mOlplQDgzvr06SM+Pj66Y9iF7b8APA1FFRDzTABy584t7dq10x0DACwhX758RrNmzXTHsMvy5cslNTWV+7UAeAyKKjxefHy8Wr9+ve4YdunVq5f4+/uz7RcAnKR37966I9jl9u3bYpZbVADAGSiq8Hhr166V+Ph43THs0rNnT90RAMBSOnbsKDly5NAdwy5m2f0DAM5AUYXHM8uJv1SpUlKtWjVWUwHAiQIDA40uXbrojmEX3qcKwJNQVOHRbDabWrlype4Ydnn22Wd1RwAASzLL9t+zZ8/KqVOnuE8VgEegqMKjHTp0SG7evKk7hl26d++uOwIAWFL9+vWlYMGCumPYxSzPVACAzKKowqOtXbtWdwS7VKlSRcqVK8e2XwBwAS8vL6Njx466Y9iFogrAU1BU4dHM8gL1rl276o4AAJbWuXNn3RHssnHjRl5TA8AjGEox1sEzJSYmqly5cklCQoLuKOk6fvy4hIeHs6IKAC6SlpamChQoILdu3dIdJV07d+6UJ554gnMCAEtjRRUea8uWLaYoqWXKlKGkAoCLeXt7G+3atdMdwy5s/wXgCSiq8Fhm2fZrltcmAIDZmWX7r1nOXwCQGWz9hceqUqWKOnjwoO4Y6dq1a5fUqlWLFVUAcLGkpCSVO3duiYuL0x3lkfz8/OT27duSPXt2zg0ALIsVVXikGzduqEOHDumOka6CBQtKzZo1dccAAI/g7+9vNG7cWHeMdCUnJ8vmzZt1xwAAl6KowiNt2rRJzLCboGXLlmIYBlfMASCLtGrVSncEu2zatEl3BABwKYoqPNK2bdt0R7BLixYtdEcAAI9ilqK6fft23REAwKW4RxUeqWrVqurAgQO6YzySt7e33Lx5U3LlysWKKgBkobJly6pTp07pjvFI/v7+cu/ePQkICOAcAcCSWFGFx3n48KE6cuSI7hjpqlWrFiUVADRo2bKl7gjpSkpKksjISN0xAMBlKKrwOLt27ZLU1FTdMdLFtl8A0MMMRVWE7b8ArI2iCo9jlhN7s2bNdEcAAI9Ur1498fHx0R0jXWY5nwFARlBU4XHM8CCloKAgqV69uu4YAOCRgoODjcqVK+uOka4dO3aI4mEjACyKogqPkpaWpnbv3q07Rrrq168vfn5+3J8KAJo0bNhQd4R03b59W06ePKk7BgC4BEUVHuXQoUMSGxurO0a6zDBBAgAra9Cgge4IdjHDLiEAyAiKKjzKrl27dEewC0UVAPSqX7++eHm5/zTJDLuEACAj3H8EBpxo//79uiOkK1u2bFKjRg3dMQDAo+XMmdN4/PHHdcdIlxnOawCQERRVeJR9+/bpjpCuWrVqia+vL/enAoBmtWrV0h0hXVFRUZKcnMwDlQBYDkUVHiM5OVkdO3ZMd4x0PfHEE7ojAADEHEU1OTlZjh49qjsGADgdRRUe48iRI5KcnKw7RrrMMDECAE9glvGY7b8ArIiiCo9hlhN5zZo1dUcAAIhIuXLlJCQkRHeMdB04cEB3BABwOooqPIYZTuQlSpSQ/Pnzc38qALgBLy8vo1q1arpjpMsM5zcAcBRFFR7DDCdyVlMBwL2YYVw+dOiQpKWl8UAlAJZCUYVHSEtLU4cPH9YdI11muHIPAJ6kUqVKuiOkKy4uTk6dOqU7BgA4FUUVHuHEiRMSHx+vO0a6zDAhAgBPUrlyZd0R7GKGXUMA4AiKKjyCGV5LI2KeCREAeIoyZcpIUFCQ7hjpOn78uO4IAOBUFFV4BDOcwAsXLixhYWE8SAkA3Ii3t7fx+OOP646RLjOc5wDAERRVeIQTJ07ojpAuVlMBwD2Z4bYMiioAq6GowiOYoaiaYSIEAJ6oYsWKuiOk68yZM5KSksKTfwFYBkUVlmez2dTJkyd1x0hX+fLldUcAAPyNiIgI3RHSlZycLNHR0bpjAIDTUFRheRcvXjTFE3/Dw8N1RwAA/A0zFFURtv8CsBaKKizPDCduLy8vKVOmjO4YAIC/UbBgQSNHjhy6Y6TLDOc7ALAXRRWWZ4b7U4sWLSrZsmXjib8A4KbKli2rO0K6KKoArISiCsszQ1E1y7YyAPBUZhinKaoArISiCss7ffq07gjp4v5UAHBvZhinzXC+AwB7UVRheefPn9cdIV2lSpXSHQEA8AglS5bUHSFd9+/fl/v37/OKGgCWQFGFpdlsNnXlyhXdMdJlhgkQAHiyEiVK6I5glwsXLuiOAABOQVGFpV29elWSk5N1x0gXRRUA3JtZxumLFy/qjgAATkFRhaWZ4cqyl5eXFCtWTHcMAMAj5M6d2wgJCdEdI11mOO8BgD0oqrC0y5cv646QroIFC0pAQACvpgEAN2eGVVUznPcAwB4UVVjarVu3dEdIlxkmPgAAkeLFi+uOkK6bN2/qjgAATkFRhaWZ4YRdpEgR3REAAHYww3hthgu0AGAPiioszQxFtVChQrojAADsYIbxmqIKwCooqrA0M5ywzTDxAQCYY7w2wwVaALAHRRWWFhMToztCugoUKKA7AgDADmYoqma4QAsA9qCowtLu3r2rO0K6ChcurDsCAMAOZiiqDx8+lNTUVKU7BwBkFkUVlvbgwQPdEdLFiioAmIMZiqpSSmJjY3XHAIBMo6jC0sxQVPPnz687AgDADtmyZTOyZcumO0a6zHDuA4D0UFRhWUop5e5XlYODgyUgIMDQnQMAYJ+8efPqjpAudz/3AYA9KKqwrLi4OElNTdUd45HMMOEBAPx/efLk0R0hXayoArACiiosywxXlHPnzq07AgDAAWa4wEhRBWAFFFVYVlxcnO4I6TLDhAcA8P+ZYUXVDOc/AEgPRRWWlZiYqDtCuiiqAGAuZhi3zXD+A4D0UFRhWUlJSbojpCtnzpy6IwAAHGCGcZuiCsAKKKqwLDOcqHPkyKE7AgDAASEhIbojpMsM5z8ASA9FFZZlhhN1cHCw7ggAAAeYoaiaYUcRAKSHogrLMkNRNcOEBwDw/5lhJ4wZzn8AkB6KKiwrOTlZd4R0saIKAOZihguMrKgCsAKKKizLZrPpjpAuM0x4AAD/nxnGbaWU7ggAkGkUVUAjVlQBwFwoqgCQNSiqsCwznKiDgoJ0RwAAOCAgIEB3BADwCBRVQCN/f3/dEQAADqCoAkDWoKjCssywokpRBQBzoagCQNagqAIaMeEBAHMxwwVGM1yoBYD0UFRhWWY4UZthwgMA+P/8/f3FMAzdMQDA8iiqgEYUVQAwF8MwDHcfu81woRYA0kNRBTTy9fXVHQEA4CAfHx/dEQDA8iiqsCwzXFH28uInCABmw9gNAK7HSAvLMkNR5T4nADAfdy+qZjj/AUB63HukBSyOogoA5uPuRRUArICRFpZlhivKFFUAMB+KKgC4HiMtLIsSCABwBXcvqma4UAsA6XHvkRbIBHd/fYAIZRoA4HxmOP8BQHooqrCsgIAA3RHSlZaWpjsCAMBBiYmJuiM8khnOfwCQHooqLMsMJ+qUlBTdEQAADkpKStId4ZHMcP4DgPRQVGFZZjhRU1QBwHySk5N1R3gkM5z/ACA9FFVYlhlO1KmpqbojAAAckJycrNz9YUVmOP8BQHooqrAsM5yoWVEFAHNx922/IuY4/wFAeiiqsKzAwEDdEdJFUQUAc6GoAkDWoKjCssxwojbDhAcA8P+5+/2pIuY4/wFAeiiqsCwznKjj4+N1RwAAOMAMFxjNcP4DgPRQVGFZZjhRx8XF6Y4AAHAARRUAsgZFFZbl7+8vhmHojvFIFFUAMBeKKgBkDYoqLMswDMPf3193jEeiqAKAuVBUASBrUFRhae5+sn748KHuCAAAB1BUASBrUFRhae7+ihpWVAHAXMzwEDx3300EAPagqMLSgoKCdEd4pAcPHuiOAABwwJ07d3RHSJe7n/sAwB4UVVhajhw5dEd4pLt37+qOAABwQExMjO4Ij+Tl5SUhISG6YwBAplFUYWmhoaG6IzwSRRUAzMXdV1Rz5Mghhrs/8h4A7EBRhaVRVAEAzuTuRdXdz3sAYC+KKizN3U/YFFUAMJfbt2/rjvBI7n7eAwB7UVRhadyjCgBwJooqAGQNiioszd1P2BRVADAXdx+33f0CLQDYi6IKS3P3E/atW7d0RwAAOMDdn/qbM2dO3REAwCkoqrA0d19RffDggSQkJCjdOQAA9uFhSgCQNSiqsDQznLBv3rypOwIAwA5paWnq/v37umM8krvvJAIAe1FUYWlmOGHfuHFDdwQAgB3u3r0rNptNd4xHMsMFWgCwB0UVlmaGEzZFFQDMwd2f+Ctijgu0AGAPiiosjaIKAHAWMxRVM5z3AMAeFFVYmhlO2BRVADCHS5cu6Y6QLlZUAVgFRRWWFhISIl5e7v01v3Lliu4IAAA7XLx4UXeEdPF6GgBW4d4zeCCTvLy8DHe/umyGK/QAAJHLly/rjpAuiioAq6CowvLy5cunO8IjmWHiAwAQuXDhgu4I6XL3cx4A2IuiCsvLnz+/7giPRFEFAHNw962/OXPmlICAAEN3DgBwBooqLM/di2pMTIwkJCQo3TkAAI/m7kWV1VQAVkJRheW5e1EV4YFKAODu4uPjlbu/nsYM5zsAsBdFFZZnhivMPFAJANybGcZpM5zvAMBeFFVYnhlO3NHR0bojAAAewQwPUipQoIDuCADgNBRVWJ4ZtkKdO3dOdwQAwCO4+/2pIua4MAsA9qKowvLMUFRZUQUA98bWXwDIWhRVWB5FFQCQWWYoqmY43wGAvSiqsLy8efOKl5d7f9XPnj2rOwIA4BHY+gsAWcu9Z++AE/j4+Bh58uTRHeORYmJi5MGDB7xLFQDc1KlTp3RHSBcrqgCshKIKj2CGk/eZM2d0RwAA/I2HDx+qy5cv647xSF5eXpI3b17dMQDAaSiq8AhmKKrHjh3THQEA8DeOHz8uSrn3ppc8efKIr6+voTsHADgLRRUewQz37VBUAcA9HT9+XHeEdIWFhemOAABORVGFRyhSpIjuCOmiqAKAezJDUS1atKjuCADgVBRVeIQSJUrojpCuo0eP6o4AAPgbZiiqZjjPAYAjKKrwCGY4gUdHR0tCQoJ73wQFAB7IDEW1ePHiuiMAgFNRVOERzFBUbTabnDx5UncMAMCfJCcnq+joaN0x0mWG8xwAOIKiCo9QpEgR8fb21h0jXWz/BQD3curUKUlNTdUdI10UVQBWQ1GFR/D19TUKFy6sO0a6eKASALgXM2z7FaGoArAeiio8hhnu36GoAoB7McO4nCNHDsmZMyfvUAVgKRRVeAwzXG1m6y8AuBczrKia4fwGAI6iqMJjmOFEzpN/AcC9UFQBQA+KKjxGyZIldUdIV1paGk/+BQA3kZycrMwwJlNUAVgRRRUewwz3qIqY434oAPAER44ckaSkJN0x0kVRBWBFFFV4DLOcyI8cOaI7AgBARPbt26c7gl3MciEWABxBUYXHKFiwoAQEBOiOka69e/fqjgAAEJHIyEjdEexihltbAMBRFFV4DMMwDDNcdY6MjBSbzcYDlQBAMzMUVcMwWFEFYEkUVXiU8PBw3RHSdf/+fTl16pTuGADg0RITE1VUVJTuGOkqVqyYBAUF8Q5VAJZDUYVHKVeunO4IdmH7LwDodfDgQUlJSdEdI10RERG6IwCAS1BU4VHMckKnqAKAXmbY9itinguwAOAoiio8CkUVAGAPszzx1yznNQBwFEUVHiUiIkK8vNz/a3/w4EFJTk7mgUoAoIlZVlQpqgCsyv1n7IATBQUFGcWKFdMdI12JiYm8TxUANImPj1fHjx/XHcMuFFUAVkVRhcepVKmS7gh2YfsvAOixf/9+SUtL0x0jXcWKFZOcOXPyxF8AlkRRhcepUqWK7gh2oagCgB5m2fZbuXJl3REAwGUoqvA4Zimqe/bs0R0BADwSRRUA9KOowuOYpageO3ZMYmNjeaASAGSxrVu36o5gF7OczwAgIyiq8DiFCxc2wsLCdMdIl81mkwMHDuiOAQAe5dy5c+rixYu6Y9iFogrAyiiq8EhmObnv3r1bdwQA8CibN2/WHcEuuXPnlqJFi/IgJQCWRVGFR3riiSd0R7CLWSZMAGAVmzZt0h3BLmY5jwFARlFU4ZFq166tO4JdtmzZIqmpqdynCgBZxCwXCM1yHgOAjKKowiPVqlVLvLzc/+sfGxvLfaoAkEUuXbqkzp8/rzuGXerUqaM7AgC4lPvP1AEXCA0NNcLDw3XHsMvGjRt1RwAAj2CW8dbb21tq1KihOwYAuBRFFR7LLFejzbINDQDMzizjbcWKFSV79uw8SAmApVFU4bHMcn/P1q1bJSUlhftUAcDFzFJUzXL+AoDMoKjCY5nlRB8bGyv79+/XHQMALO3atWvq7NmzumPYxSznLwDIDIoqPFZ4eLjkypVLdwy7mOV1CQBgVhs2bNAdwW5muXUFADKDogqPZRiGUatWLd0x7EJRBQDXMsu237CwMClZsiT3pwKwPIoqPJpZtk9t27aN+1QBwIXMUlRZTQXgKSiq8GhmKaoPHz6UyMhI3TEAwJIuXbqkTp06pTuGXcxy3gKAzKKowqPVqlVLfHx8dMewC9t/AcA1fv31V90R7MaKKgBPQVGFRwsODjaqV6+uO4ZdKKoA4BorV67UHcEuQUFBUrNmTd0xACBLUFTh8Ro3bqw7gl22b98uycnJ3KcKAE6UmJiozPLE33r16omfnx8PUgLgESiq8HhmKapxcXGyfft23TEAwFI2bdokcXFxumPYpUmTJrojAECWoajC49WtW1f8/f11x7DLqlWrdEcAAEsx07hqlgurAOAMFFV4vKCgIMMs9/yY5T4qADALs4yrwcHBUrVqVd0xACDLUFQBMc9V6qNHj8qFCxe4TxUAnODkyZPqzJkzumPYpWHDhuLj48P9qQA8BkUVEPMUVRGR1atX644AAJZgltVUEXOdpwDAGSiqgPzfC9QDAwN1x7CLme6nAgB3ZqbxlKIKwNMYSrGLEBARadq0qSleUZAtWza5ffu2+Pv7swUMADIoLi5O5c6dW5KSknRHSVeuXLnk1q1b4uXlxbgPwGOwogr8zixXq+Pi4mTLli26YwCAqa1fv94UJVVEpEGDBpRUAB6Hogr8zkzvp1u2bJnuCABgama6P9VM5ycAcBa2/gK/S01NVXnz5pV79+7pjpKuwoULy8WLF8UwDK6wA4CDbDabKlq0qFy5ckV3FLucOHFCypYty3gPwKOwogr8zsfHx3jyySd1x7DL5cuXJTIyUncMADClHTt2mKaklihRgpIKwCNRVIE/adWqle4Idlu6dKnuCABgSosXL9YdwW5t2rTRHQEAtKCoAn/SqlUrMctu2p9//ll3BAAwHZvNpn788UfdMexmpguoAOBMFFXgT/Lnz29UrlxZdwy7HD9+XE6ePMlN5gDggG3btplm229AQIA0atRIdwwA0IKiCvwXM129ZvsvADjGTNt+GzVqJEFBQebY5gMATkZRBf6LmYrqTz/9pDsCAJgG234BwDx4PQ3wX9LS0lRYWJjcuXNHdxS7nDlzRkqVKsUVdwBIx6ZNm1Tjxo11x7Db6dOnpXTp0ozvADwSK6rAf/H29jaaNWumO4bdlixZojsCAJiCmbb9lixZkpIKwKNRVIG/YabtVgsXLtQdAQDcns1mU2Z6Wnrbtm11RwAArSiqwN9o2bKlaV5Tc+DAATlx4gR7+AHgETZv3izXrl3THcNuZrpgCgCuQFEF/kb+/PmN6tWr645hN7b/AsCjmWnbb7Zs2aRhw4a6YwCAVhRV4B906tRJdwS7sf0XAP5ZWlqaMtNT0lu3bi2BgYHm2NYDAC5CUQX+QefOnXVHsFtUVJQcPXqU7b8A8Dc2b94sN27c0B3Dbh07dtQdAQC0o6gC/6Bs2bJGuXLldMew2/z583VHAAC3NHv2bN0R7Obr6yutW7fWHQMAtKOoAo9gpu2/c+fOFZvNxqoqAPzJw4cPTbXtt1mzZhIaGsq2XwAej6IKPIKZiurFixdl8+bNumMAgFtZsGCBPHz4UHcMu5npvAMArkRRBR6hWrVqRokSJXTHsNvcuXN1RwAAtzJz5kzdEezm5eUl7dq10x0DANwCRRVIR4cOHXRHsNvixYslLi6O7b8AICKnTp1SO3fu1B3DbvXq1ZP8+fOz7RcAhKIKpMtM27AePnwoy5Yt0x0DANzCzJkzRSnzXLsz0/kGAFzNMNMADuhgs9lUoUKF5Pr167qj2KVly5ayatUqrsgD8GhpaWmqePHicvnyZd1R7BYdHS0lSpRg/AYAYUUVSJeXl5fRtm1b3THstm7dOrl69SpXoAB4tDVr1piqpFatWpWSCgB/QlEF7NC5c2fdEeyWlpZmqoeHAIArmG0cZNsvAPwVW38BO6SmpqpChQrJzZs3dUexS4kSJeTMmTPi5eXF1XkAHuf27duqUKFCkpSUpDuK3U6ePCllypRhzAaA37GiCtjBx8fH6NKli+4Ydjt37pxs2LBBdwwA0GLevHmmKqk1a9akpALAf6GoAnbq0aOH7ggO+fbbb3VHAAAtzLbt95lnntEdAQDcDlt/ATsppVTJkiXl/PnzuqPYxc/PTy5fvix58+blKj0Aj3H48GFVqVIl3THs5uXlJZcuXZKCBQsyVgPAn7CiCtjJMAyje/fuumPYLTk5WebOnas7BgBkqWnTpumO4JCmTZtSUgHgb1BUAQeYbfvv9OnTRbFtAoCHuHfvnvr+++91x3CI2c4rAJBVKKqAAypVqmSUL19edwy7nTx5UjZv3qw7BgBkie+++07i4uJ0x7BbQEAAr6UBgH9AUQUc9PTTT+uO4JAvvvhCdwQAcDmbzabMtu23TZs2EhoayrZfAPgbFFXAQc8884wYhnnmFUuXLpXLly+z/ReApa1YsUKio6N1x3AI234B4J9RVAEHlSxZ0qhZs6buGHZLTU2Vr7/+WncMAHCpKVOm6I7gkJCQEGndurXuGADgtiiqQAaY7Z1306dPl6SkJFZVAVjS8ePH1W+//aY7hkM6d+4sgYGB5tmeAwBZjKIKZMCzzz4r/v7+umPY7ebNm7J48WLdMQDAJaZMmSJme8B5nz59dEcAALdGUQUyIHfu3Ea7du10x3AID1UCYEUPHjxQ8+bN0x3DISVKlJAGDRrojgEAbo2iCmRQv379dEdwyK5du2TPnj3mWnIAgHTMmDFDHjx4oDuGQwYMGCCGmZ7KBwAaGGbbKgO4C5vNpooXLy6XLl3SHcVu3bt3lwULFjA5AmAJSikVHh4up06d0h3Fbl5eXnL+/HkpUqQIYzEAPAIrqkAGeXl5Gb1799YdwyFLliyR6Ohork4BsIRff/3VVCVVRKRly5aUVACwA0UVyIT+/fub6p2qaWlpMnXqVN0xAMApzPZKGhHz3TYCALqw9RfIpMaNG6tNmzbpjmG34OBguXTpkuTIkcM8DRsA/ktUVJSqWLGiqZ72mzdvXrl8+bL4+fkx/gJAOlhRBTKpb9++uiM4JDY2VqZPn647BgBkyrhx40xVUkVEevXqRUkFADuxogpkUkJCgipYsKDcu3dPdxS7FSpUSKKjo5kwATClc+fOqTJlykhqaqruKA45dOiQVKxYkXEXAOzAiiqQSYGBgUb37t11x3DIlStXZNGiRbpjAECGfPzxx6YrqbVq1aKkAoADKKqAE/Tv3193BIf9vm2OLRUATOXatWtq1qxZumM4jIcoAYBjKKqAE9SoUcOoUaOG7hgOOXr0qCxbtkx3DABwyMSJEyUxMVF3DIcEBwfL008/rTsGAJgKRRVwkn//+9+6IzhszJgxrKoCMI07d+6or7/+WncMh/Xt21dCQkLY9gsADqCoAk7So0cPyZs3r+4YDtm/f7+sX79edwwAsMuUKVMkNjZWdwyHGIYh//rXv3THAADToagCTuLv72/06dNHdwyHjR07VncEAEhXXFycmjp1qu4YDmvWrJmEh4ezmgoADqKoAk40aNAg8fb21h3DIZs2bZLt27ez/ReAW/vqq68kJiZGdwyHDRo0SHcEADAl3qMKOFm7du3UihUrdMdwSOvWreXXX3/lij8At5SUlKRKlSolV65c0R3FIUWLFpXo6Gjx9vZmfAUAB7GiCjiZGR+qtHLlStm9ezdXrQC4pdmzZ5uupIqI/Otf/6KkAkAGsaIKOJlSSoWHh8upU6d0R3FIq1atZOXKlUyoALiVtLQ0FRERIadPn9YdxSH+/v5y8eJFCQsLY1wFgAxgRRVwMsMwjBdeeEF3DIetWrVKduzYwZUrAG7lhx9+MF1JFRHp1q0bJRUAMoEVVcAF7t27pwoXLixxcXG6ozjkySeflLVr1zKxAuAWUlJSVEREhJw9e1Z3FIft3r1batasyXgKABnEiirgAqGhocYzzzyjO4bD1q1bJ1u3buXqFQC3MGPGDFOW1Bo1alBSASCTWFEFXOTkyZOqXLlyYrPZdEdxSL169WTr1q1MsABolZiYqMqUKSOXLl3SHcVhCxYskO7duzOOAkAmsKIKuEjZsmWNtm3b6o7hsG3btsmGDRu4ggVAqy+//NKUJbV48eLSpUsX3TEAwPQoqoALvfrqq7ojZMiIESNEsd0CgCZxcXFq/PjxumNkyNChQ8XHx4fVVADIJIoq4EINGjQwnnjiCd0xHLZ3715ZsmSJ7hgAPNTnn38uN27c0B3DYTlz5pT+/fvrjgEAlkBRBVzslVde0R0hQ9566y1JSUlhVRVAlrp3756aOHGi7hgZ8q9//UuyZ8/OaioAOAFFFXCxzp07S6lSpXTHcNjp06flu+++0x0DgIeZMGGC3LlzR3cMh/n7+8vgwYN1xwAAy6CoAi7m7e1tvPzyy7pjZMioUaMkNjaWVVUAWSImJkZNmTJFd4wM6dmzpxQoUIDVVABwEooqkAX69esnuXLl0h3DYTdv3pRJkybpjgHAQ3zwwQcSGxurO4bDDMOQYcOG6Y4BAJZCUQWyQLZs2Yx//etfumNkyIQJE+TmzZusqgJwqVOnTqlp06bpjpEhrVq1kvLly7OaCgBORFEFssiQIUMkICBAdwyHPXjwQN59913dMQBY3GuvvSYpKSm6Y2TI8OHDdUcAAMuhqAJZJF++fEa/fv10x8iQb7/9Vg4fPsyqKgCX+O2339Qvv/yiO0aG1KxZUxo3bsxqKgA4maEUc08gq1y6dEmVLl1akpOTdUdxWOPGjWXDhg1MxgA4VVpamqpataocPnxYd5QMWbFihbRp04axEQCcjBVVIAsVKVLE6NOnj+4YGbJx40ZZtmwZV7YAONXvOzZ0x8iQKlWqSOvWrXXHAABLYkUVyGIXL15Ujz32mClXVUuWLCnHjh0Tf39/Vg8AZFpsbKwqU6aMXL9+XXeUDFm6dKl06NCB8RAAXIAVVSCLFS1a1Hj22Wd1x8iQ6OhoMes7DgG4nw8++MC0JbVy5crSvn173TEAwLJYUQU0OHPmjIqIiJDU1FTdURyWI0cOOXHihOTPn59VBAAZdu7cOVWuXDlJTEzUHSVDfvzxR+ncuTPjIAC4CCuqgAalS5c2evTooTtGhty/f19ee+013TEAmNzrr79u2pJavnx56dixo+4YAGBprKgCmpw4cUI9/vjjkpaWpjuKwwzDkI0bN0rDhg1ZTQDgsM2bN6vGjRuLWecgCxculG7dujH+AYALUVQBjXr06KEWLFigO0aGlC9fXg4cOCC+vr5M1gDYLTk5WVWpUkWOHTumO0qGRERESFRUlHh5eTH2AYALsfUX0Oidd94RLy9z/gyPHj0qkydP1h0DgMl8/PHHpi2pIiLvvvsuJRUAsgArqoBmTz/9tFq4cKHuGBkSHBwsx48fl0KFCjFpA5Cus2fPqgoVKkhCQoLuKBkSHh4uUVFR4u3tzZgHAC5mzqUcwELGjBkjvr6+umNkSGxsrLzyyiu6YwAwiUGDBpm2pIr833hNSQWArEFRBTR77LHHjH79+umOkWGLFi2SX375ha0ZAB5pwYIFas2aNbpjZFj16tWlS5cuumMAgMdg6y/gBq5du6ZKly4t8fHxuqNkSNGiRSUqKkqCg4NZaQDwPx48eKAiIiLk6tWruqNk2Pr166Vp06aMcQCQRVhRBdxAgQIFjMGDB+uOkWEXL16Ut99+W3cMAG7qzTffNHVJffLJJympAJDFWFEF3MS9e/dUqVKl5M6dO7qjZIiXl5ds3bpV6tSpw2QOwB/27t2rateubcp3Rov833ujd+7cKbVq1WJsA4AsxIoq4CZCQ0ONV199VXeMDLPZbPLCCy9ISkoKV78AiIhIamqqeuGFF0xbUkVEunTpQkkFAA0oqoAbGTZsmBQqVEh3jAyLioqS8ePH644BwE18/PHHcuDAAd0xMszb21tGjx6tOwYAeCSKKuBGAgMDjZEjR+qOkSkffPCBHDlyhFVVwMMdO3ZMjRkzRneMTOnfv79ERESwmgoAGnCPKuBmUlJSVEREhJw9e1Z3lAyrUqWK7N69W3x9fZngAR4oNTVV1a5dWyIjI3VHybCAgAA5deqUFClShHEMADRgRRVwM76+vsYHH3ygO0amHDhwQMaNG6c7BgBNxo4da+qSKiIyZMgQSioAaMSKKuCmGjRooLZu3ao7Rob5+PjIrl27pFq1akz0AA9y6NAhVbNmTUlOTtYdJcPy5s0rp06dktDQUMYvANCEFVXATX3++efi5WXen2hqaqr069dPkpOTuRoGeIjk5GTVu3dvU5dUEZExY8ZQUgFAM/POggGLq1q1qtGrVy/dMTLl8OHDYvaHqQCw3+jRo+Xw4cO6Y2RK+fLlpX///rpjAIDHY+sv4MauXr2qypYtKw8fPtQdJcN8fHxk27ZtvIcQsLjIyEhVu3ZtSU1N1R0lU3777Tdp0qQJ4xUAaMaKKuDGChYsaLzxxhu6Y2RKamqqPPPMM/LgwQOuigEWlZSUpPr27Wv6ktqpUydKKgC4CYoq4OZeffVVKVasmO4YmRIdHS0vvfSS7hgAXGTEiBESFRWlO0am+Pv7y4QJE3THAAD8jqIKuLnAwEBj/PjxumNk2uzZs2X+/PmsqgIWs2rVKjVp0iTdMTJt6NChUqpUKVZTAcBNcI8qYBJmf12NiEhoaKgcPHhQihUrxmQQsIArV66oypUrS0xMjO4omRIWFianTp2SHDlyMDYBgJtgRRUwiUmTJpn6dTUiIvfu3ZNevXpJWloaV8gAk7PZbKp3796mL6kiImPHjqWkAoCbMfesF/AgVapUMfr166c7RqZt3bpVxo4dqzsGgEwaM2aMbNiwQXeMTKtatar07dtXdwwAwH9h6y9gInfu3FHh4eFy69Yt3VEyxcvLS9asWSPNmjVjBQMwoa1bt6rGjRtLWlqa7iiZ4uXlJdu2bZPatWszFgGAm2FFFTCRXLlyWeLBSjabTXr27CnXrl3jShlgMnfv3lU9e/Y0fUkVEXnxxRcpqQDgplhRBUxGKaWaNm0qGzdu1B0l0xo1aiTr168Xb29vJoqACSilVKdOnWTZsmW6o2Ravnz55Pjx45IzZ07GHwBwQ6yoAiZjGIYxZcoU8fX11R0l0zZt2iRjxozRHQOAnaZMmWKJkioiMnHiREoqALgxVlQBkxoxYoSywjZgLy8vWb16tTz55JNMGAE3tnPnTtWoUSNJTk7WHSXTGjZsKBs3bhTDMBh3AMBNUVQBk4qPj1fly5eX8+fP646SaWFhYRIZGSlFihRh0gi4oatXr6rq1avLtWvXdEfJNH9/fzl8+LCUKVOG8QYA3BhbfwGTCgoKMqZNm6Y7hlPcvHlTOnToIAkJCVw5A9xMSkqKevrppy1RUkVERowYQUkFABOgqAIm1qpVK6NDhw66YzjFgQMH5IUXXtAdA8B/GTx4sGzdulV3DKcoXbq0jBgxQncMAIAdKKqAyU2ePFmyZ8+uO4ZTzJ07V7744gtWVQE38c0336jp06frjuE006ZNk4CAAFZTAcAEKKqAyRUtWtQYN26c7hhOM2zYMNm2bRtlFdBs165dasiQIbpjOE2vXr14aBsAmAgPUwIsQCmlmjRpIps2bdIdxSny588vkZGRUqhQISaVgAbXrl1T1atXl6tXr+qO4hQFChSQqKgoyZUrF2MKAJgEK6qABRiGYcyYMcMyW4CvX78u7dq1k7i4OK6kAVnsPw9PskpJFRH54osvKKkAYDIUVcAiSpQoYXz44Ye6YzjNgQMHpHfv3mKz2SirQBb697//LVu2bNEdw2l69uwpnTp1oqQCgMmw9RewEJvNpho3bmypSeabb74pY8eOZZIJZIGxY8eqt956S3cMp2HLLwCYF0UVsJjo6GhVsWJFiYuL0x3FaaZPny4DBw5kogm40KJFi9TTTz8tVpoX/PTTT6ymAoBJsfUXsJiSJUsao0eP1h3DqQYNGiQbN260zuwZcDNbt25VvXv3tlRJZcsvAJgbK6qABaWlpan69evLzp07dUdxmjx58sj27dulTJkyTDwBJzp58qSqU6eO3LlzR3cUp8mfP79ERUVJ7ty5GS8AwKRYUQUsyNvb25gxY4YEBATojuI0MTEx0rJlS7l+/TpX1wAnuXnzpmrdurWlSqqIyJdffklJBQCTo6gCFhUeHm6MGzdOdwynOnfunLRp00ZiY2Mpq0AmJSQkqPbt20t0dLTuKE7Vs2dP6dixIyUVAEyOrb+AhSmlVLt27eTXX3/VHcWpGjduLKtWrRJ/f38mo0AG2Gw21bVrV/npp590R3GqIkWKyKFDhyRnzpyMDQBgcqyoAhZmGIbx7bffSlhYmO4oTrVx40YZOHCgKK60ARkyZMgQy5VUHx8fWbBgASUVACyCogpYXP78+Y3vvvtODMNac7e5c+fKG2+8oTsGYDpvvvmmmjZtmu4YTvf2229LnTp1rDXQAYAHY+sv4CEGDRpkycnpBx98IG+99RaTU8AOY8eOVW+99ZbuGE5Xt25d2bx5s3h7ezMWAIBFUFQBD5GYmKhq1qwpR44c0R3F6T755BN59dVXmaACjzBt2jQ1aNAg3TGcLkeOHHLw4EEpXrw4YwAAWAhbfwEPERAQYPzwww+WemXNf7z22mvy7bffctUN+Adz585VQ4YM0R3DJaZNm0ZJBQALoqgCHuTxxx83PvjgA90xnE4pJS+++KIsXLiQsgr8l6VLl6p+/fqJzWbTHcXpevfuLc888wwlFQAsiK2/gIdRSqkWLVrIunXrdEdxOj8/P/n555+ldevWTFwBEVm9erXq0KGDJCcn647idKVKlZIDBw5IcHAwv3cAsCCKKuCBbty4oapWrSpXr17VHcXp/P395ccff5Q2bdoweYVH27x5s2rdurXEx8frjuJ0fn5+smXLFqlVqxa/cwCwKLb+Ah4oX758xpIlS8TX11d3FKdLSkqSzp07y7Jly7gKB4+1adMm1bZtW0uWVBGRiRMnUlIBwOIoqoCHql27tjF27FjdMVwiOTlZunXrRlmFR1q5cqVq1aqVPHz4UHcUl3j66adl0KBBlFQAsDi2/gIeTCmlunbtKj/++KPuKC7h5+cnCxculI4dOzKphUdYvny56tq1qyQlJemO4hJly5aVvXv3cl8qAHgAiirg4e7fv6+qVasmZ8+e1R3FJfz8/GT+/PnSuXNnJrawtHnz5qk+ffpIamqq7iguERwcLHv27JHw8HB+ywDgAdj6C3i4HDlyGD/99JMEBQXpjuIS/9kG/N1333FVDpb1/fffq+eee86yJVVE5Ntvv6WkAoAHoagCkIoVKxqTJ0/WHcNl0tLSZODAgTJx4kTKKiznq6++Us8995ykpaXpjuIyQ4cOlW7dulFSAcCDsPUXwB/69eunZs6cqTuGS7333nsyatQoJrywhI8//liNGDFCrHwur1OnjmzatEl8fX353QKAB6GoAvhDQkKCqlOnjhw8eFB3FJcaOnSoTJw4UQzDYOILU7LZbGrYsGFi5Z0QIiJhYWGyf/9+KVSoEL9VAPAwFFUAf3Hx4kVVs2ZNuXHjhu4oLvXUU0/J3LlzJSAggAkwTCUpKUk999xzsnDhQt1RXMrX11fWrFkjjRs35jcKAB6Ie1QB/EXRokWNn376Sfz9/XVHcaklS5ZI06ZNJSYmhqt1MI07d+6oZs2aWb6kiohMnTqVkgoAHoyiCuB/1KlTx5g+fbruGC63Y8cOadiwoVy4cIGyCrd37tw5VadOHdm2bZvuKC736quvyvPPP09JBQAPxtZfAP/o1VdfVRMnTtQdw+Xy588vK1askGrVqjExhlvau3evatu2rdy8eVN3FJdr0aKF/Prrr+Lt7c3vEQA8GEUVwD9KS0tT7dq1k1WrVumO4nLBwcEyb948adeuHZNjuJVffvlF9ejRQ+Lj43VHcbny5cvLjh07JCQkhN8hAHg4tv4C+Efe3t7G/PnzJSIiQncUl4uNjZWOHTvKuHHjlOIKHtyAUkpNmDBBde7c2SNKap48eeSXX36hpAIARIQVVQB2OHfunKpZs6bExMTojpIlunfvLjNmzJCgoCAmzNAiISFBvfjiizJnzhzdUbIET/gFAPw3VlQBpKtEiRLGggULxMfHR3eULLFw4UJp2LChXLlyhSt5yHJnz55VtWrV8piSKiIybdo0SioA4C8oqgDs0rRpU2Py5Mm6Y2SZyMhIqVGjhmzfvp2yiiyzatUqVaNGDTly5IjuKFnm1VdflQEDBlBSAQB/QVEFYLd//etfxuDBg3XHyDLXrl2TRo0ayfjx47lvFS6llFLjx49X7dq1k7t37+qOk2XatWsn48eP1x0DAOCGuEcVgEPS0tJUhw4d5Ndff9UdJUu1b99eZs2aJTlz5mTlB0718OFD1adPH/nxxx91R8lSNWrUkE2bNnEvOADgb1FUATjs/v37qnbt2nL8+HHdUbJU6dKlZfHixVK5cmUm1nCKffv2qWeffVZOnjypO0qWKlmypOzcuVPCwsL4LQEA/hZbfwE4LEeOHMby5csld+7cuqNkqTNnzkjt2rXlq6++4gofMsVms6kJEyaoOnXqeFxJzZUrl6xcuZKSCgB4JFZUAWTYtm3bVLNmzSQpKUl3lCzXokULmTlzphQoUIDJNhxy48YN1adPH1m9erXuKFnOz89PVq1aJU2aNOF3AwB4JFZUAWRYvXr1jK+++kp3DC3WrFkjlStXlhUrVnC1D3ZbunSpKl++vEeWVMMw5Ntvv6WkAgDsQlEFkCl9+vQxXnnlFd0xtLh586a0b99eXnjhBRUfH09hxT9KSEhQL7/8surUqZPcvn1bdxwtxowZI7169aKkAgDswtZfAJmWlpamOnbsKCtWrNAdRZuIiAj57rvvpHbt2kzE8Rd79uxRvXv39rh7Uf+sf//+8u233/LbAADYjaIKwCliY2NVvXr15PDhw7qjaGMYhgwcOFA+/fRTyZ49O5NyDxcfH69Gjx4tn3zyiaSlpemOo02jRo1kzZo14ufnx28CAGA3iioAp7lw4YKqVauW3LhxQ3cUrUqUKCHTp0+XZs2aMTH3UL/++qsaNGiQXLhwQXcUrcqVKyfbt2+X0NBQfgsAAIdwjyoApylWrJjx448/ir+/v+4oWp07d06aN28uzz//vLpz5w5XAz3ItWvXVLdu3VTbtm09vqQWLFhQVq9eTUkFAGQIRRWAU9WtW9f45ptvdMfQTikl33zzjTz22GMyadIklZaWRmG1MKWUmjNnjqpQoYIsXrxYdxztgoKC5Oeff5YiRYpQUgEAGUJRBeB0vXr1MkaMGKE7hlu4c+eODB06VOrUqSORkZGUVQs6ePCgatiwoTz33HMe+0TfP/P29pZFixZJzZo1KakAgAyjqAJwiYoVK+qO4Fb27NkjtWrVkhdffFHFxMRQWC3gypUrqm/fvqpatWqydetW3XHcxvDhw6VNmzaUVABApvAwJQBOp5RSlSpVkiNHjuiO4payZ88ugwYNkrfeekuCg4OZ0JtMXFycmjp1qnz44YcSGxurO47bqVGjhuzZs4fvNQAgU1hRBeB0S5cupaQ+wsOHD2X8+PESHh4u06dPV6mpqVwxNAGbzabmzJmjHnvsMRkxYgQl9R/s3btXNm3axHcaAJAprKgCcLoaNWqoyMhI3TFMo3z58vLhhx9K+/btxTAMVqLc0MqVK9Xrr78uR48e1R3FFFq2bCmrVq3iuwwAyDCKKgCnWr16tWrVqpXuGKZUoUIFGT58uDz77LPi7e3NJF8zpZRasWKFfPjhh7J7927dcUxn//79UqVKFb7HAIAMYesvAKcaO3as7gimdeTIEXnuueekUqVKMmfOHF5po4nNZlOLFy9Wjz/+uLRv356SmkGffPKJ7ggAABNjRRWA02zevFk1atRIdwzLCA8Pl6FDh0qvXr0kKCiIlSkXS0pKUjNnzpSPP/5Yzp07pzuO6fn4+MipU6ekRIkSfHcBAA6jqAJwmubNm6t169bpjmE5uXPnloEDB8qgQYOkcOHCTPqdLCYmRs2cOVM+++wzuXbtmu44ljJo0CCZOnUq31kAgMMoqgCcYs+ePapWrVq6Y1iar6+vdOnSRf79739LvXr1ePBSJiil1ObNm2X69Ony008/SVJSku5IlhQUFCTnz5+XvHnz8l0FADiEogrAKTp06KB++eUX3TE8RpkyZaRHjx7St29fKVasGCXATvfu3VOLFi2SKVOmSFRUlO44HuGdd96R0aNH8x0FADiEogog0w4fPqwqV64sjCdZz9vbW1q2bCl9+/aVNm3aSEBAAIXgv6SlpalNmzbJd999x+qpBrly5ZILFy5I9uzZ+W4CAOxGUQWQaZ06dVJLly7VHcPjBQYGStOmTaVr167y1FNPefQDmGw2m9qxY4csXrxYFi9ezL2nmk2cOFGGDRvmsd9HAIDjKKoAMmXfvn2qRo0arKa6mRw5ckiLFi2kdevW0qpVKwkLC7N8SXjw4IFat26drFy5UlauXCnXr1/XHQm/K1KkiJw9e1Z8fX0t/z0EADgHRRVAprRp00atXLlSdww8gpeXl1SrVk3q1asndevWlTp16kiBAgVMXxju3r2rdu7cKTt27JCtW7fKzp07JSUlRXcs/IOZM2dKnz59TP+9AwBkDYoqgAzbsWOHqlu3ru4YyIAiRYpIRESElC9fXsLDw6VkyZJSoEABKViwoOTMmdNtykRcXJy6dOmS3Lx5U6Kjo+XEiRNy/PhxOXr0qERHR7OSbyLlypWTqKgonlYNALALRRVAhjVr1kz99ttvumPAyQICAiRv3rwSHBz8x5EzZ04R+b9X5GTPnv0v/3s/Pz/Jli1buv/exMRESUhI+Mt/l5CQIImJiSIi8uDBA4mNjf3juHXrlsTFxen+OOBEy5Ytk/bt21NUAQDpoqgCyJANGzaopk2b6o4BwETq1Kkj27dvp6gCANJFUQXgMJvNpmrWrCn79u3THQWAyWzZskXq169PWQUAPJKX7gAAzGfevHmUVAAZMn78eN0RAAAmwIoqAIckJiaq8PBwuXDhgu4oAEzIMAzZv3+/VK5cmVVVAMA/YkUVgEM+//xzSiqADFNKycSJE3XHAAC4OVZUAdgtJiZGlS5dWu7fv687CgAT8/X1ldOnT0uxYsVYVQUA/C1WVAHYbdSoUZRUAJmWkpLCqioA4JFYUQVglyNHjqiqVatKamqq7igALCAoKEguXLggefLkYVUVAPA/WFEFkC6llBo8eDAlFYDTxMfHyxdffKE7BgDATbGiCiBdc+bMUc8995zuGAAsJleuXHLhwgXJnj07q6oAgL9gRRXAI8XGxqo333xTdwwAFnTnzh2ZMWOG7hgAADdEUQXwSO+//75cvXpVdwwAFvXJJ59ISkoK27sAAH9BUQXwjw4fPqwmT56sO0aGFSxYUObOnSu7du2S0aNHS44cOXRHAlymePHi0qtXL2nbtq3uKA65dOmSLFiwQHcMAICb4R5VAH/LZrOpOnXqyO7du3VHyZBSpUrJli1bpGDBgn/c+3br1i315ptvysyZM8Vms+mOCGSat7e3dOrUSf79739L48aN//iuV69eXe3bt093PLs9/vjjcvjwYTEMg3tVAQAiwooqgH/w5ZdfmrakZs+eXX7++ee/lFQRkbx58xrffvutsX37dqlatarumECGeXl5ydNPPy1HjhyRxYsXG38uqSIilSpV0h3RIVFRUbJixQrdMQAAboSiCuB/XLlyRY0cOVJ3jAybMmWKVKhQ4R9XZp544gljz5498sUXX0jOnDl1xwUc0qpVKzl06JDMnz/fiIiI+Nvv+dNPP607psPGjRunOwIAwI2w9RfA/+jSpYv66aefdMfIkFatWsnKlSvt3j7IdmCYRYUKFeSTTz6R5s2bp/v9ttlsqlixYnL58mXdsR2yefNmadCgAdt/AQCsqAL4q2XLlpm2pIaEhMjXX3/t0P/Nf7YD79mzR+rVq6f7jwD8j/z588v06dPlwIEDdpVUEREvLy+jd+/euqM7jFVVAMB/sKIK4A/37t1Tjz/+uFy5ckV3lAyZOHGiDBs2LFOrMcuXL1cvvfSSnD9/XvcfBx4uMDBQXnrpJRk5cqSEhIQ4/L2+cuWKKlmypCQnJ+v+ozhk3759UrVqVVZVAcDDsaIK4A+DBw82bUktV66cDB48ONP/nnbt2hnHjh2TcePGSXBwsO4/FjyQYRjStWtX+f17aGSkpIqIFCpUyOjWrZvuP47DJkyYoDsCAMANsKIKQET+byWxffv2umNk2OrVq6VFixZOXYW5cuWKevPNN+X7778XxkpkhWbNmsn48eOdtqJ4+PBhVblyZVN9f729veX48ePy2GOPsaoKAB6MFVUAcvv2bfX888/rjpFhTz31lNNLqsj/rUjNmTPH2LZtm9StW1f3HxMW1qpVK9m7d6+sW7fOcOa214oVKxpNmjTR/cdzSFpamnz66ae6YwAANGNFFYD06NFDLViwQHeMDAkMDJRjx45J8eLFXb76sm3bNvX222/L5s2bdf+xYRF169aVDz/8UBo2bOiy7+/KlStVmzZtdP9RHeLv7y/R0dH/8y5kAIDnYEUV8HA//vijaUuqiMjIkSOzpKSKiNSrV8/YtGmTsWLFCqlWrZruPzpMyjAMadGihWzevFm2bdtmuLKkivzfam25cuV0/7EdkpSUJJMmTdIdAwCgESuqgAe7evWqqlixoty+fVt3lAwpWbKkHD16VAICArJ81UUppZYvXy6ffPKJbN26VfdHARPw9fWV7t27y/Dhw6VSpUpZ+p397rvv1IABA3R/BA4JCQmRCxcuSGhoKKuqAOCBWFEFPJRSSg0cONC0JVVE5PPPP9dSUkVEDMMw2rdvb2zZssXYv3+/9OrVS3x8fHR/JHBD2bJlk5deeklOnz4tc+fONbK6pIqI9O7dW4oWLar7o3DIgwcPWFUFAA/GiirgoT7//HM1bNgw3TEyrFWrVrJy5Uq3Wmm5cOGCmjx5snz77bfy4MED3XGgWVhYmAwZMkT+/e9/S65cubR/V834mw8NDZXz589Ljhw5tH9+AICsRVEFPFBUVJSqUaOGJCYm6o6SIf7+/nLkyBG3fX3FgwcP1DfffCNffvmlnD17VnccZLGqVavK4MGDpUePHtpW/P9OXFycKlGihNy6dUt3FIe8//778u6777rN5wgAyBps/QU8TFJSkurZs6dpS6qIyKuvvuq2JVVEJCQkxHj11VeNU6dOybp166Rr167i6+urOxZcyM/PT7p27Srr1q2Tffv2GX379jXcqaSKiGTLls146aWXdMdw2GeffSb37t3jqjoAeBhWVAEPM3ToUGXm+76KFCkix48fl2zZsrlVCUjPlStX1DfffCPffvutXLlyRXccOEmhQoXkxRdflIEDB0q+fPnc/jt57949Vbx4cbl//77uKA4ZM2aMvP32227/+QIAnIeiCniQZcuWqU6dOomZf/eLFi2Srl27mnbCmpqaqpYvXy5ff/21rFu3Tmw2m+5IcJBhGNKwYUP597//LZ06dRIfHx9TfR9HjhypPvroI90xHJIrVy45d+6chISEmOqzBgBkHEUV8BCXLl1SVapUMfVTfps2bSrr16+3zET1ypUrasmSJTJz5kw5dOiQ7jhIR+HCheXZZ5+VAQMGSOnSpU37Pbx586YqUaKExMfH647ikA8//FBGjhxp2s8dAOAYiirgAVJTU1WjRo1k+/btuqNkmI+Pj+zfv18qVKhgyYnqvn371Jw5c2T+/Pmme9iNlQUEBEi7du2kV69e0rp1a/H29rbE9++ll15SU6ZM0R3DIblz55Zz585JcHCwJf4OAACPRlEFPMDrr7+uJkyYoDtGpgwfPlwmTJhg+QlqUlKSWrFihcyZM0dWr14tycnJuiN5HMMwpG7duvLcc89Jt27dLLnd9NKlS6p06dKm+36NHTtW3nzzTcv9fQAA/hdFFbC4lStXqrZt25r6vtSiRYtKVFSUx62k3Lt3Ty1btkwWL14s69atM12pMBPDMKR27drStWtXeeqpp6Rw4cKW/671799fzZgxQ3cMh+TJk0fOnTsn2bNnt/zfDwB4OooqYGEXLlxQ1apVM/V9qSIiK1askDZt2nj0xPTu3bt/lNbffvtNkpKSdEcyPS8vL3niiSfkqaeekqeeekqKFCniUd+xU6dOqXLlyklaWpruKA4ZN26cvPHGGx71dwUAnoiiClhUYmKiql+/vkRGRuqOkindu3eXBQsWMCn9k9jYWLVmzRpZtmyZrFy5Uu7cuaM7kmkEBgZKs2bNpH379tKuXTtTvFLGlZ5++mm1cOFC3TEckjdvXjl79qzH7bAAAE9DUQUs6vnnn1fffPON7hiZkitXLjl27JjHl4lHSU1NVdu3b5eNGzfKxo0bZffu3ay2/om3t7dUqlRJGjZsKI0bN5amTZtKUFAQ36ffHTp0SFWpUsV0twa89957MmrUKP4eAcDCKKqABc2YMUP1799fd4xM++6776Rfv35MRh2QmJiodu3aJbt375YjR47I0aNH5dixYx5xf6u3t7eUKlVKKlSoII8//rhUq1ZN6tevL6GhoXyHHqFdu3ZqxYoVumM4JCQkRM6ePSt58uTh7xYALIqiCljM/v37Vd26dSUxMVF3lExp0qSJrF+/XgzDYCKaSampqerMmTNy5coVuXr1qly/fl2uXLkiN2/elPv370t8fLzExsbKgwcPJD4+/o/3a9psNrl//36W582WLZv4+fmJiIi/v78EBQVJzpw5JSgoSIKCgiRHjhwSFhYm+fLlk8KFC//xn6VLl5bAwEC+Lw7auXOnqlOnju4YDnv11Vflk08+4e8bACyKogpYyJ07d1S1atXk/PnzuqNkSmBgoBw6dEgee+wxJqFu7MGDB+qfHsSTnJz8R9n8O6GhoVyEcCNNmjRRGzdu1B3DIQEBAXL69GmPeEIzAHgiH90BADhHamqq6tatm+lLqojIu+++S0k1ASu+X9RTvfnmm2K2opqYmCijR4+W6dOn644CAHABVlQBixgyZIiaOnWq7hiZVrVqVdm1a5f4+vpSgoAsVKdOHbVz507dMRzi7e0tUVFREh4ezngBABbjpTsAgMybNWuWJUqqv7+/zJkzh5IKaPD666/rjuCwtLQ0ee+993THAAC4ACuqgMlt375dNW3a1BKvJJk4caIMGzaMkgpooJRSFStWlKioKN1RHGIYhkRGRkrVqlUZOwDAQlhRBUzswoULqnPnzpYoqXXr1pWXXnpJdwzAYxmGYbzxxhu6YzhMKSXvvPOO7hgAACdjRRUwqYcPH6r69evLwYMHdUfJtOzZs8uhQ4ekZMmSrIgAGqWmpqqIiAg5c+aM7igO27Jli9SvX58xBAAsghVVwITS0tJUjx49LFFSRUQ++eQTSirgBnx8fIxRo0bpjpEhI0aMEMXVdwCwDFZUARN6+eWX1eTJk3XHcIpmzZrJ2rVreacm4CbS0tJUxYoV5dixY7qjOGzhwoXSrVs3xhIAsACKKmAyU6dOVUOGDNEdwyly5swphw8flsKFCzOxBNzI4sWLVbdu3XTHcFiJEiXk+PHj4u/vz5gCACbH1l/ARFavXq2GDRumO4bTTJs2jZIKuKGnnnpKKleurDuGw86dOydW2W0CAJ6OFVXAJI4eParq1q0r9+/f1x3FKQYOHCjTp0+npAJu6pdfflEdOnTQHcNhwcHBcvr0acmXLx/jCwCYGCuqgAlcunRJtWzZ0jIlNTw8XD777DPdMQA8Qvv27Y2aNWvqjuGw2NhY+eCDD3THAABkEiuqgJu7f/++atCggRw+fFh3FKfw9/eXnTt3SpUqVVjtANzcmjVrVMuWLXXHcJiPj48cPHhQypcvzzgDACbFiirgxhITE1W7du0sU1JFRD766CNKKmASLVq0MBo2bKg7hsNSU1PlzTff1B0DAJAJrKgCbspms6nu3bvLkiVLdEdxmubNm8vq1at5FQ1gItu2bVP169fXHSND1q5dK08++STjDQCYEEUVcFNDhw5VkyZN0h3DafLmzSuHDh2SAgUKMGkETObJJ59U69ev1x3DYZUqVZJ9+/aJt7c34w4AmAxbfwE3NG7cOEuVVC8vL5kzZw4lFTCpMWPG6I6QIYcOHZLZs2frjgEAyABWVAE3M3v2bNW3b1+x0m/znXfekdGjR1NSARNr166dWrFihe4YDgsLC5OTJ09KaGgoYxAAmAhFFXAjixcvVj169JC0tDTdUZymadOmsmbNGrbeASZ36NAhVbVqVbHZbLqjOGzIkCEyefJkxiAAMBGKKuAm1q9fr9q2bStJSUm6ozhN/vz5Zf/+/Wz5BSyiT58+yoxbab29vSUyMlIqV67MWAQAJkFRBdzA7t27VbNmzeThw4e6oziNj4+PbNiwQerXr8/EELCIK1euqDJlykh8fLzuKA6rW7eubN26laeOA4BJ8DAlQLMjR46o1q1bW6qkioiMHTuWkgpYTKFChYyXX35Zd4wM2b59u8ydO1d3DACAnVhRBTQ6deqUatiwoVy/fl13FKdq3769LF26lJULwILu37+vSpcuLTExMbqjOCxfvnxy8uRJyZEjB2MTALg5VlQBTS5evKiaN29uuZJarFgxmTFjBiUVsKgcOXIY7777ru4YGXLjxg0ZNWqU7hgAADuwogpocPHiRdWwYUM5f/687ihOFRQUJNu2bZMqVapQUgELS0lJUeXLl5fTp0/rjuIwHx8f2bdvn1SsWJFxCgDcGCuqQBa7ceOGatGiheVKqojIt99+S0kFPICvr68xduxY3TEyJDU1VQYNGiSKK/UA4NYoqkAWunHjhmrUqJGcOHFCdxSnGz58uPTo0YOSCniILl26SO3atXXHyJBt27bJnDlzdMcAADwCW3+BLBITE6MaN24sUVFRuqM4XfPmzWXlypXi7e1NUQU8yPbt21W9evV0x8iQ3Llzy7FjxyQsLIxxCwDcECuqQBa4deuWatq0qSVLavHixWXevHmUVMAD1a1b1+jcubPuGBly+/ZtGTp0qO4YAIB/wIoq4GL/KalHjhzRHcXpsmfPLjt27JAKFSpQUgEPFR0drSIiIiQ5OVl3lAxZtmyZtG/fnjEMANwMK6qAC928eVM1btzYkiXVMAyZOXMmJRXwcCVLljSef/553TEybPDgwRIbG8tVewBwMxRVwEVu3LihGjduLEePHtUdxSVGjhwpTz31FCUVgLz33nuSK1cu3TEy5NKlS/Lmm2/qjgEA+C9s/QVc4MaNG6pp06aWLamdO3eWxYsXi5eXF0UVgIiIfPHFF2rw4MG6Y2SIl5eXbN68WerVq8eYBgBugqIKONmlS5fUk08+KSdPntQdxSWqV68umzdvlqCgICZ0AP6QmpqqqlatatpbHcqVKyf79+8Xf39/xjYAcANs/QWc6Ny5c6px48aWLakFCxaUn3/+mZIK4H/4+PgY06ZNE8Mw5/Bw7Ngx+eijj3THAAD8jhVVwEkOHTqkWrRoITdu3NAdxSWyZ88uW7ZskSpVqphzFgogS3Tv3l0tWrRId4wM8fPzk8jISB4SBwBugKIKOMHevXtVq1at5Pbt27qjuISXl5f8+OOP0rFjRyZvAB7p8uXLKjw8XOLi4nRHyZDy5ctLZGSkBAQEMN4BgEZs/QUyaePGjapp06aWLakiIh9//DElFYBdChcubLz22mu6Y2TY0aNH5f3339cdAwA8HiuqQCb88ssvqnv37pKYmKg7isv07dtXZsyYQUkFYLeEhARVvnx5OXfunO4oGeLl5SUbNmyQhg0bMvYBgCasqAIZNGvWLNW5c2dLl9RmzZrJ119/rTsGAJMJDAw0JkyYoDtGhtlsNunfv788fPiQq/kAoAlFFciAL774QvXv31/S0tJ0R3GZChUqyOLFi8XX15cVBQAO69Kli9G8eXPdMTLs7Nmz8sorr+iOAQAei62/gIPGjx+vRowYoTuGSxUuXFh27twphQsXpqQCyLBjx46pypUrS0pKiu4oGbZ8+XJp27YtYyEAZDGKKmAnpZQaNmyYTJo0SXcUl8qVK5ds27ZNIiIimJgByLSXX35ZTZ48WXeMDMufP78cOXJE8uTJw5io0ahRo9T333+vO4ZThIaGZup9w76+vpI9e/ZH/m+8vLwkR44cf/xzQECABAYGioiIt7e3hISE/PHfhYSEiJ+fn4SEhEi2bNkkT548ki9fPsmTJ49ky5aN7z20oagCdkhLS1MDBgyQWbNm6Y7iUgEBAbJu3TqpV68eJyYATnHv3j0VEREh169f1x0lw7p06SJLlixhXNTk7bffVh9++KHuGB4pICBAihYtKhERERIeHi4VKlSQFi1acOEGWYKiCqTj4cOHqnv37rJy5UrdUVzKy8tLFi9eLJ07d+bkA8CpFixYoHr06KE7RqZMnz5dBg4cyPiYxSip7sfb21ueeOIJef3116V9+/b8JuAyFFXgEa5evaratm0rBw4c0B3F5aZMmSKDBw/mhAPAJVq2bKnWrFmjO0aGBQYGyq5du6RixYqMk1mEkur+WrRoIQsWLJDQ0FB+F3A6iirwD44cOaLatGkjly5d0h3F5d544w0ZN24cJxkALnP27FlVoUIFSUhI0B0lw8qWLSuRkZGSPXt2xksXo6SaR/ny5WXFihVSvHhxfhdwKl5PA/yNtWvXqnr16nlESe3fv7989NFHumMAsLhSpUoZb7/9tu4YmXLy5El58cUXdcewPEqquRw9elRq164tFy5cYPULTsWKKvBfZs6cqV544QVTv07BXh07dpTFixeLj48PV0EBuFxycrKqUqWKHDt2THeUTPn222+lf//+jJsu8NFHH6mRI0fqjoEMqFSpkmzfvp0nBcNpKKrA75RS6u2335axY8fqjpIlWrRoIb/88ov4+flxQgGQZbZu3aoaNmwoZp5/BAYGyu7du6VChQqMn0709ddfK1asze2ZZ56RefPm8buAU1BUARFJSkpS/fv3l3nz5umOkiWeeOIJWbduHfdZAdBiwIAB6rvvvtMdI1PKlCkjkZGREhwczDjqBDt27FCNGzeW5ORk3VGQSStXrpRWrVrxu0CmUVTh8e7cuaM6duwoW7du1R0lS1SqVEk2bdrEE/oAaHPnzh0VHh4ut27d0h0lU3r16iVz5sxhLM2k2NhYVbZsWbl27ZruKHCCxx9/XA4ePCje3t78NpApPEwJHu3s2bOqdu3aHlNSH3vsMVmzZg0lFYBWuXLlMj799FPdMTJt7ty58sUXX3DFP5MmTJhASbWQqKgomTVrlu4YsABWVOGxdu7cqTp06GD6K/r2KlKkiGzdulWKFStGSQWgnVJKNWvWTDZs2KA7Sqb4+vrK2rVrpVGjRoytGZCcnKzy5csn9+7d0x0FTlS+fHmJioriN4FMYUUVHmnevHmqadOmHlNS8+XLJ+vWraOkAnAbhmEYX375pQQEBOiOkikpKSnSrVs3OX/+PFf+M2DLli2UVAs6evSoREZG8ptAplBU4VHS0tLU8OHDVc+ePU390nlH5M2bV3777TcpW7YsJRWAWylTpozx3nvv6Y6Rabdu3ZKOHTtKXFwcE3MHrVu3TncEuMjs2bN1R4DJUVThMW7fvq1atmwpVrgvyl65c+eW9evXS/ny5SmpANzS8OHDpWbNmrpjZNqhQ4ekb9++orinyiEnTpzQHQEusmDBAklLS+P3gAyjqMIjHD58WNWsWVPWr1+vO0qWyZEjh6xevVoqVqxISQXgtry9vY3Zs2ebfguwiMjixYvlww8/1B3DVE6ePKk7AlwkJiZGjhw5ojsGTIyiCstbtGiRqlOnjkRHR+uOkmVy5Mgh69atk+rVq1NSAbi98PBwY9SoUbpjOMWoUaNk+fLlrCLZ6eLFi7ojwIW2bNmiOwJMjKIKy0pLS1NvvvmmevrppyUuLk53nCwTHBwsq1atkho1alBSAZjG8OHDpUaNGrpjZJrNZpOePXvK4cOHKavpSE5OVp7yvAhP5Smv/4Nr8HoaWNLdu3fVM888I6tXr9YdJUtly5ZNVq1aJfXr16ekAjCdo0ePqmrVqklSUpLuKJlWqFAh2bFjhxQtWpTx+B/cunVLhYWF6Y4BF8qXL59cv36d3wAyhBVVWM7Ro0dVzZo1PbKkLl++nJIKwLTKly9vvPvuu7pjOMWVK1ekdevWcvfuXVYE/gGvpbG+GzduyK1bt/gNIEMoqrCUFStWqLp168qZM2d0R8lS2bJlk19++UUaN25MSQVgaq+//roltgCL/N+7JDt06CCJiYlM1P8G2349g6fNyeA8FFVYglJKjR8/XnXo0EHu37+vO06WypEjh6xdu1aaNGlCSQVgej4+PpZ5CrDI/92j1717d17T8TdsNpvuCMgCp0+f1h0BJkVRhenFxMSotm3byogRIzzupJczZ05Zt26d1KlTh5IKwDIiIiKMt956S3cMp/nll1/k1Vdf1R3D7XjaOdtTUVSRURRVmNrWrVtVlSpVZOXKlbqjZLncuXPLb7/9xtN9AVjSiBEjpFq1arpjOM2kSZPkk08+YVX1TyiqnoGiioyiqMKUbDab+vDDD1WTJk3k8uXLuuNkubCwMNmwYYNUqVKFkgrAknx8fIx58+ZJtmzZdEdxmtdff11mzpxJWf1dWlqa7gjIAjdu3NAdASZFUYXp3Lp1S7Vp00befvttSU1N1R0ny+XLl09+++03qVixIiUVgKWVLVvW+Oyzz3THcBqllAwYMEDmzp1LWRWKqqe4ffu27ggwKYoqTGXDhg2qUqVKHvfqmf8oXLiwbNmyRR5//HFKKgCPMHDgQKNz5866YziNzWaTvn37ysKFCz2+rLL11zPcuXNHdwSYFEUVpvCfp/o2b95crl27pjuOFiVKlJBNmzZJmTJlKKkAPMq3334rRYsW1R3DadLS0uTZZ5+VBQsWeHRZpah6hpiYGN0RYFIUVbi9mzdvqpYtW8qIESM8dptQ+fLlZdu2bVKqVClKKgCPkzNnTmPu3Lni7e2tO4rTpKWlSe/evWXZsmUeW1Y99ZzuaZKSkiQ+Pt5jv+fIOIoq3NratWtVhQoVZO3atbqjaFO3bl3Ztm2bFCxYkJIKwGM1aNDAGD58uO4YTpWSkiLdunWTlStXeuQknhVVz3H37l3dEWBCFFW4pdTUVDVy5EjVqlUruXnzpu442rRs2VLWrl0roaGhlFQAHm/MmDFSvXp13TGcKjk5Wbp06eKRZZWi6jmSkpJ0R4AJUVThdi5duqQaN24sH330kUefxLp16ybLli2ToKAgSioAiIivr68xb948yZ49u+4oTpWYmCgdO3aUH374waPKqief4z1NSkqK7ggwIYoq3MrixYtV5cqVZdu2bbqjaNW7d2+ZN2+e+Pn5UVIB4E/KlCljfP7557pjOF1KSor07NlTPvvsM48pq0p5zB/V41FUkREUVbiFe/fuqWeffVZ169bN4x9j/sYbb8isWbPEx8eHkgoAf6N///5G165ddcdwOqWUvPLKK/L+++/T4GApycnJuiPAhCiq0G7Hjh2qWrVq8sMPP+iOopVhGPLxxx/LuHHjDMMwKKkA8AgzZsyQcuXK6Y7hEu+9954MHjxY2Ww2CissgRVVZARFFdqkpKSo9957T9WvX1+io6N1x9HK399f5s+fL6+99hoFFQDskD17duOnn36SkJAQ3VFc4osvvpBevXpJSkoKZRWmx4oqMoKiCi0OHjyoqlevLu+//77HP0whV65csm7dOunevTslFQAcULZsWWP69Om6Y7jMDz/8IO3atZP79+9TVmFqvDMXGUFRRZZKTU1V48ePV7Vq1ZLDhw/rjqNdoUKFZOPGjVK/fn1KKgBkQPfu3Y2hQ4fqjuEya9askRo1asiJEycoqwA8CkUVWebYsWOqdu3aMmLECLaAiEiFChVk165dUrFiRUoqAGTChAkTpEGDBrpjuMzp06elTp06sn79esoqAI9BUYXL2Ww2NWnSJFW1alWJjIzUHcctNG3aVLZu3SqFCxempAJAJvn4+BiLFi2SggUL6o7iMnfv3pWWLVvK+PHjKasAPIKP7gCwtpMnT6q+ffvKzp07dUdxG71795ZvvvmGd6QCgBPly5fPmD9/vmratKmkpqbqjuMSaWlpMmLECDl37pyaMmWK+Pr6ch5xoezZs8unn36qO8Y/OnXqlFvnAzLL4GXLcIWUlBQ1YcIEGTNmjCQmJuqO4xYMw5AxY8bIyJEjhdfPAIBrTJw4Ub366qu6Y7hcw4YNZcGCBZI/f37Tnk9Wr16tWrVqpTvGP8qTJ4/cunXLbT/fvXv3qpo1a+qOYZeNGzdKo0aN3PazhHti6y+cbt++fapGjRry1ltvUVJ/FxgYKAsXLpS33nqLd6QCgAsNGzZMnn76ad0xXG7z5s1SqVIlWbNmDSsOHip79uy6IwAuRVGF0yQkJKj33ntP1a5dWw4dOqQ7jtvInz+/bNq0Sbp27UpBBQAXMwzDmDlzpjzxxBO6o7jczZs3pVWrVvLyyy+r5ORkCquHyZYtm+4IgEtRVOEUW7duVVWqVJH3339fUlJSdMdxG/95sm/NmjUpqQCQRQICAoyff/5ZihYtqjuKyymlZPLkyVK3bl05c+YMZdWDsKIKq6OoIlNiYmJU3759VcOGDeXkyZO647iVtm3byvbt26VYsWKUVADIYvnz5zeWLVvmMZP5yMhIqV69uixatIiy6iGCg4N1RwBciqKKDFFKqRkzZqjw8HCZNWuW8FCuvxo2bJgsXbpUgoODKakAoEnlypWNH374Qby9vXVHyRL379+X7t27S58+fdSdO3c4MVucr6+v4e/vrzsG4DIUVTjs6NGjqmHDhtK/f3+5ffu27jhuxc/PT6ZPny4TJ040vL29KakAoFm7du2ML7/8UneMLDV79mwpV64cq6sewFN2DMAzUVRht/88LKlatWqydetW3XHcTt68eWXt2rUycOBACioAuJGBAwca7733nu4YWerGjRvSvXt3adu2rbp06RKF1aJ4oBKsjKIKuyxdulSVL19e3n//fUlKStIdx+3UqlVLDhw4IA0bNqSkAoAbGjVqlPH888/rjpHlfv31V6lQoYJ8/fXXSnGfjuWwogoro6jikU6ePKlatmypOnXqJOfOndMdxy317dtXNm/eLIUKFaKkAoAbmzZtmnTs2FF3jCx3//59efHFF6Vx48Zy6NAhyqqFUFRhZRRV/K3Y2Fj1xhtvqIoVK8qaNWt0x3FLvr6+MnnyZJkxY4bh7+9PSQUAN+ft7W3Mnz9fGjRooDuKFps3b5aqVatK//791dWrV7UX1uTkZN0RTI8n/8LKKKr4C6WUmjdvngoPD5ePP/6Yk8g/+M/9qEOGDKGgAoCJBAQEGMuWLZOKFSvqjqKFzWaTGTNmSJkyZWT06NEqPj4+ywvrpUuX1NChQ1WPHj10fxymZ5Z7VOPj43VHgAlRVPGHyMhI1aBBA+nZs6dcvXpVdxy3VbVqVdm7d680atSIkgoAJhQaGmqsXr1aSpQooTuKNnFxcTJq1CgpU6aMzJo1S9lsNpcX1tOnT6sBAwao0qVLy6RJkygvTmCWrb8dO3aUbt26qQ0bNnCvNOxGUYVcvnxZ9e7dW9WsWVO2bdumO45bGzhwoGzfvl2KFStGSQUAEytQoICxevVqyZs3r+4oWl25ckX69u0r1apVk1WrVrmkQBw+fFj16NFDRUREyHfffcduLScyS1FNSUmRxYsXS9OmTSUiIkI+//xzdffuXQorHomi6sHi4+PV+PHjVbly5WTu3LnCBa5/FhAQIN98841Mnz7dCAgIoKQCgAWUKVPGWLlyJff5icjBgweldevWUqdOHbVlyxanTAj279+vunXrpipXriwLFiyQtLQ03X9MyzFLUf2zkydPyrBhw6RAgQLSrVs3tX79eiag+FsG5cTz2Gw2NWfOHHn77bflypUruuO4vbJly8rixYulQoUKFFQAsKB169aptm3bstL3Jx07dpQPP/xQypUr5/C5b+fOnerdd99qDjNPAABw7UlEQVSV9evX6/5jZEpYWJjcuHHDrc/9o0aNUqNHj9YdI9OqVasmQ4cOle7du4uvr69bf+Y6nDx5Um3atEmioqLkzJkzkpqaKgkJCVKsWDEpW7asNGvWTGrVqiXe3t7W+uyUUhwedKxevVpVqVJFiQiHHUfXrl3VgwcPlO6/Nw4ODg4O1x7z589XXl5e2s877nR4e3urPn36qAsXLih7PsO9e/eq1q1ba8/trKNw4cJ2/bl1HhMmTND+OTn7Mx8/fry6e/eu23/2rj4OHz6sXnnlFVW6dGm7PrucOXOqZ599Vu3atcsyn532ABxZc+zZs0c1adJE+wBklsPPz099/vnnlvmhc3BwcHCkf0yePFn7+ccdD39/fzVs2DB169Yt9Xef28GDB1WHDh2UYRjaszrzKFmypNL9nUzv+Prrr7V/Tq44goOD1euvv/6P3zmrHg8fPlRffvmlql69eqY+vy5duqhLly6Z/rPTHoDDtcfJkyfVU089ZbmThyuPIkWKqB07dpj+x83BwcHB4fjx1ltvaT8PuesREhKiRo8erWJjY5VSSqKiolTXrl0tO8cIDw9Xur+P6R0LFizQ/jm58siePbt68803VUxMjNv/XWTmuHLlinrzzTdVrly5nPbZ5c6dW61cudLUn5v2AByu+8K/8MILysfHR/sgY6ajQ4cOlh8MOTg4ODj++bDZbGrAgAHaz0fufISFhakOHTpYfqt0xYoVle7vY3rH709qtvwREhKi3nnnHXXnzh23/ztx5Dhz5ozq27ev8vPzc8nn5u3trb7++mvTfmbaA3A497h+/boaNmyYCgwM1D6omOkICAhQU6dOVTabzbQ/Zg4ODg4O5xypqamqQ4cO2s9NHHqPatWqKd3fxfSOHTt2aP+csvLImTOnGj9+vIqPj3f7v5tHHWfOnFF9+vTJkgUlwzBMezsbr6exiJiYGPXGG2+oUqVKyWeffSYJCQm6I5lGuXLlZM+ePTJo0CDDMAxrPS0NAOAwb29vY/78+VK0aFHdUaCRn5+f7gjpypEjh+4IWeru3bvyxhtvSNmyZWXmzJkqLS1N6c7kiLNnz6q+ffuq8PBwmTVrlqSmprr8/6dSSoYNGyZz58411WclwntUTe/u3bvqnXfeUSVLlpSPP/5Y4uLidEcyleeff1727t3Lq2cAAH+xf/9+uXTpku4Y0Chbtmy6I6TL04rqf1y6dEn69esnlStXll9//dXtC5iOgvpnSinp37+/bNq0ye0/qz+jqJrUnTt31KhRo1TJkiXlgw8+kNjYWN2RTCVnzpyyZMkS+frrr42goCBKKgDgD0opNWzYMFHKVHM6OFn+/Pl1R0hXrly5xJM3g0VFRUnbtm2lSZMm6tChQ273g9VdUP8sJSVFunbtKufPn3e7z+mfUFRN5saNG+r1119XxYsXl9GjR8u9e/d0RzKdevXqycGDB6VLly6eO7IDAP7R999/L3v37tUdA5qZoagGBgYaZsjpahs3bpRq1arJiy++qG7duqW9iJ07d07169fPLQrqn8XExMhTTz0lycnJ2j8je1BUTeLixYvq5ZdfViVLlpQJEyawgpoBXl5e8tJLL8mGDRukaNGilFQAwP9ISEhQb7/9tu4YcAMFChTQHcEuJUqU0B3BLaSlpcnXX38tJUuWlPfee08lJSVleRm7dOmSevnll1VERITMnDnTbQrqn+3bt0/effdd3THsQlF1c6dPn1YDBgxQjz32mEyePFni4+N1RzKlYsWKycaNG2XSpEmGr68vJRUA8LfGjx8vFy9e1B0DbiBfvny6I9ilZMmSuiO4lYcPH8r7778vlSpVkrVr12ZJWb169aoaMmTIH/P1pKQk3R/DI02YMMEU96tSVN3Uvn37VO/evVVERIR89913kpycrDuSaXXt2lUOHDggDRo0oKACAP7RlStX1CeffKI7BtwEK6rmdvLkSWnRooW0a9dOXbhwwSWlLCYmRo0YMUKVLl1apk6d6vYF9T9sNpv06tVL7ty549ZllaLqRmw2m/r5559V3bp1VfXq1WXu3LmSlpamO5Zp5c2bV3766SdZtGiRkTNnTkoqAOCRRowYwdPz8YfixYvrjmAXVlQfbcWKFfL444/LhAkTVEpKilOK2X9eC1m8eHEZP368KV8LefnyZRk0aJDuGI9k8EQ7/RISEtScOXPk008/ldOnT+uOYwnt27eX6dOnS758+SioAIB07d69W9WuXZsn/UJEREJCQuTevXtihverHzhwQFWtWlV3DFMoX768fPHFF9KwYcMM/b3evXtXffrppzJ58mTLPC9mzpw50qtXL7f8nlNUNbp9+7aaNm2aTJ06VW7evKk7jiUEBwfLZ599Jv3793fLHxwAwP0opVTdunVl586duqPATTRo0EA2b95sirlEamqqCg0NZTeAnQzDkGeffVYmTJgg+fPnt+vv+MGDB+qzzz6Tzz77TO7fv6/7j+BUOXPmlGPHjtn9WWQltv5qEB0drQYPHqyKFi0q7777LiXVSRo0aCCHDh2ipAIAHLJw4UJKKv6iYcOGuiPYzcfHx6hbt67uGKahlJLvv/9ewsPDZcqUKSotLe0fV+0ePnyoxo4dq0qUKCHvvfee5UqqiMjdu3fl5Zdf1h3jb1FUs9DevXtVt27dVJkyZeSLL77gCb5O4u/vLxMmTJCNGzdKiRIlKKkAALslJCSoESNG6I4BN9OsWTPdERzSoUMH3RFM5/79+/LSSy9JjRo1ZOfOnX8pq/Hx8eqTTz5RJUuWlLfeekvu3LmjO65LLVq0SFasWOF222zZ+psF1q1bp8aOHSubNm3SHcVyatSoITNmzJDHH3+cggoAcNiHH37Ie1PxFwUKFJCLFy+Kj4+PaeYWV69eVcWKFXPL93aagZeXl/Tr109GjRolP/74o4wbN06uX7+uO1aWKlq0qBw9elSyZ8/uNt97iqoLrV69Wo0ePZrtRC6QLVs2GTNmjLz00kvi7e3tNj8oAIB5XLt2TZUpU0YePnyoOwrcyGuvvSYff/yx6eYWTz31lPrxxx91x4CJvfzyy/L555+7zXefoupkSim1cuVKGT16tOzZs0d3HEtq3ry5fPXVV2zzBQBkSr9+/dTMmTN1x4Ab8fPzk1OnTkmxYsVMN8fYuXOnqlu3Lk+uRoZ5e3vLzp07pUaNGm7x/eceVSdRSqlffvlF1ahRQ9q2bUtJdYHcuXPL7NmzZc2aNQYlFQCQGfv371ezZ8/WHQNupl+/fqYsqSIitWvXNrp27ao7BkwsLS1NBg4cKKmpqW5xtYMVVSdYt26dGjlypERGRuqOYllPP/20TJo0ScLCwkx58gAAuJeGDRuqLVu26I4BN1KgQAGJioqSXLlymXaucfnyZVWlShWJiYnRHQUmNm7cOHnjjTe0/w5YUc2EvXv3qmbNmqnmzZtTUl2kSJEisnz5cpk/f75BSQUAOMOPP/5IScVfeHt7y8yZM01dUkVEChcubMyePVu8vb11R4GJjRkzRi5evKh9NZOimgEnT55UXbt2VbVq1ZLffvtNdxxL8vb2lsGDB8vRo0elbdu2pj5pAADcR1JSknr99dd1x4CbmTp1qrRo0cIS843WrVsb33zzjRiGJf440CAuLk5effVV3TEoqo64evWqev7559Xjjz8uS5Ys4WZ1F6lbt67s3btXpkyZYgQHBzPKAgCcZtKkSRIdHa07BtyEt7e3fPXVV/Liiy9aar7Rt29fY+7cuRIQEKA7CkxqyZIlsm7dOq1lh3tU7ZCUlKQmTpwoY8eO5RH2LpQ/f34ZP3689OrVSwwuAwIAnOzGjRuqTJn/1959h0dRte8Dv2ez6T0EEiD0nkDoHQEBKdKkROlSFFA6LxhQEKRIkV6kg0hvojRBWkQEQkmogZBQAkKAEIKBkL7n98f7fflZgCSb3T0zm/tzXc91oSjcM5nZOc+eMzNlkZiYKDsKqUCBAgWwdu1atGzZ0mrHHKGhoaJbt278coaMUr58eVy4cAF2dnZSzhHOqGbhp59+EgEBAfj888/ZpJqJra0tRowYgcjISPTq1Uthk0pERObw5ZdfskklAMB7772HCxcuWHWTCgC1a9dWLly4gEGDBvG+Vcqxa9euYd68edL+fs6ovkZERIQYPnw4Dh48KDuKVXv77bexcOFCBAQEWPWFgoiI5Lp48aKoVq0aMjMzZUchiSpVqoRZs2ahefPmeW7ccfHiRTF69Gj88ssvsqOQhri4uODq1avw8/Oz+DnDGdV/SExMFMOHDxeVK1dmk2pGfn5+2Lx5M44cOaKwSSUiInMbOXIkm9Q8rHr16tixYwcuXLiQJ5tUAAgMDFQOHDigHD9+HK1atZIdhzTi+fPnGDVqlJS/mzOqf/Hjjz+KwYMH4969e7KjWC0HBwcMHz4c48aNg7Ozc568UBARkWXt2rVLtG/fXnYMsjBnZ2d06dIFAwYMQM2aNTnm+IeIiAixbNkyfP/993j69KnsOKRyhw8fRpMmTSx6HrFRBXDv3j0xZMgQ7Ny5U3YUq6XT6dC9e3dMmTIFRYsW5cWCiIgsIi0tTVSsWBFRUVGyo5CFVKlSBf3790f37t3h5ubGMUcWXrx4IbZs2YKlS5fi9OnTsuOQSvn7++P8+fOwtbW12DmVp5f+GgwGsXjxYuHv788m1YyaNWuGs2fP4vvvv1fYpBIRkSUtXryYTWoe4Obmhv79++PMmTMIDw9XPvnkE4VNavY4OTkpffr0UUJDQ5WwsDB8+umn8PDwkB2LVCYiIgILFiyw6N+ZZ2dUr127Jvr27YuTJ0/KjmK1AgMDMWPGDKt/oh4REanT48ePRZkyZbis0YqVKVMGo0aNQvfu3XlLkQklJyeLHTt2YNWqVfj111+RV/sF+js3NzdERkbC19fXIudanptRFUKIRYsWiWrVqrFJNRM/Pz+sXr0a4eHhbFKJiEiaiRMnskm1UtWrV8fWrVtx7do19O/fX2GTalqOjo5Kjx49lKNHjyrXr19HcHAw8uXLJzsWSZaYmIixY8da7O/LUzOq9+/fF3369OFjuc3Ezc0NwcHBGD58OJycnHjBICIiaSIiIkTlypWRkZEhOwqZUEBAAKZNm4a2bdtynGFhycnJYuPGjVi0aBHOnz8vOw5JotPpcOrUKYs8oCzPNKpbt24Vn3zyCZ48eSI7itWxt7fHgAEDMG7cOOTPn58XDiIikq5Vq1Zi//79smOQifj5+eGrr77Chx9+CBsbG441JDt27JhYuHAhfvzxR34ZlAfVrVsXv//+OxRFMeu5aPWN6rNnz8Snn36K9evXy45idWxtbdGnTx+MGzcORYoU4UWDiIhUYd++faJ169ayY5AJODg4IDg4GMHBwXB0dORYQ2Vu3bolZs+ejdWrVyM5OVl2HLKg77//Hj179mSjaqxr166Jzp0748qVK7KjWBWdTodOnTph6tSpKFOmDC8aRESkGhkZGaJKlSq89luBt99+G99++y3Kly/PsYbKxcXFicWLF2PhwoVcvZhH+Pr6IjIy0qyvgLLahyl9//33onr16rxQmZBOp0OXLl0QERGBrVu3KmxSiYhIbZYsWcJrv8b5+flh27ZtOHLkiMImVRvy58+vTJw4Ubl9+zZmzZoFHx8f2ZHIzB48eIAZM2aY9e+wuhnVlJQUERwcbPH3/Fi7Zs2aYebMmahatSovGEREpEoJCQmiTJkyiI+Plx2FjKAoCj7++GN88803Zp2lIfNLTU0Va9euxYQJE/DgwQPZcchM7OzscPnyZbOtsLSqGdUbN26IunXrskk1oXfffRdnz57FwYMHFTapRESkZl999RWbVI0qWbIkDh06hGXLlilsUrXP3t5e6d+/vxIVFYVp06bx1TZWKi0tDcHBwWb7861mRvXYsWOiY8eOvECZSLNmzTBp0iTUrVuXFwsiIlK9yMhIUalSJaSnp8uOQjmg0+kwePBgfP311+C7UK3Xs2fPxJw5czBr1iw8f/5cdhwysUOHDqFp06YmP3+tolFdu3at6N+/P9LS0mRH0TRFUdCqVSuMGzeODSoREWlK27ZtxZ49e2THoBwoXbo01qxZgwYNGnDMkUc8fPhQTJw4EStXruRrbaxIxYoVER4eDr1eb9JzWdNLf4UQYuLEiaJ3795sUnNBURS0adMGoaGh2Lt3r8ImlYiItOTIkSNsUjWmZ8+eCA8PZ5Oax/j4+ChLlixRrly5gqCgIJj5NZxkIZcvX8bSpUtN/udqdkb1xYsXolevXtixY4fsKJplY2OD999/H59//jkqVqzITwoiItKczMxMUbVqVVy6dEl2FMoGX19frFy5Eq1bt+a4g3Ds2DExdOhQXLhwQXYUyiUvLy9cv34d+fLlM9m5rckZ1fj4eNGkSRM2qUaytbXFhx9+iIiICGzcuFFhk0pERFq1atUqNqka0aFDB1y8eJFNKr3UsGFD5ezZs1iwYAE8PDxkx6FcePLkCSZMmGDSP1NzM6r3798XzZs35zvSjGBnZ4c+ffogODgYJUqU4EWCiIg07dmzZ6JMmTJ4+PCh7Cj0Bm5ubpg/fz569+7NsQe91qNHj8TYsWPx3XffwWAwyI4jjaOjIwAgOTlZdpQc0+v1OH/+PAICAkxyrmtqRjU6Olo0aNCATWoOOTo6YujQobhx4waWLl2qsEklIiJrMH36dDapKle3bl2cP3+eTSplqUCBAsqqVauU3377DRUqVJAdx+L0ej0+/vhjXL9+HV988YXsOEbJyMjAyJEjTfbnaWZG9eLFi6JFixZ8aXAOuLm5YeDAgRg5ciR8fHx4gSAiIqtx584dUb58eU3OOnh7e6NIkSIIDw+XHcVsbGxsMHbsWEyYMMHkTwIl65eamiqmTJmCGTNmWP0rpxRFQVBQECZPnoyyZcsqAJCSkiL8/f1x69Yt2fGMsmfPHtMs8RdCqL5OnDghPD09BQBWNsrHx0d8/fXX4unTp0L2z47FYrFYLHNU9+7dpV9vja3169cLIQSOHj0qGjduLD2PqatIkSIiJCREyD5GWNqv8+fPi+rVq0s/ps1VLVq0EOfOnXvlubJjxw7p+YytcuXKibS0tFx/Bkg/ALOq06dPC3d3d+k7XAtVsmRJ8e2334rk5GReHFgsFotltRUaGioURZF+3TWmGjVqJAwGg/jr9oSEhIiaNWtKz2aK6tixo4iPjxeyjxGW9VR6eroYP368sLGxkX58m6rq1Kkjjh49muV50qRJE+lZja158+bl+nNA+sH3prpw4YLIly+f9B2t9goMDBRr164V6enpvDCwWCwWy+rrrbfekn7tNab0er24cOGCeNU2GQwGsXXrVlG8eHHpOY0pBwcHkwxMWazX1cmTJ0XJkiWlH+u5qQoVKoitW7f+68uq19WVK1eEXq+XntuY8vT0FHFxcbn6TJB+0L2uLl++LPLnzy99J6u5GjVqJPbt25ftg53FYrFYLK3X9u3bpV9/ja0RI0aIrLbvxYsX4quvvhKOjo7S82a3KleuLK5cuZLltrFYua0nT56IoKAg6cd8Tqt48eJi7dq1IiMjI8fnyaBBg6TnN7YGDRqUq88F6Qfcq+ratWvC19dX+s5VY+l0OtG+fXtx4sQJXhBYLBaLlacqNTVVlCpVSvq12JgqWLCg+PPPP0V2tzU6Olq0atVKeu43laIoYujQobzliGXxWrZsmSa+zClQoICYP3++SE1NNfociY+P1+wKU71en6svsaQfaP+s27dvi8KFC0vfsWorW1tb8eGHH/IbSxaLxWLl2Zo9e7b067Gx9d133wljtnn79u3Cz89Pev5/Vv78+cWePXuM2iYWyxR16dIl4e/vL/1ceFW5ubmJSZMmiWfPnpnkHFm0aJH0bTK2WrRoYfQ+kH6Q/bUSEhJUe8DJKmdnZzFs2DARExPDiwGLxWKx8mw9fvxYs28AqFGjhsjMzBTGbvuzZ8/E2LFjhYODg/RtASDeeecdcf/+faO3h8UyVSUlJYl+/fpJPyf+Vy4uLuKzzz4Tjx8/Nun5kZ6eLipVqiR9+4ytvXv3GrU/pB9g/6u0tDTRrFkz6TtSLeXi4iKGDh3KCwGLxWKxWEJgyJAh0q/NxtaxY8eEKfbB3bt3Rc+ePaU98Viv14sJEybkqulmscxR27dvFx4eHtLH7bGxsWY7N44cOSL9s8zYMvZ1NdIPLCH++6S7nj17St+JaihXV1cRHBzMR7uzWCwWi/V/de3aNWFrayv9Gm1MffDBB8LU+yM0NFTUrVvXottRokQJPh+Dpeq6ffu2xc8LS4/bO3bsKP0zzdgy5qng0g8qIQTGjh0rfefJLm9vbzFlypQcPWiBxWKxWKy8UO3atZN+nTamHBwcxK1bt4Q59klmZqbYsGGDqFChgtm3o3fv3ia7147FMmelpqaKcePGmf2LrQIFCkgZt9+8eVM1twDktLy8vHK8JFr6AbVq1SrpO05mubq6ismTJ/MCwGKxWCzWK0rLy93Gjh0rzL1/MjMzxZYtW8xy/1q+fPnE5s2bzb4NLJapKywsTFSuXNnk50T58uXF8uXLpT7p+osvvpD+2WZsDR48OEf7TepBdPr0ac1+K5Db0uv1YsCAAeLBgwe8ALBYLBaL9YrKzMwUVatWlX7NNqZ8fX1FYmKisNS+MhgM4ocffhCNGjXK9T2siqKIXr16ibi4OIvlZ7FMXWlpaWLOnDnC3d091+dzw4YNxa5du1Rxf/bz5881+4YUW1tbERkZme19KG0nP3r0SBQtWlT6DpNRrVu35mtmWCwWi8XKotasWSP9mm1srVq1Ssjabzdu3BBffvmlUeOst956Sxw5ckRadhbL1PXgwQPxySefCHt7+xydCy4uLqJfv37izJkzqjsf1q9fL/0zztjq1KlTtvenIoSApWVmZooWLVrg8OHDFv+7ZapatSq++eYbNG3aVJGdhYiISM1SUlJE2bJlcffuXdlRcqxq1ao4e/YsdDqd1Ou9wWAQoaGhOHDgAH7//XeEh4cjPj7+b/+NnZ0dqlSpgsaNG6Nr166oUqUKxyhkle7duyfmzp2LdevW4dGjR6/972rVqoWPPvoIXbp0gaurqyrPByGEqF+/Pk6ePCk7So4pioITJ06gTp06We5bKY3qZ599Jr755hspO0cGb29vzJgxA71795Z+0SIiItKCWbNmidGjR8uOYZSQkBA0atRIldf758+fi/8N0h0cHODr68uxCeUpGRkZ4siRIzh+/DguXLiA+Ph4eHh4oEGDBmjXrh38/f01cT6cOnVK1KtXDzJ6udxq2LAhfv31V/U1qj/88IPo3LmzJndqTimKgt69e2PmzJnw9vbWxEFPREQk259//ilKlSr1r9k/LejYsSN27NjBaz4RmV3Xrl3F5s2bZccwyu7du9GmTZs3flZatFG9e/euqFy5MhISEmTvG7Pz9/fH0qVL8dZbb/FiRURElANffPGF+Prrr2XHyDE7OztERESgVKlSvPYTkdnFxMSI8uXLIyUlRXaUHAsICMCFCxdgY2Pz2s9LizWqBoNBNG3aFCEhIbL3i1k5OTlh3LhxGDVqFGxtbXmhIiIiyoHY2FhRpkwZJCUlyY6SY4MHD8bChQt57bdSqamp4t69e7h37x5iYmLw4MEDPHnyBCkpKUhKSsKff/758teJiYnIzMx8+f96eHhAUf5+aOj1eri6ugIAPD09AQAuLi5wcnKCm5sb3N3d4enpCXd3dxQuXBiFCxeGh4cHjy/6m88//1xMmzZNdgyjrF27Fr169ZLfqE6fPl2MHTtW9v4wq0aNGmHNmjUoUaIEP0SIiIiM8Omnn4olS5bIjpFjLi4uiI6Oho+PD8cAGieEEJcuXcLx48dx/vx5XLhwAXfu3MGDBw9kR4OzszNKlCiBSpUqoUqVKqhatSrq1q0LFxcXHnd5VGJioihbtiwePnwoO0qOlSlTBhEREdDr9a88fi3SqJ47d07Uq1cPaWlpsveHWej1enzxxRcYP378G6eviYiI6PWioqJEQEAA0tPTZUfJsfHjx2PSpEkcA2jY6dOnxdq1a7Fjxw5NDfrt7Ozw1ltvoWXLlujQoQOXnudBy5cvFwMGDJAdwyjfffcdPvzwQzmNalJSkqhevToiIyNl7wezKFGiBNavX4969erxQ4GIiCgXevToITZs2CA7Ro7ly5cPN27cgLu7O8cCGvPgwQOxZcsWfPfddzh//rzsOCZRvXp19O/fH926deNMax6RmZkpqlatikuXLsmOkmOlSpXCtWvXXjmrqjP3Xz5mzBirbVJ79uyJixcvskklIiLKpejoaLFlyxbZMYwyduxYNqkakpGRIXbs2CHatm0rihQpguHDh1tNkwoA586dw4ABA1C4cGGMGjVK3Llzx/pftZHH2djYKPPmzZMdwyg3btzAunXrXvl7Zp1RPXHihHjrrbdgMBhk7wOT0uv1WLJkCT766CNelIiIiEzgww8/FN9//73sGDnm5+eHqKgoODg4cEygcsnJyWLVqlWYPXs2bt++LTuOxdja2iIoKAijRo1C1apVeZxasdatW4t9+/bJjpFjpUqVQmRk5L9uoTRbo5qamiqqVauGiIgI2dtuUi4uLti6dStatWrFE52IiMgEoqOjRYUKFZCRkSE7So4tWbIEAwcO5JhAxZ49eyZWr16NGTNmIDY2VnYcqZo1a4YpU6agdu3aPGatUEREhKhcubImP0u3b9+OTp06/e24NNvS32nTplldk+rr64uQkBA2qURERCY0depUTQ6s8ufPjw8//FB2DHqN2NhY8dlnn4nChQtj+PDheb5JBYBDhw6hTp06aNmypfj999+5JNjK+Pv7Kx9//LHsGEaZO3fuv/6dWWZUr127JqpUqYLU1FTZ22wypUuXxs8//4zSpUuzSSUiIjKRGzduiPLly2uyUZ04cSImTJjAcYHKJCcniwULFmDq1Kl49uyZ7Diq1qxZM8yYMQPVqlXjcWwlYmNjRalSpZCcnCw7So6dPHkSderUeXksmnxG1WAwiD59+lhVk1q1alWcOnWKTSoREZGJzZw5U5NNqqOjIz799FPZMegvhBBi27Ztwt/fH2PGjGGTmg2HDh1CjRo18P7774uoqCjOsFqBggULKlp9Vc0/Hwhl8hnVNWvWiL59+8reTpMJCAhASEgIvL292aQSERGZUFxcnChWrJgmv/kfOHAglixZwrGBSpw+fVoMHz4cJ0+elB1Fs2xtbdGvXz9MmjQJ+fPn57GtYQ8fPhQlS5bEixcvZEfJEb1ej7t378LX11cBTDyjmpiYKD7//HPZ22gyZcuWxaFDh9ikEhERmcHSpUs12aQqioIRI0bIjkEAEhISRO/evUWdOnXYpOZSeno6li5divLly2P58uXCYDBwhlWjfHx8NHmvakZGBjZv3vzyn03aqE6ePBkPHjyQvY0mUbRoUfzyyy8vO3oiIiIyndTUVPHtt9/KjmGUt956C2XLluX4QLKDBw+KwMBArF27FuZ83WJe8+TJEwwYMAA1a9bEmTNnuGM1auDAgVAU7X1MrV+//uWvTdaoXr9+XSxYsED2tplEkSJFEBISgmLFimnvp0tERKQBmzdv1uyX2z169JAdIU9LSkoSn3zyiWjRogX++OMP2XGsVlhYGOrVq4eRI0eK5ORkNqwao9PpYGNjIztGjp07dw4RERECMGGjOnLkSKSlpcnetlzz8vLCwYMHUaJECTapREREZvLPh2ZoSevWrWVHyLNOnTolqlWrhqVLl3IW1QIyMjIwd+5cVK9eHWFhYdzhGhEbGyvatm2ryQfVAcDWrVsBmKhR3b9/v9i7d6/sbco1Ozs77NixA+XKlWOTSkREZCbh4eHi/PnzsmMYpWTJkihUqBDHCRZmMBjEl19+KRo0aIDr16/LjpPnXL16FXXr1sXMmTN576rKRUVFifr162v6PAkJCQFggkbVYDCIMWPGyN4ek1iyZAkaN27Miw8REZEZbdiwQXYEo+XLl092hDwnMTFRvPfee5g8eTIyMzNlx8mz0tLSEBwcjKZNm+LevXtsVlXo3LlzokGDBrh165bsKLkSGhqKlJQUketGdcuWLbhw4YLs7cm1zz77DH379mWTSkREZEaZmZli06ZNsmMY7fz589izZw8H6RYSHR0t6tWrh927d8uOQv8nJCQEVapUQUhICM8DFfnxxx/F22+/jUePHsmOkmspKSkIDQ3N3Yxqenq6mDBhguxtybUOHTpg2rRpsmMQERFZvZCQENy/f192DKOlp6ejXbt2+Oyzz0RqaioH6mZ04MABUatWLVy5ckV2FPqHx48f45133sGCBQt4DkgmhBCTJk0SHTt2xLNnz2THMZlLly7lrlFds2YNoqKiZG9HrlSvXh3r1q2DTqfjbCoREZGZ/fUdeVolhMA333yDqlWr4uTJkxyom8Hs2bNF69atkZCQIDsKvUZGRgaGDRuGTz75RKSnp/M8kOD58+eic+fOmDBhgtU9XCw2NhaKsRuVnJwsypYtq+nHgnt6eiIsLAzFixdnk0pERGQBpUuXFjdu3JAdw2R0Oh2GDh2KyZMnw8XFheMJExg7dqyYPn267BiUA02bNsXOnTvh6urKc8BCoqKiRKdOnXDp0iXZUcyiT58+xs+oLl68WNNNqqIoWLNmDZtUIiIiC7l//75VNakAYDAYMG/ePJQvXx5btmyxrikNCxNCiBEjRrBJ1aDDhw+jSZMmiIuL4zlgAdu3bxc1atSw2iYVABISEoxrVF+8eCG++eYb2flzZfjw4Wjfvj2bVCIiIgs5duyY7Ahmc+/ePXTp0gVNmzYV/3tZPWWfEEIMGTJE0+/XzevOnj2Lhg0b4u7duzz+zSQtLU0MGzZMBAUFITExUXYcs3J0dDSuUV22bJmmnyhVu3ZtzJgxQ3YMIiKiPOX48eOyI5jdkSNHUKVKFYwePVo8f/6cA/ZsyMjIEL169cLixYtlR6FcunbtGho0aICoqCge+yYWExMjGjZsiAULFsiOYhGFChXKeaOakpIiZs2aJTu70by8vLBlyxbY2tpyNpWIiMiCtPwC+pxIT0/HrFmzUL58eWzevJkD9jcwGAyie/fuWL9+vewoZCJ37txB06ZNERMTw2PfRPbt2yeqVauG0NBQ2VEsxt/fP+eN6urVqzX7WPn/3ZdarFgxNqlEREQWdufOHdkRLOrevXvo2rUrlwO/wciRI7F161bZMcjE7t69i6ZNmyI2NpbHfS5kZmaKL7/8UrRp0wZPnjyRHceiGjdunLNGNT09XcycOVN2bqN99NFHaNeuHZtUIiIiCZ4/fy47ghT/Ww4cHBwskpKSOHD/P7Nnzxbz58+XHYPM5MaNG2jevDni4+N5zBshLi5OtGrVCpMnT7a6V89kpVq1aihZsqSSo0Z13bp1iImJkZ3dKMWKFYOWlywTERFpXWZmpuwI0qSnp2PmzJkICAjArl278tao8xW2bt0qPvvsM9kxyMwuX76MVq1agV/Q5ExoaKioXr06Dh48KDuKFIMHDwaA7M+oZmZmimnTpsnObRRFUbBy5Uq4ublxNpWIiEgSd3d32RGki4mJQfv27dG+fXuRV+/h++2338SHH34Ig8EgOwpZwJkzZ9CzZ0+IvDYtaKQlS5aI/3t6suwoUlSqVAm9evUCkINGdfPmzYiOjpad3Sj9+/dHs2bN2KQSERFJVLx4cdkRVGPXrl0ICAjArFmzRGZmZp4ZwEdFRYn33nsPKSkpsqOQBe3cuRNfffWV7BiqZjAYxH/+8x/x6aefIi0tTXYcaWbOnAkbGxsFyGajajAYxNdffy07t1GKFy8Orb/zlYiIyBpUq1ZNdgRVSUpKwujRo9G4cWPcvHnT6pvV1NRU0aVLlzz3UBj6r0mTJmHLli1Wf5wbIzU1VXTt2hVz5syRHUWqTz75BC1btnw5uZitRnXfvn2IiIiQnT3HFEXBqlWr4OrqytlUIiIiyd59913ZEVTp+PHjqFKlCrZt22bVg/hRo0YhLCxMdgySRAiBfv364eLFi1Z9nOdUQkKCaN68eZ5/+nXt2rUxd+7cv/07JTvLxd9++20REhIiO3+O9e3bF6tWrWKTSkREpAIGg0GUL18eUVFRsqOokqIoGDlyJGbOnAmdTmdV45c9e/aIdu3a5bmnl9K/+fv74+zZs3B0dLSqY9wYsbGxolmzZpqcEDSlwoUL4+TJkyhSpMjfjoksZ1TPnTunySbVw8MDWn34ExERkTXS6XTKqFGjZMdQLSEEZs+eja5duyItLc1qOrq7d++K3r17s0klAEBERAT4xOf/vn6GTep/m9SQkJB/NalANhrVf07BasVXX32FAgUK5PlvaoiIiNSkX79+qFq1quwYqrZ161Z07twZGRkZmu/s0tPTxQcffID4+HjZUUhFFi9ejL1792r++DZWUlKSaNmyJZvU/2tSS5cu/cqe7Y1Lf+Pi4kSRIkWQmpoqeztypGLFiggPD4der2ejSkREpDKXL18WtWvXxosXL2RHUbX+/ftj2bJlmh7LTJ8+XYwdO1Z2DFKhAgUK4OLFi/Dx8dH0MZ5TQggRFBSEHTt2yI4iVbly5bBv3z6ULFnytT//N86orlmzRnNNKgAsWLCATSoREZFKVaxYUVm7di30er3sKKq2fPlybNy4UbOzTjExMWLKlCmyY5BKPXr0CCNGjJAdw+IWLFiQ55vUhg0b4sSJE29sUoE3zKgaDAZRtmxZ3LhxQ/a25Mj777+PLVu2sEklIiJSuY0bN4pevXohMzNTdhTV8vT0RGRkJPLnz6+5sU3btm3Fnj17ZMcglTt06BCaNm2quePbGJGRkaJq1apITk6WHUWaHj16YOXKlbC3t8/yZ/7aGdWjR49qrkl1dHTErFmzZMcgIiKibOjWrZuycuVK2NjYyI6iWgkJCZoc22zbto1NKmXLJ598gtTUVM2uHMiJ4ODgPNuk2traYvbs2fj++++z1aQCb2hUN2zYIHt7cmzgwIGvfGIUERERqVPv3r2VAwcOwNvbW3YU1fr222+RlJSkmYH8s2fPRF5c0knGiYqK0uSXMTl1+vRp8dNPP8mOIYWfnx9CQkIwcuRIRVGUbPdqr1z6m5KSInx9ffHnn3/K3q5sc3Z2xo0bN/LcDdlERETW4I8//hCdO3dGaGio7CiqtHnzZnzwwQeaGOMMHz5czJ8/X3YMaTw9PVGlShWUKVMGRYoUQdGiReHm5gZXV1d4eHggMTERmZmZePHiBZ48eYJHjx7hxo0biI6OxsWLF/H48WPZm2Bxjo6OuH79Ovz8/DRxjBujV69eYt26dbJjWNzbb7+NjRs3wtfXN8c/21c2qtu2bRPvv/++7O3KkeDgYEyfPt1qD24iIiJrl5KSIj777DMsXrwYBoNBdhxV6dGjB9atW6f6cU5MTIwoW7Ys0tLSZEexmJIlS6JZs2Zo2LAhGjRogGLFiuXq53T79m1x8uRJHDp0CAcOHMC9e/dkb6JFWMNTrl/nxYsXwtvbO08t+9XpdPjyyy8xfvx46HQ6o36ur2xUu3btKjZv3ix7+7LNxcUFN2/e1OSDBoiIiOjvTpw4Ifr27YvIyEjZUVSjbNmyiIyMVP04p3///mLFihWyY5hdqVKl0KNHD3To0AGVK1c2688lNDRUbNy4EVu2bMHDhw9lb7rZ2Nra4urVqyhVqpTqj/Oc2r9/v2jVqpXsGBbj7e2N9evXo0WLFrn7WQoh/lbp6enC09NTANBMjRs3TvxzO1gsFovFYmm3kpKSxLBhw4ROp5M+zlBDKYoikpKShOyfy5vq5s2bwtbWVvq+Mlfp9XrxwQcfiKNHjwqDwWDxn0VqaqpYt26dqFmzpvR9Ya7q0aOHqo9xY2vcuHHS962lqn79+uKPP/4wyc/xXw9TOnHiBBISEqAVHh4eGDlypOwYREREZEJOTk7KvHnzlNDQUNSuXVt2HOmEEIiNjZUd442mTJmC9PR02TFMzs7ODoMGDcL169exefNmpXHjxjl6IIwJcyg9evRQTp8+rezbtw81atSQvWtMbtOmTbhy5YqQncPUrl27JjuC2SmKgtGjR+Po0aMoXLiwSc6PfzWq+/btk72dOdK/f394enpa3RIBIiIiAmrUqKGcOHECq1atQoECBWTHkUrNjWp0dLT4/vvvZccwuTZt2uDSpUtYtGiRUqJECdWMN1u1aqWcPn0a69evh6+vr+w4JpOZmYkZM2bIjmFyt2/flh3BrAoUKIB9+/Zh5syZiq2trcnOk381qr/++qvsbc02GxsbfPLJJ7JjEBERkRnpdDqlb9++SmRkJIYMGQK9Xi87khRqfhDL1KlTkZGRITuGyVSoUAH79+/H7t27lbJly6qmQf0rRVGU7t27K9euXUO/fv1kxzGZrVu34sGDB1Y1q5qYmCg7gtk0bdoU58+fR8uWLU1+nvytUX3x4oUICwuTvb3Z1qZNGxQvXlyVHx5ERERkWh4eHsqCBQuUS5cuoU2bNrLjWJxal9XGxcWJTZs2yY5hEjqdDmPHjsWFCxdy/yAYC3F3d1dWrlyprFu3Di4uLrLj5FpqaiqWLl0qO4ZJvXjxQnYEk9Pr9Zg6dSp++eUXFCxY0Cznyt8a1dDQUE09Tnzw4MGyIxAREZGFlS9fXtm9e7dy6NAhVK5cWXYci5FwW2S2rFmzBqmpqbJj5JqPjw/27duHr7/+2qTLFy2lR48eytmzZxEYGCg7Sq4tWbIEKSkpVjOramNjIzuCSRUrVgy//vorPv/8c8XYV89kx98a1RMnTsje7myrUKECmjZtKjsGERERSdK0aVMlLCwMK1euRMGCBWXHMTsPDw/ZEf5FCGEVr6Np3bo1Ll++rJlZ1NcpV66ccurUKbz33nuyo+TKo0ePsHXrVtkxTMbOzk52BJPp2LEjwsPDUa9ePbOfK39rVM+fPy9727Nt8ODBkPHENSIiIlIPnU6n9OvXT4mOjsb06dPh6uoqO5LZeHl5yY7wL4cOHUJ0dLTsGLnSt29f/Pjjj/D29raKcaWjo6Oyfft29O3bV3aUXFmzZo3sCCajxnM3pxwcHDBv3jxs377dYg+y/VujeunSJdn7IFucnZ3Rs2dP2TGIiIhIJZycnJTg4OCXD5axtqV2AODu7i47wr8sW7ZMdoRcCQ4OxqpVqxS9Xm8VTer/2NjYKCtXrsSIESNkRzHasWPH8Mcff1jF8l+tP7G8fPnyCA0NxbBhwyz6aqaXjeqLFy+EVr4R69SpE1xdXa3qA4WIiIhyr1ChQsrKlSuVsLAwNG/eXHYck/L09JQd4W9iY2PFrl27ZMcwik6nw7JlyzB9+nSrHU8qiqLMmTNHGTVqlOwoRjEYDLCWh3T5+fnJjmC0Pn364P/ufbb4ufKyUY2IiEBmZqbsfZEtvXv3lh2BiIiIVCwwMFA5cOCAsn//flSqVEl2nFxzcnKCvb29qpqqbdu2qfZJxFmZPXs2+vfvr6r9aS4zZ85Et27dZMcwysaNG2VHMIkyZcrIjpBjbm5u2LBhA1avXq04OztLOVdeNqpamU0tXrw4GjVqJDsGERERaUCLFi2U8PBwrFixQtMPXMqXL5/sCP+i1dnUYcOGYfjw4XmiSQX+O7O6cuVK1KlTR3aUHDt//jyuXLmi+eW/ZcuWlR0hR2rUqIFz586hW7duUs+Tl43qjRs3ZO+TbOnevTvM+RhkIiIisi42NjbKRx99pERFRWHChAlwdnaWHSnHihYtKjvC3zx9+lQcO3ZMdowc69ixI+bMmSM7hsU5OjoqP/30E4oXLy47So7t3r1bdoRc09KMar169fD777+jdOnS0vstzTWqHTp0kB2BiIiINMjZ2VmZOHGicv36dfTv319TD1wqUaKE7Ah/s2/fPs0t+61QoQLWrVuXZyc8ChQooGzYsEFTxz0AHDhwQHaEXCtRogRsbW1lx8gWX19f2NnZqeIcedmo3rx5U3aWLPn5+aFatWqyYxAREZGGFSpUSFm2bJmyd+9e2VGyTW0zYT/++KPsCDmi1+vx3XffwcnJSRUDcFnq1aunuYcr/f7770hMTNT08l9bW1tFbefw66jpmUUvG9WYmBjZWbLUrl07vjuViIiITKJUqVKyI2Sbmga5aWlpQmuzXF9++SVq1arFMSSAr776CoGBgbJjZFt6ejpCQkJkx8i1cuXKyY6QLQaDQXaEl3QAIIQQDx48kJ0lSy1atJAdgYiIiKyEnZ2d7AjZpqZG9bfffkNiYqLsGNlWs2ZNjB07VnYM1bC3t1fWrFmjqSXA+/fvlx0h19io5pwOABISEpCSkiI7yxspioK6devKjkFERERWgo2qcY4fPy47Qo7MmzcPer2es6l/Ua1aNaVHjx6yY2SbFh/c9U9aefKvEOpZZa0DgNjYWNk5slSmTBnkz5+fHzJERERkElppVG1sbFCkSBHZMV4KDQ2VHSHb2rVrh3r16nH8+ApfffUV7O3tZcfIlqtXr2r+PtXy5cvLjpAtqptR1cKyXy2++4mIiIjUSyuD9IIFC6rmKZxCCHH69GnZMbJFp9Nh0qRJsmOoVrFixZT+/fvLjpEtBoMB4eHhsmPkilaW/qruYUqPHj2SnSNL1atXlx2BiIiIrIhWGlU/Pz/ZEV6KiopCfHy87BjZ0rVrV1SuXFkVDb5affHFF3B0dJQdI1vOnDkjO0Ku+Pj4KO7u7rJjZEl1M6pPnz6VnSNLpUuXlh2BiIiIrIher1d0Ol3u/yAzU9Oy35MnT8qOkG1Dhw6VHUH1fHx8lI4dO8qOkS1ab1QBdZ3Lr6O6RlULT24rU6aM7AhERERkZbRwn6qaBrdauT81MDCQr6PJpo8//lh2hGwJCwuTHSHX1HQuvw4b1RyysbFBsWLFZMcgIiIiK6OFRrVw4cKyI7yklfsE+/XrJzuCZjRs2FATT6S9ffs20tPTNf1AJTaqOaOJRrVYsWKqeYgAERERWQ8t3KeqpntUb968KTtClhwcHKClV6/IpiiKooXGPiMjAzExMbJj5IoWGlXVPUxJ7feoauGHSkRERNqjhRlVtYyDnj9/LrTwAM6mTZvCy8uLExw50KFDB9kRsiU6Olp2hFxR05dOr6O696iqfUa1QIECsiMQERGRFWKjmn1amE0FgGbNmsmOoDllypRRSpQoITtGlrTeqPr6+sqOkCXVLf39888/Zed4IzaqREREZA5qX/prY2OjmsHtrVu3ZEfIFjaqxtHCfrtx44bsCLni6ekpO0KWVNeoqn1G1dvbW3YEIiIiskJqb1R9fX2h1+tVsYxVCzOqPj4+CAgIkB1Dk7TQqMbGxsqOkCteXl6yI2RJdfeockaViIiI8iK1L/3Nnz+/7AgvaWFGtWnTplAURRWNvdY0atRIdoQsPX78WHaEXOGMas5oYkZVTR/SREREZD3UPqPq7u4uO8JLWpjNqlmzpuwImuXj46OofRVjfHy87Ai54uHhAbV/j8JGNYfU9CFNRERE1kPtM6oeHh6yI7z07Nkz2RGyVK1aNdkRNK1cuXKyI7yR1mdU9Xq94uLiIjvGG6mqUU1JSRFpaWmyc7yRq6ur7AhERERkhdioZt/z589lR8hShQoVZEfQNLXvP63PqAL/fc+vmqmqUU1OTpadIUtsVImIiMgc1L7019nZWXaEl9Q+o+ro6MgHcOaS2hvV5ORkpKSkqOdFn0ZQ+5djqnqYUkpKiuwMWWKjSkREROag9kGjra2t7Agvqb1R9fPz44OUcsnPz092hCylpqbKjpArav/MEUI93wPotPDDVvtabiIiItImtc+o6vV62RFeUnujqoUnqqqdm5ub7AhZysjIkB0hV9ioZp8mGlXOqBIREZE5qH3QqKYZVbXfo8qJjdxjo2p+av/MsbGxkR3hJdUv/bWzs4OdnR2XcRAREZHJqX3QqCbp6emyI7yRmpp6rdJCo6r2h8BqnU6nkx3h/2dR+4yqmh4iQERERNZF7Ut/1TQod3R0lB3hjdS0r7RKTU98fR2tz6iq/ThV1Yyq2htVtV9AiIiISLvUPqOqpkGt2htVta8S1IIXL17IjpAlNd23bQy1915q2r+qX/rLRpWIiIjMRe2NqpoGtWp//6M1vGNTtqSkJNkRsuTk5CQ7Qq6o6cunV+HS3xxQ+wWEiIiItEvtX4ir6X33ap9RffjwoewImqeFRlXtX5hkRe33enPpbw6o/QJCRERE2qX2L8QTEhJkR3hJ7Y3qn3/+icTERPW8W0ODYmJiZEfIktqPw6yovfdSVaPKpb9ERESUV7FRzT4tzGRdu3ZNdgRNu3HjhuwIb2Rvbw+dTqfZt4FkZmYKtb+PWFWNqtq7erVfQIiIiEi71P6F+JMnT2RHeEkL77W/cuWK7AiapvZG1d3dXXaEXHn69CmEUPekv5pe86T6RlXtFxAiIiLSLrV/Ia6mGdXChQvLjpCl0NBQ2RE0LSIiQnaEN/L19ZUdIVfUdD6/jppWTnDpLxEREeVZam9U4+LikJaWpoopGD8/P9kRsvT777/LjqBZDx48EDdv3pQd443YqJqfmp6qzBlVIiIiyrPU3qgaDAbExsbKjgFAGzOqERERePjwoSoae63RQpPv4+MjO0KuaKFRVdWMKhtVIiIiyqu0MM64e/eu7AgAtDGjajAYsG/fPtkxNEkLjarWZ1QfP34sO0KWVNWoqv1dPlq4gBAREZE2qX1GFVBPo1q0aFHZEbJl586dsiNo0q5du2RHyJIWvix5E7Wcy2+iqqW/GRkZsjO8kRYuIERERKRNWhhnqGVwW758eej1etkxsvTzzz/j3r17XP6bA+fOnRNqf+IvAJQrV052hFy5d++e7AhZUtWMqtobVc6oEhERkbloYZyhlkbV3t5eKVu2rOwYWcrIyMCaNWtkx9CUbdu2yY6QLVo4/t7k/v37siNkSVWNKpf+EhERUV7FGdWcqVy5suwI2bJy5UpkZmZyVjUbMjIyxKZNm2THyJKDg4Nmlp+/jprO5dfx8PCQHeElzqgSERFRnsVGNWcCAwNlR8iWmJgYHDhwQHYMTfjhhx9w584d2TGyVLp0adjY2Ciyc+SGFpb+enp6yo7wEmdUiYiIKM/SwjhDTU2EVmZUAWD69OmyI2jCggULZEfIloCAANkRciU1NVU8ePBAdowseXl5yY7wkupnVLXwTScRERFpkxbGGfHx8UhOTlbFMta6devCxsZGdoxs+e233/Djjz+qYr+p1alTp4QWXksDALVq1ZIdIVdu3ryJzMxM2TGypKoZVbU3qlr4ppOIiIi0SQvjDCGEapb/enh4KFqaVR0zZgzS09PZrL7GZ599JjtCttWtW1d2hFyJjo6WHSFbeI9qDmjhm04iIiLSJq2MM2JiYmRHeOntt9+WHSHbIiMjsXLlStkxVOnHH38Uv/32m+wY2WJra4sqVarIjpErUVFRsiNkS4ECBWRHeIn3qBIREVGepZVG9fbt27IjvNSkSRPZEXJk4sSJiIuL46zqX6SlpYkxY8bIjpFtgYGBcHR01PSDlLQwo+ro6AgfHx/ZMV5S/YwqG1UiIiIyF62MM9Q0o9qgQQPo9XrZMbLt0aNH+Pjjj2XHUJXJkycjMjJSdoxsa9iwoewIuaaFGdXAwEAoiqKaLwRU36ja2trKjkBERERWKjw8XHaEbFHTjKqbm5vSqFEj2TFy5KeffsLy5cs5qwogPDxczJgxQ3aMHGnZsqXsCLmmhUb1zp07ePbsmWrOE9Uv/WWjSkRERKZ2//590atXL6GVmRo1NaoA0LlzZ9kRcmzkyJGIjIxUzSBchuTkZNGrVy+offz/V46Ojnjrrbdkx8iVlJQUoZYHor1JbGwsBg4cCIPBoIrzRPWNqlbuHSEiIiL1S09PF/PnzxcVKlTAunXrIIQqxmNZUtPSXwDo0KGDZl5T8z9JSUno2rUrnj9/ro0fuhn0798fly9flh0jRxo1amQV96caDAbZMbJl48aN+Pjjj1XRrHLpLxEREeUJhw4dElWqVMHw4cORmJgoO06O3L9/H2lpadIHjv/j4+OjaHGWKzw8HEFBQXnylTWzZs0S69evlx0jx1q0aCE7Qq5pYdnvX61evRr9+/eX3qyyUSUiIiKrdv36ddG6dWvxzjvvICIiQnYcoxgMBty/f192jL8JCgqSHcEo+/fvx8cffwyhlel0E9i9e7emnvL7P4qioGPHjrJj5JrWGlUAWLVqFQYPHozMzExp54nql/6yUSUiIiJjJCUliYkTJ4rAwEDs27dPdpxci4+Plx3hb7p27QonJyfZMYyydu1afPHFF7JjWMShQ4fE+++/j8zMTNlRcqxBgwYoWrSoppf9AsD169dlRzDKkiVL0KZNGyQmJkppVjmjSkRERFZFCCHWrl0rypQpg6+++gqpqamyI5nEkydPZEf4G09PT6VTp06yYxht2rRpGD9+vLDmmdWjR4+K9u3bIyUlRXYUo3Tp0kV2BJNQ28PQcmL//v1o1KgR/vjjD4ufJ6qfUeXDlIiIiCi7wsLCxFtvvYXevXsjNjZWdhyTUlujCgADBgyQHSFXpkyZgn79+iEjI8PqmtVdu3aJtm3b4sWLF7KjGEWv12t2efk/PXz4UHaEXDl//jxq1aqFM2fOWPQ80al9GYCWXihNREREcjx8+FD069dP1KxZE7///rvsOGahxka1fv36SqVKlWTHyJU1a9agffv2SEpKsppmdf78+aJjx45ISkqSHcVoLVq0QP78+TW/7BcAHj16JDtCrsXGxqJx48bYsWOHxc4TLv0lIiIizUpPTxdz584V5cqVw+rVqzXzCghjqLFRBYCBAwfKjpBr+/btQ+PGjXHz5k1NN6upqali0KBBYvjw4Zq8J/WvPv30U9kRTOb58+eyI5jEixcvEBQUhNGjRwtLrELQqX1ZPhtVIiIiepXDhw+LKlWqYOTIkfjzzz9lxzG7hIQE2RFeqW/fvihYsKDsGLl29uxZVKlSBcuXL1f34Pg1rl27JurWrYtvv/1WdpRcK1WqFFq2bCk7hslYy33yACCEwKxZs9C4cWOz37eqU/s3j2xUiYiI6K/u3LkjgoKCRLNmzTT7uhlr4uDgoAwbNkx2DJN49uwZBgwYgA8++EAkJCRoomE1GAzi22+/FdWrV0d4eLjsOCYxaNAg6HQ6q1j2C/y3ubM2v//+O6pVq4ZffvnFbBvHGVUiIiLShPT0dDFlyhRRoUIFbN++XXYci1Pzczs+/fRTeHl5yY5hMlu3bkVgYCDWr18vDAaDagfLp06dErVr18agQYM0+9Ckf3J2dkafPn1kxzD5NlmjuLg4tGrVChMmTBDmeN8qG1UiIiJSvbCwMFGjRg2MHz/eagbkOeXg4CA7wmu5uroqQ4cOlR3DpP744w/07NkTNWvWxOHDh1U1YL5165bo3bu3qFevHs6ePSs7jkkNHDgQHh4eVjObCgDu7u6yI5iNwWDApEmT0KJFCzx8+NCk54nql/7y9TRERER5V3p6upgxY4aoW7cuLl68KDuOVGq/D3To0KHw9PSUHcPkwsLC0KxZM7Rq1UqEhoZKbVivXLkievbsKcqWLYu1a9da3ZJSZ2dnjB49WnYMkytZsqTsCGZ3+PBhVKpUCQcOHDDZQan6GVU1L3MhIiIi8zlz5oyoUqUKxowZg7S0NNlxpFN7o+rp6alMmDBBdgyz2b9/P+rUqYN69eqJjRs3iuTkZIsMopOTk8WmTZtEy5Ytxf8tR4ba39phrE8++QQ+Pj5WNZsKABUqVJAdwSLi4uLw7rvv4ssvvzTJUmClcOHC4t69e7K367VevHgBR0dHqztgiYiI6PWWL18uhgwZwgb1L2JiYlC0aFFVj4nS09NFpUqVEBkZKTuK2bm5uaFz585477330LRpUzg5OZnsZ5OYmCiOHj2K3bt3Y9u2bUhMTJS9uWbn7OyMmzdvokCBAqo+xo2xYcMG0aNHD9kxLKphw4bYuHEjChcubPTPUylUqJC4f/++7G15rfT0dOj1eqs7YImIiOjfEhMTRb9+/fLkw5LexNfXF7GxsZoYD+3evVu0a9dOdgyLcnR0RN26dVG/fn3UqVMH/v7+KFasGBRFydbP7O7du+LChQs4d+4cDh8+jJMnT1rtrOnrjB8/HpMmTdLEMZ5TDx8+FH5+fnnuZ5o/f36sXbsWrVq1MurnqhQsWFDExsbK3o5Xh1MUGAwGqzxgiYiI6O8uX74sOnbsiKioKNlRVGfAgAFYunSpZsZE77zzjjh06JDsGFI5OzujaNGiKFCgAAoUKAC9Xg9XV1ekpKQgOTkZCQkJuH//Pm7fvp1nHxD2P0WKFMG1a9dMOiutNu3btxe7du2SHcPiFEXB6NGjMXXq1BxPPio+Pj7i4cOHsrfhlezs7JCammq1BywRERH914kTJ0Tr1q3x9OlT2VFU6bfffkODBg00Mya6fv26qFKlCpKTk2VHIQ3YsmUL3n//fc0c38Y4cuSIaNq0qewY0tStWxebN2/O0e0Lqn6YEl9NQ0REZP0OHDggmjdvzib1NRo3bqypJhUAypYtq0ycOFF2DNKABg0aICgoSHYMs2vSpInSvHlz2TGkOXnyJKpVq4ajR49mu/lU9etp2KgSERFZt59++km0a9cOSUlJsqOokl6vxzfffCM7hlFGjhyJmjVryo5BKmZvb48lS5Zk+15erVu4cCGcnZ1lx5AmPj4eLVq0wLJly7LVrHJGlYiIiKQ4f/686N69O5/s+wYTJ05EjRo1NDmI1+v1ytq1a+Hg4CA7CqnUxIkTUbFiRU0e38YoW7asMnv2bNkxpEpPT8fAgQMxZMgQkZGR8cZGlI0qERERWdyjR49E+/btOZP6Bh988AHGjh0rO0auVKhQQfnyyy9lxyAVqlOnDkaPHi07hsUNGDBAGThwoOwY0i1atAjvv/8+0tLSXtuMcukvERERWZQQQnTt2hV37tyRHUW12rdvj3Xr1kGn02l+tik4OBgtWrSQHYNUxMHBAatWrYKNjY3mj29jLFy4EG3btpUdQ7qdO3fivffeQ3Jy8iubVc6oEhERkUWtXbsWR44ckR1DtQYMGIDt27fD1tbWKgbxOp1O+f7771GoUCHZUUglZs2aBX9/f6s4vo2h1+uVbdu2oXXr1rKjSPfzzz+jdevWr2xWOaNKREREFpOeni74NNhXs7e3x/z587F06VIlp+8bVLsCBQoomzZtgl6vlx2FJOvSpQsGDRpkVce3Mezt7ZUdO3agZ8+esqNId/ToUfTt2xfiHzOonFElIiIii9mxYwdiYmJkx1CdMmXK4MSJExg6dKjVDuAbNmyoTJo0SXYMkiggIAArV66UHUM17O3tlbVr12LKlCnIIw8+fq3Nmzdj2rRpf/t3bFSJiIjIYtavXy87gqrodDoMGzYM58+fR7Vq1ax+pDpmzBjOIOVRLi4u2LZtG5ydna3+OM8JRVGUL774QtmyZQscHR1lx5Fq/PjxOHjw4MvmlEt/iYiIyCLS09PFr7/+KjuGavj7++PXX3/FvHnzFCcnpzwxeFcURVmxYgUaNmwoOwpZkI2NDTZs2IAKFSrkiePcGEFBQUpISEievpfbYDBgwIABL+9XVXWjamdnJzsCERERmcidO3fw/Plz2TGkc3JywoQJExAWFoYGDRrkuYG7vb29snPnTpQtW1Z2FLKQefPmoV27dnnuWM+pWrVqKRcuXMjTD1m6desWvv32WwCATnaYN+EN90RERNbj0aNHsiNI17VrV0RFRWHixImKvb19nh24e3l5KXv27IG3t7fsKGRmY8eOxeDBg/PssZ5T3t7eyu7du/HNN9/k2dWlc+bMQUZGhuCMKhEREVnEgwcPZEeQJiAgAEeOHMHGjRuVQoUKcdAOoEyZMsovv/wCT09P2VHITHr27ImpU6fKjqE5iqIoo0aNUo4fP44SJUrIjmNx9+/fx6FDh/gwJSIiIrKM5ORk2REszt3dHXPmzEF4eDjefvttNqj/ULVqVeXw4cNsVq1Qp06dsGrVKih5/XG2uVCrVi0lPDwcQUFBsqNY3IEDB9R9jyobVSIiItIiRVHQu3dvREZGYsSIEYqtrS0H669RtWpVZe/evXB1dZUdhUykc+fO2LRpE3jc5567u7uydetWZdmyZXBycpIdx2LCwsKg0+nUe5sqG1UiIiLSmpo1a+LkyZNYs2aN4uPjw4F6NtStW1fZtWsXXFxcZEehXAoKCmKTagb9+/dXzpw5g0qVKsmOYhG3bt1io0pERERkCl5eXpg3bx5OnjyJ2rVrc5CeQ40bN1aOHDmC/Pnzy45CRurWrRs2btwIvV7P498M/P39ldOnT2Po0KGw9hXVz58/h87GxkZ2jtdio0pERERqp9frMXToUNy4cQPDhg1TbGxsrHsEaUY1a9ZUTp06hdKlS8uOQjk0dOhQrFu3jk2qmTk4OCjz589Xtm/fDg8PD9lxzEan00FxcXERan2nWfny5flCaCIiIisRHR2NI0eOyI5hUk2aNMH8+fNRsWJFDs5N6MGDB6JVq1Y4f/687CiUBRsbG8yfPx+DBg3iOWBh0dHRonPnzrhw4YLsKCZXpkwZKG5ubiIxMVF2FiIiIiLNKFy4ML7++mv07NmTTzU1k6dPn4quXbti//79sqPQazg7O2PDhg1o3749zwFJUlJSxJAhQ7By5UrZUUyqRYsW6l76S0RERKQmDg4OGD9+PK5fv45evXopbFLNx8PDQ9m3bx+mT59u9ffjaVHp0qVx4sQJNqmSOTg4KCtWrFCWLVsGe3t72XFMpmLFilC8vb3F48ePZWchIiIiUjU7OztcvnwZZcqU4cDcwnbt2iV69uwJrgJUh9atW2PdunXw9PTkuaAiv//+u+jQoQPi4uJkR8m1PXv2cEaViIiIKDvS0tJ4z6Qk7dq1U44fP44yZcrIjpKn6XQ6TJo0Cbt372aTqkL169dXQkND4e/vLztKrtja2qJRo0bqfj0NERERkZpMmTIFBoNByM6RF1WqVEm5cOEChg4dKjtKnlSsWDEcPnwY48eP55J3FStRooRy4sQJ1KhRQ3YUo9WpUwcuLi4KZ1SJiIiIsunixYvYtGmT7Bh5lqOjozJ//nzl559/hq+vr+w4eUZQUBDCw8PRuHFjNqga4O7urvz000/Qap/Xrl07AOCMKhEREVFOjBs3DmlpaZxVlahly5ZKeHg4WrVqJTuKVfPx8cFPP/2ErVu3Klzqqy3Hjh1DZmam7Bg5ptfr0aNHDwDgPapEREREOXH79m2sWLFCdow8z9fXV9m3b5+ya9cu+Pn5yY5jdd59912Eh4ejXbt2bFA1xmAwiBkzZsiOYZQ2bdrA19dXATijSkRERJRjX331FRITEzmrqgJt27ZVLl26hE8//RQc1+Ze0aJFsW3bNuzdu1cpWLAgm1QN2rRpk2Yf/NavX7+Xv9bp9XrZeYiIiIg0JS4uDjNnzpQdg/6Ph4eHsnjxYuXkyZOoXr267DiaZG9vj88//xwRERHo3LkzG1SNSktLE19++aXsGEbx8/NDy5YtX/4zZ1SJiIiIjDB37lzcu3ePs6oqUqtWLeXMmTPYunUrX2WTA02aNEFYWBimTp2qODs7s0nVsGXLluHmzZuyYxhlxIgR0Ov1L48/NqpERERERnjx4gXGjx8vOwb9g6IoSlBQkHLlyhUsWrQIPj4+siOpVpUqVfDTTz/h8OHDir+/PxtUjXv69KmYNGmS7BhG8fLywscff/y3f8eHKREREREZae3atQgLC+OsqgrZ2toqgwYNUqKjozF16lR4e3vLjqQatWrVwq5duxAWFsaHJVmRSZMm4fHjx7JjGGXw4MFwdXX927GoVK1aVYSHh8vORkRERKRJzZs3x4EDBzjYV7mkpCSxcuVKfPPNN7h3757sOFLUr18fwcHBaNu2LY9XKxMVFSUqVqyItLQ02VFyzMnJCTExMfD29v7bcamzt7eXnY2IiIhIs3755RccOHCAs6oq5+zsrAwbNkyJjo7G4sWLUbJkSdmRLLXd6NOnD06dOoXjx48rbFKt0+jRozXZpALAgAED/tWkAoDSuHFjERISIjsfERERkWYFBgYiLCwMNjY2bAI0IjMzU+zcuROzZ8/GqVOnZMcxKRsbGzRp0gRdunRBp06d4O7uzuPSih09elQ0adJEdgyjuLi4IDo6Gj4+Pv86RnWOjo6y8xERERFp2sWLF/H999/LjkE5YGNjo3Tu3Fk5efKkcuLECfTu3RsuLi6yYxnNy8sLH3zwAdasWYP79+/jl19+Ufr27auwSbVuBoNBjB49WnYMo/3nP/95ZZMKAErHjh3FDz/8IDsjERERkaYVKlQI169fB1/voV1JSUli+/bt2L59O0JCQvD8+XPZkV7J3t4eZcuWRWBgIOrWrYu33noLAQEBnNHPg1asWCH69+8vO4ZRvL29cePGDbi5ub26Ue3evbvYsGGD7JxEREREmjd58mSMGzeOzYIVSEtLEydOnMCxY8dw5coVXL16FZGRkRa5D1BRFHh7e7+skiVLokKFCihfvjz8/f1RsmRJNqWEZ8+eiXLlyiE2NlZ2FKPMnj0bI0eOfO1xrHz00Udi5cqVsnMSERERaZ6rqyuioqJeu5SNtE0IIR4/foz/VVxcHDIzMwEASUlJf2tik5OTkZKS8q8/w8XFBba2tgAAd3d36HQ66HS6l01p/vz54e3tDZ1Ox2OI3ujzzz8X06ZNkx3DKH5+foiKioKDg8Nrj3O9ltfiExEREanJs2fPMH78eCxfvlx2FDIDRVGU/PnzI3/+/LKjUB53+/ZtMXfuXNkxjDZ58uQ3NqkAoPPw8JCdk4iIiMhqrFq1CmFhYXxdDRGZzX/+859XzthrQZUqVdCrV68s/zu9l5eX7KxEREREVsNgMOCzzz7DoUOHZEd5KSYmRly8eBExMTFISkoC8N+HP/n7+yMgICDLmQ0ia3L//n1x69YtJCcnAwB8fHxQuHBheHl5aeI8OHjwoKYfhjtv3rxsLW3Xe3p6ys5KREREZFUOHz6M3bt3i7Zt20oZ+AohxPHjx7Fx40bs3bsXd+/efe1/6+zsjBYtWoguXbqgQ4cO0Ov1mhisE2VXamqq2L17N7Zu3Ypff/0Vjx49euV/V7RoUVGrVi288847ePfdd+Hn56e6cyEtLU0MHTpUdgyjdejQAY0aNcreft2zZ48AwGKxWCwWi8UyYZUrV06kpaUJIQQsVYmJiWL+/PmidOnSRmX28/MTs2bNEsnJyRbNzWKZoxISEsTkyZOFt7d3js8FRVFE/fr1xZIlS0RCQoJqzoeZM2dK/2wztuzs7ERUVFS29yXOnj0rPTSLxWKxWCyWNda8efMsMsBNTEwUkyZNEh4eHibJXaRIEbF27VphMBhUM0BnsbJbGRkZYunSpUY1qK8qFxcXMXjw4Bw1Weaoe/fuCVdXV+mfa8bWyJEjc7T/EB8fLz00i8VisVgsljWWl5eXiI+PN9vgNi0tTcyZM0fky5fPLPkbNmworl69ymaVpZm6efOmaNCggVnOB51OJ9q3by+OHj0q5Zzo3r279M80Yyt//vziyZMnOWtUhRBwd3eXHp7FYrFYLBbLGmvYsGFmGdTu379flC9f3uz57e3txbRp00RGRgYbVpaq67vvvhNubm4WOa9r1Kghdu/ebbFz4tixY0JRFOmfZ8bW8uXLc7yvIIRA/fr1pYdnsVgsFovFssaytbUV165dM9mANjo6WrRr187i2/HWW2+JW7dusVllqa7i4+NFp06dpJzftWvXFgcOHDDreZGRkSEqV64s/bPM2KpRo4bIzMw0rlGdOnWq9A1gsVgsFovFstZq27Ztrgeyz549E2PGjBH29vbStsPd3V3s2LGDzSpLNXXixAlRtGhR6ed4gwYNzLYkeOHChdK3z9hSFEWcPHnSqP0CIQQePXokfH19pW8Ii8VisVgslrXWoUOHjBqsGQwGsX79elG4cGHp2wD8d+A5cuRIiz/RmMX653kxc+ZMYWtrK/2c+Gs1adJE/P777yY7Nx49eiQ8PT2lb5ex1bt3b6P3xctfHDhwQOh0Oukbw2KxWCwWi2WNVbFiRZGenp6jQVtYWJjZHgyT26pfv774448/2KyyLF5xcXHi3XfflX4OvKlat24tzp07l+vzo1+/ftK3xdhyd3cXDx48yH2jKoTAihUrNH2TLovFYrFYLJaaa+7cudkatMXFxYkBAwYIGxsb6ZnfVAUKFDB6ppjFMqZ+/fVX4efnJ/3Yz04piiI6d+4srly5YtQ5ovUHKGX38y5bjaoQ/10DreUdwmKxWCwWi6XWcnNzE7Gxsa8dvKWnp4tFixYJLy8v6VmzWzY2NmLSpElGPSyFxcpupaamijFjxqj+y5tXlU6nEz179szRq55SU1OFv7+/9OzGVkBAQK5vD3jlv9y8ebNwcHCQvoEsFovFYrFY1lY9e/Z85eAtJCREBAYGSs9nbDVp0kQ8fPiQzSrL5HX16lVRvXp16cd4bkun04k2bdqI06dPZ3meTJkyRXre3JQpnoT82t84duyY2V4ezWKxWCwWi5VXS1EUcezYsZeDuMjISNGxY0fpuUxRxYoVE6GhoWxWWSYpg8EgFi5cKBwdHaUf26b+DHj33XfFb7/99spz5dq1a5re5qCgIJN8BrzxN+/evSveeecd6RvLYrFYLBaLZU0VGBgo7t+/LwYNGqS6p5bmtuzt7cXs2bOFwWBgw8oyum7fvi2aN28u/Xg2d1WpUkUsX75cPH/+XAjx3+X/tWvXlp7L2HJychIxMTHmb1T/903GokWLhLu7u/QNZ7FYLBaLxbKWsrYG9Z/VvHlzcf/+fTarrBxVZmammD9/vnBxcZF+DFuy3N3dRe/evUWPHj2kZ8lNTZ482WTnvCKEQHY8fvxYLF26FJs2bUJERES2/h8iIiIiyrvy58+PFStWoH379orsLKR+ERER4uOPP8aJEydkRyEjlCpVCpcvX4aDg4NJzvdsN6p/9fjxY3H69GlEREQgJiYGt2/fxu3bt/HkyRPEx8cjNTVV9n4iIiIiIpXo0aMH5s2bh3z58rFhpX9JSUkRM2bMwLRp09hHaNiuXbvQtm1bk53jRjWqWUlKShJPnjzBkydP8OzZM6SkpCAhIQHJyclITk7G06dP8eLFi5cHYlJSEtLS0nL96+fPnyM9Pd1c+56IiIiIjOTj44NFixahc+fObFbppV27dokRI0bg5s2bsqNQLrRq1Qr79u0z6bltlkZVjZ49eyYyMjJe+XsGgwF//vnna//flJQUJCcnv/b3ExMTkZmZmaM8xvw/xubLCSEEnj59apI/i8zHlMcPEZE1CA0NRUhIiOwYlA2dO3fGokWL4OPjw4Y1D4uKihLDhg3Dzz//LDsK5ZKdnR0uX76MMmXKsFElIiIi+qsHDx6IcuXKITExUXYUyoZ8+fJh3rx56NGjB5vVPCYhIUFMnz4d8+fP5zJfKzFu3DhMnjzZ5OcyG1UiIiKyCrNmzRKjR4+WHYNyoFWrVli2bBmKFCnChtXKpaWlie+++w7jxo1DXFyc7DhkIqVLl8alS5dM9gClv2KjSkRERFYhLS1NVKpUCdevX5cdhXLA3d0dkydPxieffAK9Xs+G1cpkZGSINWvW4KuvvsK9e/dkxyET++WXX/DOO++Y5bzVyd44IiIiIlOws7NT5syZIzsG5dCff/6JoUOHokaNGvjtt984g2Il0tPTxXfffSf8/f3Rv39/NqlWqFu3bmZrUgHOqBIREZGVad26tdi3b5/sGGSkNm3a4Ntvv+VyYI1KS0sTmzdvxuTJkxEdHS07DpmJu7s7IiIiUKhQIbOdp5xRJSIiIqsyZ84c2NnZyY5BRtqzZw8qVqyIuXPnioyMDM6oaMTz58/F3LlzRYkSJfDhhx+ySbVy06dPN2uTCnBGlYiIiKzQqFGjxOzZs2XHoFwqV64cFixYgObNm3N2VaViY2PFsmXLsHDhQjx58kR2HLKAWrVq4eTJk9DpdGxUiYiIiHIiMTFRlC1bFg8fPpQdhUwgKCgIU6dONfl7Gsl4J06cEPPmzcPOnTuRkZEhOw5ZiF6vx7lz5xAYGGj2c5FLf4mIiMjquLm5KV9//bXsGGQi27ZtQ0BAAAYOHCju37/PWRZJkpOTxXfffSdq164t6tevj23btrFJzWNGjBhhkSYV4IwqERERWSmDwSDq1q2L06dPy45CJuTk5IQhQ4YgODgYnp6enGG1gOvXr4vVq1dj5cqViI+Plx2HJClatCiuXLkCFxcXNqpEREREuXHixAnRoEEDcLxjfTw9PTFmzBgMGTIEjo6ObFhNLC0tTezcuRNLly7Fr7/+ynOIsGvXLrRt29Zi5xobVSIiIrJqPXv2FOvXr5cdg8ykcOHCGD9+PPr27QtbW1s2rLl07949sWzZMqxYsQIPHjyQHYdUomPHjtixY4dFzy82qkRERGTVHjx4IMqVK4fExETZUciMihYtii+++AJ9+/aFXq9nw5pD586dE/Pnz8fmzZuRnp4uOw6piKurKyIiIuDn52fR84oPUyIiIiKr5uvrqwQHB8uOQWZ2584dDBgwAJUqVcLWrVuFwWDgbEwWkpKSxJIlS0TFihVFjRo1sG7dOjap9C+TJ0+2eJMKcEaViIiI8oC0tDRRsWJFREVFyY5CFhIQEIAJEyagc+fOUBSFM6x/8ezZM7F69WpMnz6dy3vpjWrVqoUTJ07AxsaGjSoRERGROfz444+iQ4cOsmOQhdWpUwfz589HrVq18nyzmpSUJGbPno3Zs2dzKTxlyc7ODmfPnkWlSpWknDtc+ktERER5wnvvvac0a9ZMdgyysFOnTqFu3bro37+/ePz4cZ6coRFCiFWrVokyZcpgwoQJbFIpW8aMGSOtSQU4o0pERER5yNWrV0XlypV5H14e5enpiQkTJmDw4MFSljLKcOPGDdG/f38cOXJEdhTSkHLlyuH8+fNwcHCQdp5wRpWIiIjyjAoVKiiDBg2SHYMkSUhIwPDhw1GnTh2cPXvW6mdrVqxYISpWrMgmlXJEp9Nh9erVUptUgDOqRERElMckJiaK8uXLIzY2VnYUkkiv1+PLL7/E559/bnWzqxkZGeLTTz/FihUrZEchDRoyZAgWLFgg/Zxgo0pERER5zsaNG0X37t1lxyAVaNiwIbZv3478+fNLH5ibQnp6uujatSt27NghOwppUNGiRXH58mW4urpKPx/YqBIREVGe1KRJE3H06FHZMUgFSpQogb1796JChQrSB+e51a1bN7Fp0ybZMUij9u3bh1atWqniPOA9qkRERJQnLV26FPb29rJjkArcunULjRs3RmRkpKZncObMmcMmlYzWo0cP1TSpAGdUiYiIKA8bM2aMmDFjhuwYpBLly5fH+fPnYW9vr5rBenZdu3ZNVK5cGWlpabKjkAblz58fERER8Pb2Vs2xzxlVIiIiyrPGjx+PokWLyo5BKnHt2jXMmzdPdgyjDBs2jE0qGW3evHmqalIBzqgSERFRHvfDDz+ITp06yY5BKlG6dGlERUWpasCelZMnT4p69erJjkEa1bp1a+zZs0d1xzxnVImIiChP69ixo9KhQwfZMczGxsYGI0aMwOrVq+Hl5SU7jupFR0cjKipKUzM5CxculB1B02xtbfHee+9h8eLF+OCDD+Do6Cg7ksV4enpi2bJlsmO8EmdUiYiIKM+LjY0VAQEBSEhIkB3FpKpVq4bly5ejevXqCgA8ePBADBo0CD/88IPsaKq2YsUKfPTRR6qbYXqV58+fC29vb6SmpsqOojl2dnbo06cPgoODUaJEiZc/7ydPnogFCxZg4cKFePLkieyYZrVhwwZ069ZNlcc6Z1SJiIgozytYsKAyZ84c2TFMxtnZGbNnz0ZoaOjLJhUAfH19lR07dihbtmxBgQIFZMdUrcuXL8uOkG0HDx5kk5pDOp0OvXv3RnR0NJYuXar8tUkFAC8vL2XixIlKTEwMZs2ahYIFC8qObBZBQUGqbVIBNqpEREREAIDevXsrLVq0kB0j11q3bo0rV65g5MiRil6vf+Ug9P3331euXLmCrl27yo6rShEREbIjZNv+/ftlR9CUFi1aIDw8HGvWrFGKFCnyxibNxcVF+c9//qNER0dj2rRp8PDwkB3fZHx9ffHtt9/KjvFGbFSJiIiI/s/y5cvh6uoqO4ZRfH19sXbtWuzZs0cpVqxYlrMk3t7eysaNG5W9e/fCz89PdnxVuXr1quwI2XbmzBnZETTB398fu3fvxv79+5XAwMAczSI6OTkpY8aMUW7evIng4GCruId1xYoVqnvK7z+xUSUiIiL6P0WLFlWmTZsmO0aOKIqCnj174vLly+jVq1eOB57vvvuucvnyZfTv3x+Koupxq8Xcu3cPf/75p+of5JKWliauXLkiO4aq+fn5YdmyZbh48SLatGmTqwPc09NTmT59uhITE4Pg4GDY2dnJ3jyjfPTRR7neF5bAhykRERER/YXBYBDNmjXD0aNHZUfJkr+/P5YvX4769eubZND5888/iwEDBuDu3buyN026M2fOoEaNGqoezF+9elX4+/vLjqFKbm5uGDt2LIYNGwZHR0ez/ByvX78uxo8fj23btkErPVXx4sVx8eJFuLq6qvrYBjijSkRERPQ3Op1OWbduHfLlyyc7ymvZ2toiODgYYWFhJmtSAaBVq1bK5cuXMXToUOh0eXuY+ODBA9kRsnTr1i3ZEVRHp9OhZ8+eiIyMxJgxYxRzNakAULZsWWXLli3KxYsXERQUJHvTs7Vv1qxZo4kmFWCjSkRERPQvhQsXVlasWCE7xiu9/fbbuHz5MqZPn67Y29ubfMDp5uamzJ8/Xzl48CBKlCghe3OlefjwoewIWbp9+7bsCKrStGlThIeH4/vvv1d8fX0t1oxVrFhR2bp1q3L48GHUqlVL9m54reHDh6Nx48aaaFIBNqpEREREr9ShQwdlwIABsmO8VKRIEWzatAmHDx9G2bJlzT7YbNKkiXLp0iUMGTIkT86uaqFR1cKsryWULVsWP/30Ew4dOpTjByWZUpMmTZRTp07hxx9/RKVKlWTvlr+pUaMGvv76a9kxciTvfeoQERERZdO8efOkDzgdHR0RHByMiIgIdOnSRVEs+MQjZ2dnZcGCBcrx48eR1+6F1EKj+uTJE9kRpPLw8MD06dNx8eJFtGvXThUzhYqiKO3bt1cuXLiArVu3oly5crIjwcPDA1u2bIE5VmCYExtVIiIiotdwcHBQ1q9fD2dnZyl/f+fOnXH16lVMnz5dcXFxkTbIrFu3rhIWFoZx48bB1tZWVgyL0kKjmpCQIDuCFHq9HoMHD0Z0dDSCg4PNsgQ+txRFUYKCgpTLly9j9erVKF68uJQcOp0O3333HUqWLKm6fZRldtkBiIiIiNQsMDBQWbdunUWXv7Zo0QLHjx/Htm3bsvVOVEuwt7dXJk+erJw9exY1atSQHcfs4uLiZEfIUmJiouwIFqUoCjp06ICLFy9i4cKFSr58+VRxbryJXq9X+vTpo0RGRmLFihUWX5kwd+5ctG/fXvX76VXYqBIRERFloUOHDsq3335r1mZVURS0bdsWoaGh2L9/v2LKp/maUmBgoHLq1CnMmjVL2kyzJbx48UJ2hCylpaXJjmAxzZo1w6lTp/DDDz8oFSpUUOW58SZ2dnbKRx99pFy+fBn79+9H8+bNzfreYr1ej3nz5mHo0KGa21f/w0aViIiIKBsGDBig7Ny50+SvrXFwcEC3bt0QHh6OXbt2KbVq1VL9wNLGxkb5z3/+o1y9ehUdO3aUHccsUlJSZEfIUnp6uuwIZle7dm0cPnwYBw8e1MS5kRVFUZQWLVooBw4cUC5duoSPPvoILi4uJv07ihQpggMHDmDYsGGa3l9sVImIiIiyqV27dsrFixfRs2fPXM+G1KtXD8uWLUNsbCw2bNigVK5cWXODyiJFiig7duxQfv75Z5QqVUp2HJNioypXnTp1sHv3bpw8eRJNmjTR3LmRHQEBAcqKFSuUR48eYdu2bQgKCoKTk5PRf56DgwNGjBiBS5cuWcU+U4QQsjMQERERac61a9fEokWLsH379mw9eMfBwQH16tXDO++8g44dO1rkFTOWlJKSIqZPn44ZM2ZoosnLSvHixXHr1i1V/4zq1KkjQkNDZccwqUaNGmHcuHFo1qyZqve9uTx//lzs2bMH+/fvx2+//YabN29m+f+UK1cO3bt3R79+/VCoUCGr2W9sVImIiIhywWAwiIsXL+L8+fO4desW4uPjkZ6eDltbWxQsWBBFixZFpUqVEBAQAFtbW6sZRL5OTEyMGDt2LDZv3gwtjzN9fX0RGxur6p9X9erVRVhYmOwYuaYoClq3bo3g4GA0aNBA1fvc0uLj48Xly5dx48YNxMfHIz4+Hu7u7nB2dkbJkiVRrVo1q2pO/4qNKhERERGZXGhoqBg5ciROnDghO4pRPDw8kJCQoOoGIDAwUFy6dEl2DKPZ2dmhW7duGDVqFAICAlS9r8nyeI8qEREREZlc7dq1lePHj+OHH35A7dq1ZcfJsczMTNkRsqTVe1Td3NwwatQo3LhxA2vWrFHYpNKrsFElIiIiIrNQFEXp0KGDcurUKSUkJAQdOnSw6PtorZ3BYJAdIUcKFiyI6dOn486dO/jmm28UPz8/Nqj0Wlz6S0REREQWs3fvXtGhQwfVzwa6uroiMTFR1Y1UuXLlxPXr12XHyE5OjBo1Cj179oS9vb2q9ympB7/SIiIiIiKLad26tTJ48GDZMciCFi9ejI8++khhk0o5wUaViIiIiCzqww8/lB2BiFSOjSoRERERWVRgYCAKFCggOwYRqRgbVSIiIiKyKEVRlNKlS8uOQUQqxkaViIiIiCyuRIkSsiMQkYqxUSUiIiIii/P19ZUdgYhUjI0qEREREVmcm5ub7AhEpGJsVImIiIjI4tioEtGbsFElIiIiIotzdXWVHYGIVIyNKhERERFZnI2NjewIRKRibFSJiIiIyOLYqBLRm7BRJSIiIiKLY6NKRG+ilx2AiIiIiPIevV7dw9DMzEycO3dOyM7xJikpKbIjEJmNuj8hiIiIiMgq6XTqXtj34sUL1KhRQ3YMojxL3Z8QRERERGSVuPSXiN6EjSoRERERWRwbVSJ6EzaqRERERGRxbFSJ6E3YqBIRERGRxbFRzTvU/uAsUic2qkRERERkcWxU8w57e3vZEUiD2KgSERERkcWxUc07HBwcZEcgDWKjSkREREQWp/bX05DpcEaVjMFPCCIiIiKyOM6o5h1sVMkYbFSJiIiIyOLYqOYdbFTJGGxUiYiIiMjiuPQ372CjSsbgJwQRERERWRxnVPMOPkyJjMFGlYiIiIgsjo1q3uDo6AgXFxdFdg7SHjaqRERERGRxbFTzhgIFCsiOQBrFRpWIiIiILI73qOYN+fPnlx2BNIqfEERERERkcZxRzRs4o0rGYqNKRERERBbHRjVv8Pb2lh2BNIqNKhERERFZnLOzs+wIZAE+Pj6yI5BGsVElIiIiIovz8PCQHYEsoHDhwrIjkEaxUSUiIiIii3NxcVFsbW1lxyAzK1++vOwIpFFsVImIiIhICnd3d9kRyMzYqJKx2KgSERERkRReXl6yI5AZOTk5oUiRIrJjkEaxUSUiIiIiKUqWLCk7AplRuXLloNPpFNk5SJvYqBIRERGRFKVLl5YdgcyIy34pN9ioEhEREZEUpUqVkh2BzKhOnTqyI5CGsVElIiIiIin8/f1lRyAzatCggewIpGGKEEJ2BiIiIiLKg168eCG8vLyQmpoqOwqZmK+vL+7du8d7VMlonFElIiIiIimcnJyU+vXry45BZtCpUyc2qZQrbFSJiIiISJrmzZvLjkAmptPpMGTIENkxSOPYqBIRERGRNN27d4der5cdg0yoffv2KFeuHGdTKVfYqBIRERGRNH5+fkrXrl1lxyATsbGxwaRJk2THICvARpWIiIiIpJoyZQpcXV1lxyAT6NevHypWrMjZVMo1PvWXiIiIiKRbt26d6NWrl+wYlAslSpTAhQsX4OrqykaVco0zqkREREQkXc+ePZUpU6bIjkFG8vDwwM6dO9mkksmwUSUiIiIiVfjiiy+U5cuXw97eXnYUygEfHx/s27cPlStXZpNKJsNGlYiIiIhU4+OPP1bCwsLQqFEj2VEoG1q2bImwsDDUrVuXTSqZFBtVIiIiIlIVf39/JSQkRDly5Ajee+89vr5GZXQ6Hd5++20cPHgQP//8s1KoUCE2qWRyfJgSEREREalaXFycOHjwIA4dOoSDBw/ijz/+kB0pz3FyckL9+vXRtGlTdOnSBcWKFWNzSmbFRpWIiIiINCUqKkpcunQJkZGRuHr1Kq5du4bo6GgkJCTIjqZ5+fLlQ+HChVGsWDGUL18e/v7+qFixIgIDA2FnZ8fmlCyGjSoRERERWYWUlBQRFxeH2NhYPHr0CHFxcYiLi0NSUhKSk5Px559/vvx1YmIiUlNT8eLFCwCAEAJPnz59+Wc9f/4c6enpOc7wzz8nKzqdDu7u7jn6O1xcXGBrawsAsLGxgZub28vfc3Z2hp2d3d/+bL1eDzc3N3h4eMDd3R1ubm7/Ki8vL/j6+sLR0ZHNKKnC/wMBGJ/PjoLUDQAAACV0RVh0ZGF0ZTpjcmVhdGUAMjAxNy0wNi0xMlQwMzozNDo0MyswODowMN+vEoEAAAAldEVYdGRhdGU6bW9kaWZ5ADIwMTYtMDQtMjNUMDA6NDA6MDQrMDg6MDDsa+taAAAAVHRFWHRzdmc6YmFzZS11cmkAZmlsZTovLy9ob21lL2RiL3N2Z19pbmZvL3N2Zy9hMy9lOC9hM2U4M2ZjYjg3M2UzNDlhYzU4NWFjMzA3MzMzY2IxMS5zdmdkAAmbAAAAAElFTkSuQmCC;fontFamily=Times New Roman;fontSize=20;fontStyle=1" vertex="1" parent="1">
          <mxGeometry x="750" y="290" width="108" height="112.84" as="geometry" />
        </mxCell>
        <mxCell id="8oy2ZjV4FJxmVUqgHbTL-3" value="" style="rounded=0;whiteSpace=wrap;html=1;dashed=1;fontFamily=Times New Roman;fontSize=17;" vertex="1" parent="1">
          <mxGeometry x="-150" y="70" width="850" height="660" as="geometry" />
        </mxCell>
        <mxCell id="8oy2ZjV4FJxmVUqgHbTL-4" value="СППР" style="text;html=1;strokeColor=none;fillColor=none;align=center;verticalAlign=middle;whiteSpace=wrap;rounded=0;fontFamily=Times New Roman;fontSize=20;fontStyle=1" vertex="1" parent="1">
          <mxGeometry x="620" y="80" width="60" height="30" as="geometry" />
        </mxCell>
        <mxCell id="8oy2ZjV4FJxmVUqgHbTL-7" value="Принятие решения" style="rounded=0;whiteSpace=wrap;html=1;fontFamily=Times New Roman;fontSize=17;" vertex="1" parent="1">
          <mxGeometry x="710" y="150" width="170" height="80" as="geometry" />
        </mxCell>
        <mxCell id="8oy2ZjV4FJxmVUqgHbTL-13" value="Клинические рекомендация" style="rounded=0;whiteSpace=wrap;html=1;fontFamily=Times New Roman;fontSize=17;" vertex="1" parent="1">
          <mxGeometry x="90" y="-30" width="130" height="60" as="geometry" />
        </mxCell>
        <mxCell id="8oy2ZjV4FJxmVUqgHbTL-14" value="Медицинские пособия" style="rounded=0;whiteSpace=wrap;html=1;fontFamily=Times New Roman;fontSize=17;" vertex="1" parent="1">
          <mxGeometry x="275" y="-30" width="130" height="60" as="geometry" />
        </mxCell>
        <mxCell id="8oy2ZjV4FJxmVUqgHbTL-15" value="Методические указания" style="rounded=0;whiteSpace=wrap;html=1;fontFamily=Times New Roman;fontSize=17;" vertex="1" parent="1">
          <mxGeometry x="460" y="-30" width="130" height="60" as="geometry" />
        </mxCell>
        <mxCell id="8oy2ZjV4FJxmVUqgHbTL-16" value="Сбор, аккумуляция и обработка исходных данных" style="rounded=0;whiteSpace=wrap;html=1;fontFamily=Times New Roman;fontSize=17;" vertex="1" parent="1">
          <mxGeometry x="70" y="80" width="540" height="40" as="geometry" />
        </mxCell>
        <mxCell id="8oy2ZjV4FJxmVUqgHbTL-17" value="База данных" style="shape=cylinder3;whiteSpace=wrap;html=1;boundedLbl=1;backgroundOutline=1;size=15;fontFamily=Times New Roman;fontSize=17;" vertex="1" parent="1">
          <mxGeometry x="380" y="190" width="80" height="100" as="geometry" />
        </mxCell>
        <mxCell id="8oy2ZjV4FJxmVUqgHbTL-18" value="База знаний" style="shape=cylinder3;whiteSpace=wrap;html=1;boundedLbl=1;backgroundOutline=1;size=15;fontFamily=Times New Roman;fontSize=17;" vertex="1" parent="1">
          <mxGeometry x="210" y="190" width="80" height="100" as="geometry" />
        </mxCell>
        <mxCell id="8oy2ZjV4FJxmVUqgHbTL-32" value="" style="group;fontFamily=Times New Roman;fontSize=17;strokeWidth=3;strokeColor=default;" vertex="1" connectable="0" parent="1">
          <mxGeometry x="240" y="340" width="250" height="330" as="geometry" />
        </mxCell>
        <mxCell id="8oy2ZjV4FJxmVUqgHbTL-24" value="&lt;font style=&quot;font-size: 18px;&quot;&gt;Модуль работы с пациентами&lt;/font&gt;" style="swimlane;whiteSpace=wrap;html=1;fontFamily=Times New Roman;fontSize=17;startSize=50;" vertex="1" parent="8oy2ZjV4FJxmVUqgHbTL-32">
          <mxGeometry width="250.00000000000006" height="330" as="geometry">
            <mxRectangle x="20" y="290" width="90" height="30" as="alternateBounds" />
          </mxGeometry>
        </mxCell>
        <mxCell id="8oy2ZjV4FJxmVUqgHbTL-29" value="Функция поиска и просмотра сведений о пациенте" style="rounded=0;whiteSpace=wrap;html=1;fontFamily=Times New Roman;fontSize=17;" vertex="1" parent="8oy2ZjV4FJxmVUqgHbTL-24">
          <mxGeometry x="12.500000000000002" y="130" width="225.00000000000003" height="60" as="geometry" />
        </mxCell>
        <mxCell id="8oy2ZjV4FJxmVUqgHbTL-31" value="Функция изменения информации о пациенте" style="rounded=0;whiteSpace=wrap;html=1;fontFamily=Times New Roman;fontSize=17;" vertex="1" parent="8oy2ZjV4FJxmVUqgHbTL-24">
          <mxGeometry x="12.500000000000002" y="269.2105263157895" width="225.00000000000003" height="48.570789473684215" as="geometry" />
        </mxCell>
        <mxCell id="8oy2ZjV4FJxmVUqgHbTL-28" value="Функция поиска и просмотра пациентов" style="rounded=0;whiteSpace=wrap;html=1;fontFamily=Times New Roman;fontSize=17;" vertex="1" parent="8oy2ZjV4FJxmVUqgHbTL-32">
          <mxGeometry x="12.500000000000002" y="59.99842105263158" width="225.00000000000003" height="55.38789473684211" as="geometry" />
        </mxCell>
        <mxCell id="8oy2ZjV4FJxmVUqgHbTL-30" value="Функция добавления пациента" style="rounded=0;whiteSpace=wrap;html=1;fontFamily=Times New Roman;fontSize=17;" vertex="1" parent="8oy2ZjV4FJxmVUqgHbTL-32">
          <mxGeometry x="12.500000000000002" y="200.00263157894736" width="225.00000000000003" height="53.39052631578947" as="geometry" />
        </mxCell>
        <mxCell id="8oy2ZjV4FJxmVUqgHbTL-33" value="" style="group;fontFamily=Times New Roman;fontSize=17;strokeColor=default;strokeWidth=3;" vertex="1" connectable="0" parent="1">
          <mxGeometry x="-110" y="480" width="250" height="190" as="geometry" />
        </mxCell>
        <mxCell id="8oy2ZjV4FJxmVUqgHbTL-19" value="&lt;font style=&quot;font-size: 18px;&quot;&gt;Модуль работы с диагнозами&lt;/font&gt;" style="swimlane;whiteSpace=wrap;html=1;fontFamily=Times New Roman;fontSize=17;startSize=40;" vertex="1" parent="8oy2ZjV4FJxmVUqgHbTL-33">
          <mxGeometry width="250.00000000000003" height="190" as="geometry">
            <mxRectangle x="20" y="290" width="90" height="30" as="alternateBounds" />
          </mxGeometry>
        </mxCell>
        <mxCell id="8oy2ZjV4FJxmVUqgHbTL-26" value="Функция поиска и просмотра диагнозов" style="rounded=0;whiteSpace=wrap;html=1;fontFamily=Times New Roman;fontSize=17;" vertex="1" parent="8oy2ZjV4FJxmVUqgHbTL-19">
          <mxGeometry x="10.875000000000002" y="50" width="227.76136363636363" height="60" as="geometry" />
        </mxCell>
        <mxCell id="8oy2ZjV4FJxmVUqgHbTL-27" value="Функция просмотра сведений о диагнозе" style="rounded=0;whiteSpace=wrap;html=1;fontFamily=Times New Roman;fontSize=17;" vertex="1" parent="8oy2ZjV4FJxmVUqgHbTL-33">
          <mxGeometry x="11.409090909090907" y="120" width="227.22727272727275" height="60" as="geometry" />
        </mxCell>
        <mxCell id="8oy2ZjV4FJxmVUqgHbTL-39" value="" style="group;fontFamily=Times New Roman;fontSize=17;strokeWidth=3;strokeColor=default;" vertex="1" connectable="0" parent="1">
          <mxGeometry x="-110" y="150" width="250" height="310" as="geometry" />
        </mxCell>
        <mxCell id="8oy2ZjV4FJxmVUqgHbTL-25" value="&lt;font style=&quot;font-size: 18px;&quot;&gt;Модуль работы с записями приемов&lt;/font&gt;" style="swimlane;whiteSpace=wrap;html=1;startSize=50;fontFamily=Times New Roman;fontSize=17;" vertex="1" parent="8oy2ZjV4FJxmVUqgHbTL-39">
          <mxGeometry width="250" height="310" as="geometry">
            <mxRectangle x="20" y="290" width="90" height="30" as="alternateBounds" />
          </mxGeometry>
        </mxCell>
        <mxCell id="8oy2ZjV4FJxmVUqgHbTL-36" value="Функция просмотра сведений о диагнозе" style="rounded=0;whiteSpace=wrap;html=1;fontFamily=Times New Roman;fontSize=17;" vertex="1" parent="8oy2ZjV4FJxmVUqgHbTL-25">
          <mxGeometry x="12.5" y="130" width="225" height="50.25" as="geometry" />
        </mxCell>
        <mxCell id="8oy2ZjV4FJxmVUqgHbTL-38" value="Функция формирования клинических рекомендаций" style="rounded=0;whiteSpace=wrap;html=1;fontFamily=Times New Roman;fontSize=17;" vertex="1" parent="8oy2ZjV4FJxmVUqgHbTL-25">
          <mxGeometry x="12.5" y="60" width="225" height="60" as="geometry" />
        </mxCell>
        <mxCell id="8oy2ZjV4FJxmVUqgHbTL-34" value="Функция поиска и просмотра записей приема" style="rounded=0;whiteSpace=wrap;html=1;fontFamily=Times New Roman;fontSize=17;" vertex="1" parent="8oy2ZjV4FJxmVUqgHbTL-39">
          <mxGeometry x="12.5" y="250" width="225" height="49.31" as="geometry" />
        </mxCell>
        <mxCell id="8oy2ZjV4FJxmVUqgHbTL-37" value="Функция добавления новой записи приема" style="rounded=0;whiteSpace=wrap;html=1;fontFamily=Times New Roman;fontSize=17;" vertex="1" parent="8oy2ZjV4FJxmVUqgHbTL-39">
          <mxGeometry x="12.5" y="190" width="225" height="48.28" as="geometry" />
        </mxCell>
        <mxCell id="8oy2ZjV4FJxmVUqgHbTL-40" value="" style="group;strokeWidth=3;strokeColor=default;" vertex="1" connectable="0" parent="1">
          <mxGeometry x="520" y="230" width="160" height="240" as="geometry" />
        </mxCell>
        <mxCell id="8oy2ZjV4FJxmVUqgHbTL-6" value="&lt;b&gt;Пользовательский интерфейс&lt;/b&gt;" style="text;html=1;strokeColor=none;fillColor=none;align=center;verticalAlign=middle;whiteSpace=wrap;rounded=0;fontFamily=Times New Roman;fontSize=17;" vertex="1" parent="8oy2ZjV4FJxmVUqgHbTL-40">
          <mxGeometry x="12.5" y="105" width="135" height="30" as="geometry" />
        </mxCell>
        <mxCell id="8oy2ZjV4FJxmVUqgHbTL-10" value="Раздел ввода входных данных" style="rounded=0;whiteSpace=wrap;html=1;fontFamily=Times New Roman;fontSize=17;" vertex="1" parent="8oy2ZjV4FJxmVUqgHbTL-40">
          <mxGeometry x="20" y="20" width="120" height="60" as="geometry" />
        </mxCell>
        <mxCell id="8oy2ZjV4FJxmVUqgHbTL-11" value="Раздел вывода&amp;nbsp; рекомендаций" style="rounded=0;whiteSpace=wrap;html=1;fontFamily=Times New Roman;fontSize=17;" vertex="1" parent="8oy2ZjV4FJxmVUqgHbTL-40">
          <mxGeometry x="20" y="160" width="120" height="60" as="geometry" />
        </mxCell>
        <mxCell id="8oy2ZjV4FJxmVUqgHbTL-49" value="" style="endArrow=classic;startArrow=classic;html=1;rounded=0;entryX=1;entryY=0.5;entryDx=0;entryDy=0;exitX=0;exitY=0.62;exitDx=0;exitDy=0;exitPerimeter=0;" edge="1" parent="8oy2ZjV4FJxmVUqgHbTL-40" source="8oy2ZjV4FJxmVUqgHbTL-1">
          <mxGeometry width="50" height="50" relative="1" as="geometry">
            <mxPoint x="210" y="227" as="sourcePoint" />
            <mxPoint x="140" y="190" as="targetPoint" />
          </mxGeometry>
        </mxCell>
        <mxCell id="8oy2ZjV4FJxmVUqgHbTL-44" value="" style="endArrow=classic;startArrow=classic;html=1;rounded=0;entryX=1;entryY=0.5;entryDx=0;entryDy=0;" edge="1" parent="1" source="8oy2ZjV4FJxmVUqgHbTL-1" target="8oy2ZjV4FJxmVUqgHbTL-10">
          <mxGeometry width="50" height="50" relative="1" as="geometry">
            <mxPoint x="740" y="260" as="sourcePoint" />
            <mxPoint x="800" y="220" as="targetPoint" />
          </mxGeometry>
        </mxCell>
        <mxCell id="8oy2ZjV4FJxmVUqgHbTL-45" value="" style="shape=flexArrow;endArrow=classic;html=1;rounded=0;" edge="1" parent="1">
          <mxGeometry width="50" height="50" relative="1" as="geometry">
            <mxPoint x="154.71" y="30" as="sourcePoint" />
            <mxPoint x="155" y="70" as="targetPoint" />
          </mxGeometry>
        </mxCell>
        <mxCell id="8oy2ZjV4FJxmVUqgHbTL-46" value="" style="shape=flexArrow;endArrow=classic;html=1;rounded=0;" edge="1" parent="1">
          <mxGeometry width="50" height="50" relative="1" as="geometry">
            <mxPoint x="339.71000000000004" y="30" as="sourcePoint" />
            <mxPoint x="340" y="70" as="targetPoint" />
          </mxGeometry>
        </mxCell>
        <mxCell id="8oy2ZjV4FJxmVUqgHbTL-47" value="" style="shape=flexArrow;endArrow=classic;html=1;rounded=0;" edge="1" parent="1">
          <mxGeometry width="50" height="50" relative="1" as="geometry">
            <mxPoint x="524.71" y="30" as="sourcePoint" />
            <mxPoint x="525" y="70" as="targetPoint" />
          </mxGeometry>
        </mxCell>
        <mxCell id="8oy2ZjV4FJxmVUqgHbTL-48" value="" style="endArrow=classic;html=1;rounded=0;entryX=0.5;entryY=0;entryDx=0;entryDy=0;entryPerimeter=0;" edge="1" parent="1" target="8oy2ZjV4FJxmVUqgHbTL-18">
          <mxGeometry width="50" height="50" relative="1" as="geometry">
            <mxPoint x="250" y="120" as="sourcePoint" />
            <mxPoint x="490" y="130" as="targetPoint" />
          </mxGeometry>
        </mxCell>
        <mxCell id="8oy2ZjV4FJxmVUqgHbTL-50" value="" style="endArrow=classic;html=1;rounded=0;entryX=0.5;entryY=1;entryDx=0;entryDy=0;exitX=0.409;exitY=-0.027;exitDx=0;exitDy=0;exitPerimeter=0;" edge="1" parent="1" source="8oy2ZjV4FJxmVUqgHbTL-1" target="8oy2ZjV4FJxmVUqgHbTL-7">
          <mxGeometry width="50" height="50" relative="1" as="geometry">
            <mxPoint x="779" y="290" as="sourcePoint" />
            <mxPoint x="829" y="240" as="targetPoint" />
          </mxGeometry>
        </mxCell>
        <mxCell id="8oy2ZjV4FJxmVUqgHbTL-51" value="" style="endArrow=classic;startArrow=classic;html=1;rounded=0;entryX=0;entryY=0.5;entryDx=0;entryDy=0;" edge="1" parent="1" target="8oy2ZjV4FJxmVUqgHbTL-10">
          <mxGeometry width="50" height="50" relative="1" as="geometry">
            <mxPoint x="460" y="240" as="sourcePoint" />
            <mxPoint x="510" y="190" as="targetPoint" />
          </mxGeometry>
        </mxCell>
        <mxCell id="8oy2ZjV4FJxmVUqgHbTL-52" value="" style="endArrow=classic;html=1;exitX=0;exitY=0.5;exitDx=0;exitDy=0;exitPerimeter=0;curved=1;startArrow=classic;startFill=1;entryX=1;entryY=0.5;entryDx=0;entryDy=0;" edge="1" parent="1" source="8oy2ZjV4FJxmVUqgHbTL-17" target="8oy2ZjV4FJxmVUqgHbTL-25">
          <mxGeometry width="50" height="50" relative="1" as="geometry">
            <mxPoint x="170" y="290" as="sourcePoint" />
            <mxPoint x="100" y="250" as="targetPoint" />
            <Array as="points">
              <mxPoint x="320" y="310" />
              <mxPoint x="200" y="310" />
            </Array>
          </mxGeometry>
        </mxCell>
        <mxCell id="8oy2ZjV4FJxmVUqgHbTL-53" value="" style="endArrow=classic;html=1;curved=1;entryX=1;entryY=0.5;entryDx=0;entryDy=0;" edge="1" parent="1" target="8oy2ZjV4FJxmVUqgHbTL-19">
          <mxGeometry width="50" height="50" relative="1" as="geometry">
            <mxPoint x="250" y="310" as="sourcePoint" />
            <mxPoint x="160" y="460" as="targetPoint" />
            <Array as="points">
              <mxPoint x="170" y="340" />
              <mxPoint x="180" y="520" />
            </Array>
          </mxGeometry>
        </mxCell>
        <mxCell id="8oy2ZjV4FJxmVUqgHbTL-54" value="" style="endArrow=classic;html=1;curved=1;" edge="1" parent="1">
          <mxGeometry width="50" height="50" relative="1" as="geometry">
            <mxPoint x="250" y="310" as="sourcePoint" />
            <mxPoint x="240" y="510" as="targetPoint" />
            <Array as="points">
              <mxPoint x="190" y="350" />
              <mxPoint x="200" y="500" />
            </Array>
          </mxGeometry>
        </mxCell>
        <mxCell id="8oy2ZjV4FJxmVUqgHbTL-55" value="" style="endArrow=classic;html=1;rounded=0;exitX=0;exitY=0.5;exitDx=0;exitDy=0;exitPerimeter=0;entryX=1;entryY=0.5;entryDx=0;entryDy=0;" edge="1" parent="1" source="8oy2ZjV4FJxmVUqgHbTL-18" target="8oy2ZjV4FJxmVUqgHbTL-38">
          <mxGeometry width="50" height="50" relative="1" as="geometry">
            <mxPoint x="160" y="210" as="sourcePoint" />
            <mxPoint x="210" y="160" as="targetPoint" />
          </mxGeometry>
        </mxCell>
        <mxCell id="8oy2ZjV4FJxmVUqgHbTL-56" value="" style="endArrow=classic;html=1;exitX=0;exitY=0.5;exitDx=0;exitDy=0;entryX=0.5;entryY=1;entryDx=0;entryDy=0;curved=1;" edge="1" parent="1" source="8oy2ZjV4FJxmVUqgHbTL-25" target="8oy2ZjV4FJxmVUqgHbTL-11">
          <mxGeometry width="50" height="50" relative="1" as="geometry">
            <mxPoint x="-250" y="390" as="sourcePoint" />
            <mxPoint x="-200" y="340" as="targetPoint" />
            <Array as="points">
              <mxPoint x="-130" y="440" />
              <mxPoint x="-140" y="590" />
              <mxPoint x="-130" y="700" />
              <mxPoint x="-10" y="710" />
              <mxPoint x="60" y="710" />
              <mxPoint x="360" y="710" />
              <mxPoint x="480" y="710" />
              <mxPoint x="580" y="680" />
              <mxPoint x="620" y="570" />
            </Array>
          </mxGeometry>
        </mxCell>
        <mxCell id="8oy2ZjV4FJxmVUqgHbTL-57" value="" style="endArrow=none;html=1;entryX=0.5;entryY=1;entryDx=0;entryDy=0;curved=1;" edge="1" parent="1" target="8oy2ZjV4FJxmVUqgHbTL-19">
          <mxGeometry width="50" height="50" relative="1" as="geometry">
            <mxPoint x="120" y="710" as="sourcePoint" />
            <mxPoint x="50" y="750" as="targetPoint" />
            <Array as="points">
              <mxPoint x="20" y="690" />
            </Array>
          </mxGeometry>
        </mxCell>
        <mxCell id="8oy2ZjV4FJxmVUqgHbTL-58" value="" style="endArrow=none;html=1;entryX=0.5;entryY=1;entryDx=0;entryDy=0;curved=1;" edge="1" parent="1">
          <mxGeometry width="50" height="50" relative="1" as="geometry">
            <mxPoint x="440" y="710" as="sourcePoint" />
            <mxPoint x="290" y="670" as="targetPoint" />
            <Array as="points">
              <mxPoint x="295" y="690" />
            </Array>
          </mxGeometry>
        </mxCell>
      </root>
    </mxGraphModel>
  </diagram>
</mxfile>
